{
customParameters = (
{
name = glyphOrder;
value = (
    A,
    B,
    C,
    D,
    E,
    F,
    G,
    H,
    I,
    J,
    K,
    L,
    M,
    N,
    O,
    P,
    Q,
    R,
    S,
    T,
    U,
    V,
    W,
    X,
    Y,
    Z,
    a,
    b,
    c,
    d,
    e,
    f,
    g,
    h,
    i,
    j,
    k,
    l,
    m,
    n,
    o,
    p,
    q,
    r,
    s,
    t,
    u,
    v,
    w,
    x,
    y,
    z,
    uni0621,
    uni0627,
    uniFE8E,
    "uni0627.short",
    "uniFE8E.short",
    uni0623,
    uniFE84,
    uni0625,
    uniFE88,
    uni0672,
    "uni0672.fina",
    uni0673,
    "uni0673.fina",
    uni0622,
    uniFE82,
    uni0671,
    uniFB51,
    uniFD3D,
    uniFD3C,
    uni0675,
    "uni0675.fina",
    uni066E,
    "uni066E.fina",
    "uni066E.medi",
    "uni066E.init",
    uni0628,
    uniFE90,
    uniFE92,
    uniFE91,
    uni067E,
    uniFB57,
    uniFB59,
    uniFB58,
    uni067B,
    uniFB53,
    uniFB55,
    uniFB54,
    uni0680,
    uniFB5B,
    uniFB5D,
    uniFB5C,
    uni062A,
    uniFE96,
    uniFE98,
    uniFE97,
    uni067C,
    "uni067C.fina",
    "uni067C.init",
    "uni067C.medi",
    uni067D,
    "uni067D.fina",
    "uni067D.init",
    "uni067D.medi",
    uni062B,
    uniFE9A,
    uniFE9C,
    uniFE9B,
    uni0679,
    uniFB67,
    uniFB69,
    uniFB68,
    uni067A,
    uniFB5F,
    uniFB61,
    uniFB60,
    uni067F,
    uniFB63,
    uniFB65,
    uniFB64,
    uni0750,
    "uni0750.fina",
    "uni0750.init",
    "uni0750.medi",
    uni0751,
    "uni0751.fina",
    "uni0751.init",
    "uni0751.medi",
    uni0752,
    "uni0752.fina",
    "uni0752.init",
    "uni0752.medi",
    uni0753,
    "uni0753.fina",
    "uni0753.init",
    "uni0753.medi",
    uni0754,
    "uni0754.fina",
    "uni0754.init",
    "uni0754.medi",
    uni0755,
    "uni0755.fina",
    "uni0755.init",
    "uni0755.medi",
    uni0756,
    uni08A0,
    "uni08A0.fina",
    "uni08A0.init",
    "uni08A0.medi",
    "uni0756.fina",
    "uni0756.init",
    "uni0756.medi",

glyphs = (
{
glyphname = uni0621;
layers = (
{
anchors = (
{
name = bottom;
position = "{181, 1}";
},
{
name = top;
position = "{181, 281}";
}
);
layerId = "0E844BAD-773F-41FF-B6D6-C35F1E5E991C";
name = Bold;
paths = (
{
closed = 1;
nodes = (
"301 132 OFFCURVE",
"278 129 OFFCURVE",
"257 125 CURVE SMOOTH",
"232 122 OFFCURVE",
"221 121 OFFCURVE",
"197 127 CURVE SMOOTH",
"165 136 OFFCURVE",
"156 150 OFFCURVE",
"153 157 CURVE",
"162 163 OFFCURVE",
"185 174 OFFCURVE",
"216 174 CURVE SMOOTH",
"230 174 OFFCURVE",
"246 171 OFFCURVE",
"261 165 CURVE",
"282 184 LINE",
"280 214 OFFCURVE",
"257 243 OFFCURVE",
"211 243 CURVE SMOOTH",
"181 243 OFFCURVE",
"151 233 OFFCURVE",
"124 210 CURVE SMOOTH",
"104 193 OFFCURVE",
"87 173 OFFCURVE",
"81 166 CURVE SMOOTH",
"74 157 OFFCURVE",
"72 149 OFFCURVE",
"72 139 CURVE SMOOTH",
"72 120 OFFCURVE",
"86 96 OFFCURVE",
"120 81 CURVE",
"98 68 OFFCURVE",
"70 49 OFFCURVE",
"56 30 CURVE SMOOTH",
"49 20 OFFCURVE",
"50 11 OFFCURVE",
"52 6 CURVE SMOOTH",
"56 -9 OFFCURVE",
"65 -12 OFFCURVE",
"75 -12 CURVE SMOOTH",
"75 -12 OFFCURVE",
"122 19 OFFCURVE",
"176 37 CURVE SMOOTH",
"211 49 OFFCURVE",
"247 59 OFFCURVE",
"282 60 CURVE",
"300 87 OFFCURVE",
"311 107 OFFCURVE",
"323 136 CURVE"
);
}
);
width = 363;
}
);
unicode = 0621;
},
{
glyphname = uni0627;
layers = (
{
anchors = (
{
name = bottom;
position = "{103, -35}";
},
{
name = top;
position = "{113, 633}";
}
);
layerId = "0E844BAD-773F-41FF-B6D6-C35F1E5E991C";
name = Bold;
paths = (
{
closed = 1;
nodes = (
"40 509 OFFCURVE",
"40 453 OFFCURVE",
"51 347 CURVE SMOOTH",
"58 280 OFFCURVE",
"63 242 OFFCURVE",
"68 207 CURVE SMOOTH",
"72 177 OFFCURVE",
"75 168 OFFCURVE",
"78 134 CURVE SMOOTH",
"84 67 OFFCURVE",
"79 0 OFFCURVE",
"79 0 CURVE",
"128 0 LINE",
"128 0 OFFCURVE",
"139 24 OFFCURVE",
"149 71 CURVE SMOOTH",
"165 149 OFFCURVE",
"173 268 OFFCURVE",
"155 425 CURVE SMOOTH",
"154 432 OFFCURVE",
"151 464 OFFCURVE",
"150 475 CURVE SMOOTH",
"145 533 OFFCURVE",
"145 608 OFFCURVE",
"145 608 CURVE SMOOTH",
"105 608 LINE",
"92 596 OFFCURVE",
"64 556 OFFCURVE",
"40 509 CURVE"
);
}
);
width = 215;
}
);
unicode = 0627;
},
{
glyphname = uniFE8E;
layers = (
{
anchors = (
{
name = bottom;
position = "{93, -30}";
},
{
name = top;
position = "{115, 628}";
}
);
layerId = "0E844BAD-773F-41FF-B6D6-C35F1E5E991C";
name = Bold;
paths = (
{
closed = 1;
nodes = (
"219 139 LINE SMOOTH",
"198 139 OFFCURVE",
"183 144 OFFCURVE",
"173 154 CURVE SMOOTH",
"163 164 OFFCURVE",
"159 179 OFFCURVE",
"158 199 CURVE SMOOTH",
"147 608 LINE",
"107 608 LINE",
"80 574 OFFCURVE",
"62 548 OFFCURVE",
"40 511 CURVE",
"55 414 OFFCURVE",
"62 277 OFFCURVE",
"62 166 CURVE SMOOTH",
"62 121 OFFCURVE",
"73 79 OFFCURVE",
"98 46 CURVE SMOOTH",
"121 16 OFFCURVE",
"157 0 OFFCURVE",
"201 0 CURVE SMOOTH",
"294 0 LINE",
"294 139 LINE"
);
}
);
width = 294;
}
);
unicode = FE8E;
},
{
glyphname = uni0627.short;
layers = (
{
anchors = (
{
name = bottom;
position = "{95, -35}";
},
{
name = top;
position = "{112, 721}";
}
);
layerId = "0E844BAD-773F-41FF-B6D6-C35F1E5E991C";
name = Bold;
paths = (
{
closed = 1;
nodes = (
"40 478 OFFCURVE",
"44 430 OFFCURVE",
"54 326 CURVE SMOOTH",
"60 261 OFFCURVE",
"66 220 OFFCURVE",
"69 195 CURVE SMOOTH",
"73 165 OFFCURVE",
"76 131 OFFCURVE",
"77 120 CURVE SMOOTH",
"84 60 OFFCURVE",
"75 0 OFFCURVE",
"75 0 CURVE",
"118 0 LINE",
"118 0 OFFCURVE",
"128 22 OFFCURVE",
"137 67 CURVE SMOOTH",
"152 142 OFFCURVE",
"159 243 OFFCURVE",
"143 387 CURVE",
"142 403 OFFCURVE",
"141 417 OFFCURVE",
"140 444 CURVE",
"136 506 OFFCURVE",
"133 571 OFFCURVE",
"133 571 CURVE SMOOTH",
"98 571 LINE",
"87 560 OFFCURVE",
"61 523 OFFCURVE",
"40 478 CURVE"
);
}
);
width = 202;
}
);
},
{
glyphname = uniFE8E.short;
layers = (
{
anchors = (
{
name = bottom;
position = "{83, -35}";
},
{
name = top;
position = "{116, 717}";
}
);
layerId = "0E844BAD-773F-41FF-B6D6-C35F1E5E991C";
name = Bold;
paths = (
{
closed = 1;
nodes = (
"214 139 LINE SMOOTH",
"193 139 OFFCURVE",
"178 144 OFFCURVE",
"168 154 CURVE SMOOTH",
"158 164 OFFCURVE",
"154 179 OFFCURVE",
"153 199 CURVE SMOOTH",
"142 571 LINE",
"102 571 LINE",
"75 539 OFFCURVE",
"62 523 OFFCURVE",
"40 493 CURVE",
"52 400 OFFCURVE",
"57 277 OFFCURVE",
"57 166 CURVE SMOOTH",
"57 121 OFFCURVE",
"68 79 OFFCURVE",
"93 46 CURVE SMOOTH",
"116 16 OFFCURVE",
"152 0 OFFCURVE",
"196 0 CURVE SMOOTH",
"289 0 LINE",
"289 139 LINE"
);
}
);
width = 289;
}
);
},
{
glyphname = uni066E;
layers = (
{
anchors = (
{
name = bottom;
position = "{408, -39}";
},
{
name = top;
position = "{419, 222}";
}
);
layerId = "0E844BAD-773F-41FF-B6D6-C35F1E5E991C";
name = Bold;
paths = (
{
closed = 1;
nodes = (
"710 334 OFFCURVE",
"679 287 OFFCURVE",
"667 254 CURVE",
"690 232 OFFCURVE",
"707 212 OFFCURVE",
"725 185 CURVE",
"698 172 OFFCURVE",
"652 156 OFFCURVE",
"595 146 CURVE SMOOTH",
"544 137 OFFCURVE",
"482 132 OFFCURVE",
"419 132 CURVE SMOOTH",
"350 132 OFFCURVE",
"284 138 OFFCURVE",
"250 143 CURVE SMOOTH",
"110 164 OFFCURVE",
"113 240 OFFCURVE",
"114 260 CURVE",
"70 271 LINE",
"63 247 OFFCURVE",
"37 137 OFFCURVE",
"108 62 CURVE SMOOTH",
"140 28 OFFCURVE",
"183 12 OFFCURVE",
"243 1 CURVE SMOOTH",
"276 -5 OFFCURVE",
"324 -11 OFFCURVE",
"391 -11 CURVE SMOOTH",
"503 -11 OFFCURVE",
"601 7 OFFCURVE",
"672 36 CURVE SMOOTH",
"761 73 OFFCURVE",
"808 142 OFFCURVE",
"809 213 CURVE SMOOTH",
"809 264 OFFCURVE",
"785 315 OFFCURVE",
"734 356 CURVE"
);
}
);
width = 859;
}
);
unicode = 066E;
},
{
glyphname = uni066E.fina;
layers = (
{
anchors = (
{
name = bottom;
position = "{408, -49}";
},
{
name = top;
position = "{416, 222}";
}
);
layerId = "0E844BAD-773F-41FF-B6D6-C35F1E5E991C";
name = Bold;
paths = (
{
closed = 1;
nodes = (
"690 158 OFFCURVE",
"621 146 OFFCURVE",
"562 140 CURVE SMOOTH",
"493 133 OFFCURVE",
"472 132 OFFCURVE",
"416 132 CURVE SMOOTH",
"320 132 OFFCURVE",
"259 135 OFFCURVE",
"209 149 CURVE SMOOTH",
"128 173 OFFCURVE",
"115 225 OFFCURVE",
"111 259 CURVE",
"67 269 LINE",
"58 220 OFFCURVE",
"52 155 OFFCURVE",
"84 98 CURVE SMOOTH",
"119 36 OFFCURVE",
"183 10 OFFCURVE",
"240 0 CURVE SMOOTH",
"279 -7 OFFCURVE",
"326 -10 OFFCURVE",
"384 -10 CURVE SMOOTH",
"472 -10 OFFCURVE",
"541 -3 OFFCURVE",
"595 11 CURVE SMOOTH",
"647 25 OFFCURVE",
"692 51 OFFCURVE",
"723 82 CURVE",
"725 77 OFFCURVE",
"732 54 OFFCURVE",
"755 34 CURVE SMOOTH",
"776 16 OFFCURVE",
"808 0 OFFCURVE",
"859 0 CURVE SMOOTH",
"924 0 LINE",
"924 139 LINE",
"862 139 LINE SMOOTH",
"824 139 OFFCURVE",
"798 154 OFFCURVE",
"787 171 CURVE",
"795 180 OFFCURVE",
"820 215 OFFCURVE",
"820 215 CURVE",
"771 233 LINE"
);
}
);
width = 924;
}
);
},
{
glyphname = uni066E.medi;
layers = (
{
anchors = (
{
name = bottom;
position = "{10, -29}";
},
{
name = top;
position = "{28, 262}";
}
);
guideLines = (
{
position = "{-1211, 646}";
}
);
layerId = "0E844BAD-773F-41FF-B6D6-C35F1E5E991C";
name = Bold;
paths = (
{
closed = 1;
nodes = (
"129 227 LINE",
"129 227 OFFCURVE",
"123 139 OFFCURVE",
"50 139 CURVE SMOOTH",
"-10 139 LINE SMOOTH",
"-34 139 OFFCURVE",
"-80 120 OFFCURVE",
"-80 71 CURVE SMOOTH",
"-80 31 OFFCURVE",
"-49 0 OFFCURVE",
"-10 0 CURVE SMOOTH",
"58 0 LINE SMOOTH",
"91 0 OFFCURVE",
"116 11 OFFCURVE",
"133 23 CURVE SMOOTH",
"149 35 OFFCURVE",
"158 48 OFFCURVE",
"159 50 CURVE",
"160 48 OFFCURVE",
"165 36 OFFCURVE",
"183 23 CURVE SMOOTH",
"200 11 OFFCURVE",
"225 0 OFFCURVE",
"265 0 CURVE SMOOTH",
"325 0 LINE",
"325 139 LINE",
"251 139 LINE SMOOTH",
"222 139 OFFCURVE",
"202 146 OFFCURVE",
"190 159 CURVE SMOOTH",
"167 186 OFFCURVE",
"180 246 OFFCURVE",
"180 246 CURVE"
);
}
);
width = 325;
}
);
userData = {
com.typemytype.robofont.guides = (
{
angle = 0;
isGlobal = 0;
x = -1211;
y = 646;
}
);
};
},
{
glyphname = uni066E.init;
layers = (
{
anchors = (
{
name = bottom;
position = "{19, -30}";
},
{
name = top;
position = "{21, 335}";
}
);
layerId = "0E844BAD-773F-41FF-B6D6-C35F1E5E991C";
name = Bold;
paths = (
{
closed = 1;
nodes = (
"95 320 OFFCURVE",
"78 293 OFFCURVE",
"55 247 CURVE",
"78 222 OFFCURVE",
"101 200 OFFCURVE",
"124 176 CURVE",
"108 152 OFFCURVE",
"72 139 OFFCURVE",
"45 139 CURVE SMOOTH",
"-10 139 LINE SMOOTH",
"-44 139 OFFCURVE",
"-80 113 OFFCURVE",
"-80 70 CURVE SMOOTH",
"-80 31 OFFCURVE",
"-49 0 OFFCURVE",
"-10 0 CURVE SMOOTH",
"37 0 LINE SMOOTH",
"90 0 OFFCURVE",
"132 22 OFFCURVE",
"159 65 CURVE SMOOTH",
"182 101 OFFCURVE",
"194 138 OFFCURVE",
"194 182 CURVE SMOOTH",
"194 288 OFFCURVE",
"123 350 OFFCURVE",
"123 350 CURVE"
);
}
);
width = 244;
}
);
},
{
glyphname = uni0750.init;
layers = (
{
anchors = (
{
name = top;
position = "{223, 335}";
}
);
components = (
{
name = "dots.horz.below-ar";
transform = "{1, 0, 0, 1, 184, 103}";
}
);
layerId = "0E844BAD-773F-41FF-B6D6-C35F1E5E991C";
name = Bold;
paths = (
{
closed = 1;
nodes = (
"307 320 OFFCURVE",
"290 293 OFFCURVE",
"267 247 CURVE",
"294 220 OFFCURVE",
"313 201 OFFCURVE",
"336 176 CURVE",
"320 152 OFFCURVE",
"284 139 OFFCURVE",
"257 139 CURVE SMOOTH",
"0 139 LINE SMOOTH",
"-34 139 OFFCURVE",
"-70 113 OFFCURVE",
"-70 70 CURVE SMOOTH",
"-70 31 OFFCURVE",
"-39 0 OFFCURVE",
"0 0 CURVE SMOOTH",
"249 0 LINE SMOOTH",
"302 0 OFFCURVE",
"344 22 OFFCURVE",
"371 65 CURVE SMOOTH",
"394 101 OFFCURVE",
"406 138 OFFCURVE",
"406 182 CURVE SMOOTH",
"406 288 OFFCURVE",
"335 350 OFFCURVE",
"335 350 CURVE"
);
}
);
width = 456;
}
);
},
{
glyphname = uni0750.medi;
layers = (
{
anchors = (
{
name = top;
position = "{208, 262}";
}
);
components = (
{
name = "dots.horz.below-ar";
transform = "{1, 0, 0, 1, 199, 102}";
}
);
layerId = "0E844BAD-773F-41FF-B6D6-C35F1E5E991C";
name = Bold;
paths = (
{
closed = 1;
nodes = (
"360 227 LINE",
"360 227 OFFCURVE",
"354 139 OFFCURVE",
"281 139 CURVE SMOOTH",
"-10 139 LINE SMOOTH",
"-34 139 OFFCURVE",
"-80 120 OFFCURVE",
"-80 71 CURVE SMOOTH",
"-80 31 OFFCURVE",
"-49 0 OFFCURVE",
"-10 0 CURVE SMOOTH",
"289 0 LINE SMOOTH",
"322 0 OFFCURVE",
"347 11 OFFCURVE",
"364 23 CURVE SMOOTH",
"380 35 OFFCURVE",
"389 48 OFFCURVE",
"390 50 CURVE",
"391 48 OFFCURVE",
"396 36 OFFCURVE",
"414 23 CURVE SMOOTH",
"431 11 OFFCURVE",
"456 0 OFFCURVE",
"496 0 CURVE SMOOTH",
"556 0 LINE",
"556 139 LINE",
"482 139 LINE SMOOTH",
"453 139 OFFCURVE",
"433 146 OFFCURVE",
"421 159 CURVE SMOOTH",
"398 186 OFFCURVE",
"411 246 OFFCURVE",
"411 246 CURVE"
);
}
);
width = 556;
}
);
},
{
glyphname = uni062D;
layers = (
{
anchors = (
{
name = bottom;
position = "{300, -366}";
},
{
name = center;
position = "{329, 0}";
},
{
name = top;
position = "{260, 390}";
}
);
layerId = "0E844BAD-773F-41FF-B6D6-C35F1E5E991C";
name = Bold;
paths = (
{
closed = 1;
nodes = (
"545 312 OFFCURVE",
"523 311 OFFCURVE",
"502 311 CURVE SMOOTH",
"392 311 OFFCURVE",
"335 330 OFFCURVE",
"290 344 CURVE SMOOTH",
"250 356 OFFCURVE",
"224 360 OFFCURVE",
"210 360 CURVE SMOOTH",
"164 360 OFFCURVE",
"135 340 OFFCURVE",
"104 283 CURVE SMOOTH",
"90 258 OFFCURVE",
"79 231 OFFCURVE",
"79 231 CURVE",
"114 202 LINE",
"136 237 OFFCURVE",
"154 249 OFFCURVE",
"199 249 CURVE SMOOTH",
"222 249 OFFCURVE",
"241 246 OFFCURVE",
"265 239 CURVE",
"236 225 OFFCURVE",
"208 207 OFFCURVE",
"182 185 CURVE SMOOTH",
"151 158 OFFCURVE",
"124 124 OFFCURVE",
"103 86 CURVE SMOOTH",
"79 42 OFFCURVE",
"64 -9 OFFCURVE",
"61 -65 CURVE SMOOTH",
"57 -136 OFFCURVE",
"76 -210 OFFCURVE",
"120 -259 CURVE SMOOTH",
"165 -309 OFFCURVE",
"228 -336 OFFCURVE",
"300 -336 CURVE SMOOTH",
"351 -336 OFFCURVE",
"378 -322 OFFCURVE",
"404 -308 CURVE SMOOTH",
"429 -295 OFFCURVE",
"462 -280 OFFCURVE",
"504 -282 CURVE",
"521 -229 LINE",
"479 -221 OFFCURVE",
"440 -219 OFFCURVE",
"414 -218 CURVE SMOOTH",
"407 -218 OFFCURVE",
"357 -215 OFFCURVE",
"317 -208 CURVE SMOOTH",
"257 -197 OFFCURVE",
"216 -174 OFFCURVE",
"190 -146 CURVE SMOOTH",
"154 -107 OFFCURVE",
"145 -58 OFFCURVE",
"150 -14 CURVE SMOOTH",
"157 58 OFFCURVE",
"194 110 OFFCURVE",
"247 145 CURVE SMOOTH",
"317 191 OFFCURVE",
"418 207 OFFCURVE",
"522 195 CURVE",
"540 234 OFFCURVE",
"550 274 OFFCURVE",
"561 313 CURVE"
);
}
);
width = 611;
}
);
unicode = 062D;
},
{
glyphname = uniFEA2;
layers = (
{
anchors = (
{
name = bottom;
position = "{300, -373}";
},
{
name = center;
position = "{313, -20}";
},
{
name = top;
position = "{270, 390}";
}
);
layerId = "0E844BAD-773F-41FF-B6D6-C35F1E5E991C";
name = Bold;
paths = (
{
closed = 1;
nodes = (
"599 139 LINE SMOOTH",
"559 139 OFFCURVE",
"536 148 OFFCURVE",
"522 161 CURVE SMOOTH",
"510 172 OFFCURVE",
"505 184 OFFCURVE",
"503 197 CURVE",
"510 197 OFFCURVE",
"523 196 OFFCURVE",
"531 195 CURVE",
"549 234 OFFCURVE",
"559 274 OFFCURVE",
"570 313 CURVE",
"554 312 OFFCURVE",
"532 311 OFFCURVE",
"511 311 CURVE SMOOTH",
"401 311 OFFCURVE",
"350 325 OFFCURVE",
"290 344 CURVE SMOOTH",
"249 357 OFFCURVE",
"224 360 OFFCURVE",
"210 360 CURVE SMOOTH",
"164 360 OFFCURVE",
"135 340 OFFCURVE",
"104 283 CURVE SMOOTH",
"90 258 OFFCURVE",
"79 231 OFFCURVE",
"79 231 CURVE",
"114 202 LINE",
"136 237 OFFCURVE",
"154 249 OFFCURVE",
"199 249 CURVE SMOOTH",
"222 249 OFFCURVE",
"241 246 OFFCURVE",
"265 239 CURVE",
"235 225 OFFCURVE",
"205 205 OFFCURVE",
"179 182 CURVE SMOOTH",
"143 149 OFFCURVE",
"112 107 OFFCURVE",
"91 60 CURVE SMOOTH",
"74 22 OFFCURVE",
"63 -21 OFFCURVE",
"61 -65 CURVE SMOOTH",
"58 -143 OFFCURVE",
"76 -217 OFFCURVE",
"120 -266 CURVE SMOOTH",
"165 -316 OFFCURVE",
"228 -343 OFFCURVE",
"300 -343 CURVE SMOOTH",
"351 -343 OFFCURVE",
"378 -329 OFFCURVE",
"404 -315 CURVE SMOOTH",
"429 -302 OFFCURVE",
"462 -287 OFFCURVE",
"504 -289 CURVE",
"521 -236 LINE",
"479 -228 OFFCURVE",
"440 -226 OFFCURVE",
"414 -225 CURVE SMOOTH",
"407 -225 OFFCURVE",
"357 -222 OFFCURVE",
"317 -215 CURVE SMOOTH",
"257 -204 OFFCURVE",
"216 -181 OFFCURVE",
"190 -153 CURVE SMOOTH",
"154 -114 OFFCURVE",
"146 -58 OFFCURVE",
"150 -14 CURVE SMOOTH",
"155 39 OFFCURVE",
"182 86 OFFCURVE",
"220 121 CURVE SMOOTH",
"273 171 OFFCURVE",
"350 200 OFFCURVE",
"437 199 CURVE",
"431 144 OFFCURVE",
"437 99 OFFCURVE",
"456 66 CURVE SMOOTH",
"480 23 OFFCURVE",
"526 0 OFFCURVE",
"595 0 CURVE SMOOTH",
"699 0 LINE",
"699 139 LINE"
);
}
);
width = 699;
}
);
unicode = FEA2;
},
{
glyphname = uniFEA4;
layers = (
{
anchors = (
{
name = bottom;
position = "{184, -29}";
},
{
name = top;
position = "{203, 393}";
}
);
layerId = "0E844BAD-773F-41FF-B6D6-C35F1E5E991C";
name = Bold;
paths = (
{
closed = 1;
nodes = (
"543 300 OFFCURVE",
"536 299 OFFCURVE",
"530 299 CURVE SMOOTH",
"386 295 OFFCURVE",
"354 300 OFFCURVE",
"242 341 CURVE SMOOTH",
"210 353 OFFCURVE",
"182 363 OFFCURVE",
"153 363 CURVE SMOOTH",
"120 363 OFFCURVE",
"92 350 OFFCURVE",
"67 323 CURVE SMOOTH",
"35 289 OFFCURVE",
"21 247 OFFCURVE",
"14 224 CURVE",
"48 193 LINE",
"64 226 OFFCURVE",
"80 244 OFFCURVE",
"123 244 CURVE SMOOTH",
"175 244 OFFCURVE",
"233 218 OFFCURVE",
"280 204 CURVE",
"263 192 OFFCURVE",
"224 172 OFFCURVE",
"184 160 CURVE SMOOTH",
"145 148 OFFCURVE",
"95 139 OFFCURVE",
"37 139 CURVE SMOOTH",
"-10 139 LINE SMOOTH",
"-49 139 OFFCURVE",
"-80 108 OFFCURVE",
"-80 70 CURVE SMOOTH",
"-80 29 OFFCURVE",
"-44 0 OFFCURVE",
"-10 0 CURVE SMOOTH",
"42 0 LINE SMOOTH",
"99 0 OFFCURVE",
"142 13 OFFCURVE",
"181 30 CURVE SMOOTH",
"234 53 OFFCURVE",
"269 80 OFFCURVE",
"312 114 CURVE SMOOTH",
"322 122 OFFCURVE",
"348 141 OFFCURVE",
"357 146 CURVE",
"361 111 OFFCURVE",
"370 83 OFFCURVE",
"386 60 CURVE SMOOTH",
"415 18 OFFCURVE",
"460 0 OFFCURVE",
"520 0 CURVE SMOOTH",
"674 0 LINE",
"674 139 LINE",
"507 139 LINE SMOOTH",
"469 139 OFFCURVE",
"444 151 OFFCURVE",
"434 176 CURVE",
"457 177 OFFCURVE",
"491 172 OFFCURVE",
"491 172 CURVE",
"518 220 OFFCURVE",
"530 249 OFFCURVE",
"549 300 CURVE"
);
}
);
width = 674;
}
);
unicode = FEA4;
},
{
glyphname = uniFEA3;
layers = (
{
anchors = (
{
name = bottom;
position = "{184, -29}";
},
{
name = top;
position = "{204, 372}";
}
);
layerId = "0E844BAD-773F-41FF-B6D6-C35F1E5E991C";
name = Bold;
paths = (
{
closed = 1;
nodes = (
"532 272 OFFCURVE",
"525 271 OFFCURVE",
"519 271 CURVE SMOOTH",
"371 271 OFFCURVE",
"361 273 OFFCURVE",
"244 318 CURVE SMOOTH",
"211 331 OFFCURVE",
"183 342 OFFCURVE",
"154 342 CURVE SMOOTH",
"121 342 OFFCURVE",
"91 328 OFFCURVE",
"67 303 CURVE SMOOTH",
"44 279 OFFCURVE",
"33 255 OFFCURVE",
"25 212 CURVE",
"54 185 LINE",
"71 219 OFFCURVE",
"93 231 OFFCURVE",
"128 231 CURVE SMOOTH",
"147 231 OFFCURVE",
"188 228 OFFCURVE",
"285 185 CURVE",
"262 174 OFFCURVE",
"221 160 OFFCURVE",
"182 152 CURVE SMOOTH",
"147 145 OFFCURVE",
"95 139 OFFCURVE",
"47 139 CURVE SMOOTH",
"-10 139 LINE SMOOTH",
"-49 139 OFFCURVE",
"-80 111 OFFCURVE",
"-80 69 CURVE SMOOTH",
"-80 26 OFFCURVE",
"-47 0 OFFCURVE",
"-10 0 CURVE SMOOTH",
"42 0 LINE SMOOTH",
"159 0 OFFCURVE",
"224 42 OFFCURVE",
"273 74 CURVE SMOOTH",
"348 123 OFFCURVE",
"375 139 OFFCURVE",
"476 139 CURVE",
"503 183 OFFCURVE",
"521 225 OFFCURVE",
"538 272 CURVE"
);
}
);
width = 588;
}
);
unicode = FEA3;
},
{
glyphname = uni062F;
layers = (
{
anchors = (
{
name = bottom;
position = "{201, -40}";
},
{
name = top;
position = "{187, 449}";
}
);
layerId = "0E844BAD-773F-41FF-B6D6-C35F1E5E991C";
name = Bold;
paths = (
{
closed = 1;
nodes = (
"403 224 OFFCURVE",
"389 293 OFFCURVE",
"323 352 CURVE SMOOTH",
"270 399 OFFCURVE",
"207 419 OFFCURVE",
"207 419 CURVE",
"192 379 OFFCURVE",
"182 340 OFFCURVE",
"172 298 CURVE",
"260 266 OFFCURVE",
"320 198 OFFCURVE",
"334 180 CURVE",
"323 165 OFFCURVE",
"289 127 OFFCURVE",
"222 127 CURVE SMOOTH",
"181 127 LINE SMOOTH",
"124 127 OFFCURVE",
"104 151 OFFCURVE",
"104 209 CURVE SMOOTH",
"104 211 OFFCURVE",
"104 214 OFFCURVE",
"104 214 CURVE",
"56 196 LINE",
"56 196 OFFCURVE",
"31 100 OFFCURVE",
"80 38 CURVE SMOOTH",
"104 8 OFFCURVE",
"143 -10 OFFCURVE",
"201 -10 CURVE SMOOTH",
"262 -10 OFFCURVE",
"313 10 OFFCURVE",
"349 47 CURVE SMOOTH",
"382 81 OFFCURVE",
"403 133 OFFCURVE",
"403 183 CURVE SMOOTH"
);
}
);
width = 453;
}
);
unicode = 062F;
},
{
glyphname = uniFEAA;
layers = (
{
anchors = (
{
name = bottom;
position = "{203, -34}";
},
{
name = top;
position = "{290, 453}";
}
);
layerId = "0E844BAD-773F-41FF-B6D6-C35F1E5E991C";
name = Bold;
paths = (
{
closed = 1;
nodes = (
"325 406 OFFCURVE",
"299 375 OFFCURVE",
"274 343 CURVE",
"312 209 LINE",
"312 174 OFFCURVE",
"280 133 OFFCURVE",
"224 133 CURVE SMOOTH",
"183 133 LINE SMOOTH",
"155 133 OFFCURVE",
"134 140 OFFCURVE",
"122 153 CURVE SMOOTH",
"109 167 OFFCURVE",
"106 182 OFFCURVE",
"106 220 CURVE",
"57 202 LINE",
"44 142 OFFCURVE",
"46 85 OFFCURVE",
"80 44 CURVE SMOOTH",
"106 12 OFFCURVE",
"147 -4 OFFCURVE",
"203 -4 CURVE SMOOTH",
"281 -4 OFFCURVE",
"334 24 OFFCURVE",
"361 80 CURVE",
"372 57 OFFCURVE",
"390 38 OFFCURVE",
"410 25 CURVE SMOOTH",
"436 8 OFFCURVE",
"468 0 OFFCURVE",
"502 0 CURVE SMOOTH",
"554 0 LINE",
"554 139 LINE",
"503 139 LINE SMOOTH",
"455 139 OFFCURVE",
"434 159 OFFCURVE",
"409 230 CURVE",
"350 433 LINE"
);
}
);
width = 554;
}
);
unicode = FEAA;
},
{
glyphname = uni0631;
layers = (
{
anchors = (
{
name = bottom;
position = "{71, -230}";
},
{
name = top;
position = "{172, 318}";
}
);
layerId = "0E844BAD-773F-41FF-B6D6-C35F1E5E991C";
name = Bold;
paths = (
{
closed = 1;
nodes = (
"185 255 OFFCURVE",
"161 219 OFFCURVE",
"138 181 CURVE",
"138 181 OFFCURVE",
"158 168 OFFCURVE",
"183 137 CURVE SMOOTH",
"201 115 OFFCURVE",
"218 87 OFFCURVE",
"218 54 CURVE SMOOTH",
"218 -6 OFFCURVE",
"164 -42 OFFCURVE",
"90 -84 CURVE SMOOTH",
"65 -98 OFFCURVE",
"25 -120 OFFCURVE",
"-16 -142 CURVE SMOOTH",
"-55 -163 OFFCURVE",
"-60 -165 OFFCURVE",
"-60 -165 CURVE",
"-30 -208 LINE",
"-5 -200 OFFCURVE",
"28 -197 OFFCURVE",
"49 -197 CURVE SMOOTH",
"70 -197 OFFCURVE",
"78 -200 OFFCURVE",
"101 -200 CURVE SMOOTH",
"139 -200 OFFCURVE",
"167 -192 OFFCURVE",
"192 -175 CURVE SMOOTH",
"214 -160 OFFCURVE",
"234 -136 OFFCURVE",
"249 -110 CURVE SMOOTH",
"285 -48 OFFCURVE",
"296 29 OFFCURVE",
"296 81 CURVE SMOOTH",
"296 162 OFFCURVE",
"270 216 OFFCURVE",
"244 252 CURVE SMOOTH",
"226 277 OFFCURVE",
"212 288 OFFCURVE",
"212 288 CURVE"
);
}
);
width = 346;
}
);
unicode = 0631;
},
{
glyphname = uniFEAE;
layers = (
{
anchors = (
{
name = bottom;
position = "{71, -308}";
},
{
name = top;
position = "{175, 242}";
}
);
layerId = "0E844BAD-773F-41FF-B6D6-C35F1E5E991C";
name = Bold;
paths = (
{
closed = 1;
nodes = (
"185 180 OFFCURVE",
"161 145 OFFCURVE",
"138 104 CURVE",
"138 104 OFFCURVE",
"218 47 OFFCURVE",
"218 -26 CURVE SMOOTH",
"218 -82 OFFCURVE",
"170 -116 OFFCURVE",
"90 -161 CURVE SMOOTH",
"25 -198 OFFCURVE",
"-60 -243 OFFCURVE",
"-60 -243 CURVE",
"-30 -286 LINE",
"-12 -279 OFFCURVE",
"27 -275 OFFCURVE",
"50 -275 CURVE SMOOTH",
"69 -275 OFFCURVE",
"81 -278 OFFCURVE",
"101 -278 CURVE SMOOTH",
"136 -278 OFFCURVE",
"167 -269 OFFCURVE",
"192 -252 CURVE SMOOTH",
"219 -234 OFFCURVE",
"237 -206 OFFCURVE",
"248 -187 CURVE SMOOTH",
"287 -120 OFFCURVE",
"297 -63 OFFCURVE",
"296 6 CURVE",
"309 2 OFFCURVE",
"324 0 OFFCURVE",
"340 0 CURVE SMOOTH",
"426 0 LINE",
"426 139 LINE",
"327 139 LINE SMOOTH",
"304 139 OFFCURVE",
"282 147 OFFCURVE",
"260 162 CURVE",
"228 185 OFFCURVE",
"215 212 OFFCURVE",
"215 212 CURVE"
);
}
);
width = 426;
}
);
unicode = FEAE;
},
{
glyphname = uni08AA;
layers = (
{
anchors = (
{
name = bottom;
position = "{186, -282}";
},
{
name = top;
position = "{279, 329}";
}
);
layerId = "0E844BAD-773F-41FF-B6D6-C35F1E5E991C";
name = Bold;
paths = (
{
closed = 1;
nodes = (
"316 255 OFFCURVE",
"292 219 OFFCURVE",
"269 181 CURVE",
"269 181 OFFCURVE",
"289 168 OFFCURVE",
"314 137 CURVE SMOOTH",
"332 115 OFFCURVE",
"349 87 OFFCURVE",
"349 54 CURVE SMOOTH",
"349 11 OFFCURVE",
"322 -19 OFFCURVE",
"279 -49 CURVE",
"274 -39 OFFCURVE",
"243 37 OFFCURVE",
"157 37 CURVE SMOOTH",
"76 37 OFFCURVE",
"40 -35 OFFCURVE",
"40 -80 CURVE SMOOTH",
"40 -123 OFFCURVE",
"56 -154 OFFCURVE",
"80 -175 CURVE SMOOTH",
"109 -201 OFFCURVE",
"149 -212 OFFCURVE",
"186 -212 CURVE SMOOTH",
"212 -213 OFFCURVE",
"236 -208 OFFCURVE",
"253 -199 CURVE",
"257 -217 OFFCURVE",
"260 -232 OFFCURVE",
"264 -261 CURVE",
"325 -207 LINE",
"322 -197 OFFCURVE",
"320 -184 OFFCURVE",
"317 -173 CURVE",
"339 -156 OFFCURVE",
"383 -125 OFFCURVE",
"407 -49 CURVE SMOOTH",
"424 3 OFFCURVE",
"427 53 OFFCURVE",
"427 81 CURVE SMOOTH",
"427 162 OFFCURVE",
"401 216 OFFCURVE",
"375 252 CURVE SMOOTH",
"368 263 OFFCURVE",
"353 279 OFFCURVE",
"343 288 CURVE"
);
},
{
closed = 1;
nodes = (
"212 -89 OFFCURVE",
"188 -99 OFFCURVE",
"177 -101 CURVE SMOOTH",
"107 -117 OFFCURVE",
"94 -87 OFFCURVE",
"97 -67 CURVE SMOOTH",
"100 -50 OFFCURVE",
"118 -38 OFFCURVE",
"139 -38 CURVE SMOOTH",
"169 -38 OFFCURVE",
"195 -55 OFFCURVE",
"215 -88 CURVE"
);
}
);
width = 477;
}
);
unicode = 08AA;
},
{
glyphname = uni08AA.fina;
layers = (
{
anchors = (
{
name = bottom;
position = "{186, -348}";
},
{
name = top;
position = "{272, 254}";
}
);
layerId = "0E844BAD-773F-41FF-B6D6-C35F1E5E991C";
name = Bold;
paths = (
{
closed = 1;
nodes = (
"455 139 LINE SMOOTH",
"432 139 OFFCURVE",
"407 143 OFFCURVE",
"388 162 CURVE SMOOTH",
"372 178 OFFCURVE",
"365 188 OFFCURVE",
"343 212 CURVE",
"329 197 OFFCURVE",
"289 143 OFFCURVE",
"269 105 CURVE",
"269 105 OFFCURVE",
"289 92 OFFCURVE",
"314 61 CURVE SMOOTH",
"332 39 OFFCURVE",
"349 11 OFFCURVE",
"349 -22 CURVE SMOOTH",
"349 -65 OFFCURVE",
"322 -95 OFFCURVE",
"279 -125 CURVE",
"274 -115 OFFCURVE",
"243 -39 OFFCURVE",
"157 -39 CURVE SMOOTH",
"76 -39 OFFCURVE",
"40 -111 OFFCURVE",
"40 -156 CURVE SMOOTH",
"40 -199 OFFCURVE",
"56 -230 OFFCURVE",
"80 -251 CURVE SMOOTH",
"109 -277 OFFCURVE",
"149 -288 OFFCURVE",
"186 -288 CURVE",
"212 -289 OFFCURVE",
"236 -284 OFFCURVE",
"253 -275 CURVE",
"257 -293 OFFCURVE",
"260 -308 OFFCURVE",
"264 -337 CURVE",
"325 -283 LINE",
"322 -273 OFFCURVE",
"320 -260 OFFCURVE",
"317 -249 CURVE",
"339 -232 OFFCURVE",
"383 -201 OFFCURVE",
"407 -125 CURVE SMOOTH",
"415 -101 OFFCURVE",
"420 -77 OFFCURVE",
"423 -55 CURVE SMOOTH",
"426 -31 OFFCURVE",
"427 -10 OFFCURVE",
"427 5 CURVE",
"439 2 OFFCURVE",
"453 0 OFFCURVE",
"468 0 CURVE SMOOTH",
"554 0 LINE",
"554 139 LINE"
);
},
{
closed = 1;
nodes = (
"212 -165 OFFCURVE",
"188 -175 OFFCURVE",
"177 -177 CURVE",
"107 -193 OFFCURVE",
"94 -163 OFFCURVE",
"97 -143 CURVE SMOOTH",
"100 -126 OFFCURVE",
"118 -114 OFFCURVE",
"139 -114 CURVE SMOOTH",
"169 -114 OFFCURVE",
"195 -131 OFFCURVE",
"215 -164 CURVE"
);
}
);
width = 554;
}
);
},
{
glyphname = uni0633;
layers = (
{
anchors = (
{
name = bottom;
position = "{305, -314}";
},
{
name = top;
position = "{655, 270}";
}
);
layerId = "0E844BAD-773F-41FF-B6D6-C35F1E5E991C";
name = Bold;
paths = (
{
closed = 1;
nodes = (
"791 284 OFFCURVE",
"774 263 OFFCURVE",
"757 234 CURVE",
"805 165 LINE",
"797 149 OFFCURVE",
"781 135 OFFCURVE",
"752 135 CURVE SMOOTH",
"692 135 OFFCURVE",
"685 179 OFFCURVE",
"695 240 CURVE",
"644 221 LINE",
"639 175 OFFCURVE",
"620 135 OFFCURVE",
"569 135 CURVE SMOOTH",
"553 135 OFFCURVE",
"506 150 OFFCURVE",
"481 213 CURVE",
"454 183 OFFCURVE",
"428 147 OFFCURVE",
"408 109 CURVE",
"456 46 OFFCURVE",
"497 -13 OFFCURVE",
"497 -45 CURVE SMOOTH",
"497 -80 OFFCURVE",
"458 -105 OFFCURVE",
"406 -119 CURVE SMOOTH",
"375 -127 OFFCURVE",
"339 -131 OFFCURVE",
"304 -131 CURVE SMOOTH",
"244 -131 OFFCURVE",
"187 -116 OFFCURVE",
"158 -81 CURVE SMOOTH",
"131 -48 OFFCURVE",
"130 1 OFFCURVE",
"142 54 CURVE",
"99 69 LINE",
"79 28 OFFCURVE",
"64 -25 OFFCURVE",
"61 -68 CURVE SMOOTH",
"59 -99 OFFCURVE",
"62 -134 OFFCURVE",
"75 -166 CURVE SMOOTH",
"92 -207 OFFCURVE",
"123 -238 OFFCURVE",
"164 -258 CURVE SMOOTH",
"200 -275 OFFCURVE",
"242 -284 OFFCURVE",
"295 -284 CURVE SMOOTH",
"338 -284 OFFCURVE",
"374 -280 OFFCURVE",
"406 -270 CURVE SMOOTH",
"454 -256 OFFCURVE",
"492 -228 OFFCURVE",
"519 -191 CURVE SMOOTH",
"550 -148 OFFCURVE",
"568 -93 OFFCURVE",
"568 -29 CURVE SMOOTH",
"568 -18 OFFCURVE",
"568 2 OFFCURVE",
"567 13 CURVE",
"588 7 OFFCURVE",
"609 8 OFFCURVE",
"626 15 CURVE SMOOTH",
"642 22 OFFCURVE",
"655 35 OFFCURVE",
"662 53 CURVE",
"666 45 OFFCURVE",
"675 35 OFFCURVE",
"689 26 CURVE SMOOTH",
"703 17 OFFCURVE",
"723 10 OFFCURVE",
"750 10 CURVE SMOOTH",
"787 10 OFFCURVE",
"821 34 OFFCURVE",
"844 66 CURVE SMOOTH",
"863 94 OFFCURVE",
"875 128 OFFCURVE",
"875 160 CURVE SMOOTH",
"875 270 OFFCURVE",
"816 312 OFFCURVE",
"816 312 CURVE"
);
}
);
width = 925;
}
);
unicode = 0633;
},
{
glyphname = uniFEB2;
layers = (
{
anchors = (
{
name = bottom;
position = "{304, -314}";
},
{
name = top;
position = "{664, 270}";
}
);
layerId = "0E844BAD-773F-41FF-B6D6-C35F1E5E991C";
name = Bold;
paths = (
{
closed = 1;
nodes = (
"893 139 LINE SMOOTH",
"870 139 OFFCURVE",
"853 144 OFFCURVE",
"844 154 CURVE SMOOTH",
"828 171 OFFCURVE",
"833 195 OFFCURVE",
"838 240 CURVE",
"787 221 LINE",
"785 176 OFFCURVE",
"770 135 OFFCURVE",
"730 135 CURVE SMOOTH",
"688 135 OFFCURVE",
"687 183 OFFCURVE",
"695 240 CURVE",
"644 221 LINE",
"639 171 OFFCURVE",
"620 135 OFFCURVE",
"576 135 CURVE SMOOTH",
"547 135 OFFCURVE",
"513 150 OFFCURVE",
"481 213 CURVE",
"454 183 OFFCURVE",
"428 147 OFFCURVE",
"408 109 CURVE",
"456 46 OFFCURVE",
"497 -13 OFFCURVE",
"497 -45 CURVE SMOOTH",
"497 -84 OFFCURVE",
"457 -108 OFFCURVE",
"403 -121 CURVE SMOOTH",
"373 -128 OFFCURVE",
"339 -131 OFFCURVE",
"304 -131 CURVE SMOOTH",
"244 -131 OFFCURVE",
"187 -116 OFFCURVE",
"158 -81 CURVE SMOOTH",
"131 -48 OFFCURVE",
"130 1 OFFCURVE",
"142 54 CURVE",
"99 69 LINE",
"79 28 OFFCURVE",
"64 -25 OFFCURVE",
"61 -68 CURVE SMOOTH",
"59 -99 OFFCURVE",
"62 -134 OFFCURVE",
"75 -166 CURVE SMOOTH",
"93 -209 OFFCURVE",
"125 -239 OFFCURVE",
"164 -258 CURVE SMOOTH",
"197 -274 OFFCURVE",
"241 -284 OFFCURVE",
"294 -284 CURVE SMOOTH",
"343 -284 OFFCURVE",
"387 -276 OFFCURVE",
"425 -261 CURVE SMOOTH",
"472 -243 OFFCURVE",
"509 -213 OFFCURVE",
"534 -174 CURVE SMOOTH",
"559 -136 OFFCURVE",
"571 -88 OFFCURVE",
"568 -32 CURVE SMOOTH",
"567 -17 OFFCURVE",
"567 -1 OFFCURVE",
"566 10 CURVE",
"583 2 OFFCURVE",
"603 3 OFFCURVE",
"614 6 CURVE SMOOTH",
"635 12 OFFCURVE",
"644 26 OFFCURVE",
"655 46 CURVE",
"660 36 OFFCURVE",
"676 0 OFFCURVE",
"726 0 CURVE SMOOTH",
"777 0 OFFCURVE",
"795 37 OFFCURVE",
"800 47 CURVE",
"807 29 OFFCURVE",
"836 0 OFFCURVE",
"891 0 CURVE",
"936 0 LINE",
"936 139 LINE"
);
}
);
width = 936;
}
);
unicode = FEB2;
},
{
glyphname = uniFEB4;
layers = (
{
anchors = (
{
name = bottom;
position = "{272, -29}";
},
{
name = top;
position = "{292, 270}";
}
);
layerId = "0E844BAD-773F-41FF-B6D6-C35F1E5E991C";
name = Bold;
paths = (
{
closed = 1;
nodes = (
"520 139 LINE SMOOTH",
"496 139 OFFCURVE",
"480 144 OFFCURVE",
"471 154 CURVE SMOOTH",
"456 172 OFFCURVE",
"460 195 OFFCURVE",
"465 240 CURVE",
"414 221 LINE",
"414 201 OFFCURVE",
"411 184 OFFCURVE",
"406 170 CURVE SMOOTH",
"397 148 OFFCURVE",
"381 135 OFFCURVE",
"356 135 CURVE SMOOTH",
"330 135 OFFCURVE",
"319 151 OFFCURVE",
"317 178 CURVE SMOOTH",
"315 195 OFFCURVE",
"317 216 OFFCURVE",
"322 240 CURVE",
"271 221 LINE",
"270 197 OFFCURVE",
"264 177 OFFCURVE",
"255 163 CURVE SMOOTH",
"243 145 OFFCURVE",
"225 135 OFFCURVE",
"201 135 CURVE SMOOTH",
"168 135 OFFCURVE",
"155 153 OFFCURVE",
"152 180 CURVE SMOOTH",
"150 197 OFFCURVE",
"152 217 OFFCURVE",
"155 240 CURVE",
"104 221 LINE",
"101 199 OFFCURVE",
"99 187 OFFCURVE",
"87 169 CURVE SMOOTH",
"76 152 OFFCURVE",
"60 139 OFFCURVE",
"35 139 CURVE SMOOTH",
"-10 139 LINE SMOOTH",
"-48 139 OFFCURVE",
"-80 107 OFFCURVE",
"-80 69 CURVE SMOOTH",
"-80 25 OFFCURVE",
"-43 0 OFFCURVE",
"-10 0 CURVE SMOOTH",
"28 0 LINE SMOOTH",
"87 0 OFFCURVE",
"108 36 OFFCURVE",
"116 46 CURVE",
"122 37 OFFCURVE",
"138 -2 OFFCURVE",
"194 -2 CURVE SMOOTH",
"241 -2 OFFCURVE",
"274 32 OFFCURVE",
"281 47 CURVE",
"287 29 OFFCURVE",
"304 -2 OFFCURVE",
"348 -2 CURVE SMOOTH",
"402 -2 OFFCURVE",
"422 37 OFFCURVE",
"427 48 CURVE",
"443 16 OFFCURVE",
"480 0 OFFCURVE",
"518 0 CURVE SMOOTH",
"563 0 LINE",
"563 139 LINE"
);
}
);
width = 563;
}
);
unicode = FEB4;
},
{
glyphname = uniFEB3;
layers = (
{
anchors = (
{
name = bottom;
position = "{289, -29}";
},
{
name = top;
position = "{282, 270}";
}
);
layerId = "0E844BAD-773F-41FF-B6D6-C35F1E5E991C";
name = Bold;
paths = (
{
closed = 1;
nodes = (
"419 286 OFFCURVE",
"403 264 OFFCURVE",
"383 234 CURVE",
"432 165 LINE",
"425 149 OFFCURVE",
"408 135 OFFCURVE",
"378 135 CURVE SMOOTH",
"357 135 OFFCURVE",
"341 140 OFFCURVE",
"332 150 CURVE SMOOTH",
"319 165 OFFCURVE",
"317 184 OFFCURVE",
"319 208 CURVE SMOOTH",
"320 219 OFFCURVE",
"321 229 OFFCURVE",
"322 240 CURVE",
"271 221 LINE",
"270 213 OFFCURVE",
"269 205 OFFCURVE",
"268 197 CURVE SMOOTH",
"261 162 OFFCURVE",
"246 135 OFFCURVE",
"207 135 CURVE SMOOTH",
"163 135 OFFCURVE",
"154 169 OFFCURVE",
"152 195 CURVE SMOOTH",
"152 203 OFFCURVE",
"152 215 OFFCURVE",
"155 240 CURVE",
"104 221 LINE",
"101 202 OFFCURVE",
"97 185 OFFCURVE",
"87 170 CURVE SMOOTH",
"77 153 OFFCURVE",
"61 139 OFFCURVE",
"35 139 CURVE SMOOTH",
"-10 139 LINE SMOOTH",
"-47 139 OFFCURVE",
"-80 107 OFFCURVE",
"-80 69 CURVE SMOOTH",
"-80 36 OFFCURVE",
"-51 0 OFFCURVE",
"-10 0 CURVE SMOOTH",
"28 0 LINE SMOOTH",
"56 0 OFFCURVE",
"75 7 OFFCURVE",
"88 15 CURVE SMOOTH",
"106 26 OFFCURVE",
"114 41 OFFCURVE",
"118 48 CURVE",
"123 37 OFFCURVE",
"142 4 OFFCURVE",
"197 4 CURVE SMOOTH",
"257 4 OFFCURVE",
"283 41 OFFCURVE",
"289 53 CURVE",
"298 37 OFFCURVE",
"325 10 OFFCURVE",
"376 10 CURVE SMOOTH",
"418 10 OFFCURVE",
"452 32 OFFCURVE",
"476 77 CURVE SMOOTH",
"495 112 OFFCURVE",
"501 149 OFFCURVE",
"501 160 CURVE SMOOTH",
"501 270 OFFCURVE",
"443 312 OFFCURVE",
"443 312 CURVE"
);
}
);
width = 551;
}
);
unicode = FEB3;
},
{
glyphname = uni0635;
layers = (
{
anchors = (
{
name = bottom;
position = "{305, -316}";
},
{
name = top;
position = "{834, 390}";
}
);
layerId = "0E844BAD-773F-41FF-B6D6-C35F1E5E991C";
name = Bold;
paths = (
{
closed = 1;
nodes = (
"978 278 OFFCURVE",
"962 306 OFFCURVE",
"933 329 CURVE SMOOTH",
"909 348 OFFCURVE",
"878 360 OFFCURVE",
"854 360 CURVE SMOOTH",
"775 360 OFFCURVE",
"697 283 OFFCURVE",
"667 250 CURVE SMOOTH",
"622 200 OFFCURVE",
"590 154 OFFCURVE",
"580 138 CURVE",
"533 142 OFFCURVE",
"495 189 OFFCURVE",
"481 211 CURVE",
"454 181 OFFCURVE",
"428 145 OFFCURVE",
"408 107 CURVE",
"456 44 OFFCURVE",
"497 -15 OFFCURVE",
"497 -47 CURVE SMOOTH",
"497 -85 OFFCURVE",
"454 -111 OFFCURVE",
"394 -124 CURVE SMOOTH",
"367 -130 OFFCURVE",
"336 -133 OFFCURVE",
"304 -133 CURVE SMOOTH",
"244 -133 OFFCURVE",
"187 -118 OFFCURVE",
"158 -83 CURVE SMOOTH",
"131 -50 OFFCURVE",
"130 -1 OFFCURVE",
"142 52 CURVE",
"99 67 LINE",
"79 26 OFFCURVE",
"64 -27 OFFCURVE",
"61 -70 CURVE SMOOTH",
"59 -101 OFFCURVE",
"62 -136 OFFCURVE",
"75 -168 CURVE SMOOTH",
"92 -209 OFFCURVE",
"123 -240 OFFCURVE",
"164 -260 CURVE SMOOTH",
"200 -277 OFFCURVE",
"242 -286 OFFCURVE",
"295 -286 CURVE SMOOTH",
"402 -286 OFFCURVE",
"460 -256 OFFCURVE",
"500 -216 CURVE SMOOTH",
"558 -160 OFFCURVE",
"572 -83 OFFCURVE",
"572 -46 CURVE SMOOTH",
"572 -27 OFFCURVE",
"572 -8 OFFCURVE",
"569 12 CURVE",
"584 7 OFFCURVE",
"601 5 OFFCURVE",
"620 3 CURVE SMOOTH",
"637 2 OFFCURVE",
"656 2 OFFCURVE",
"677 2 CURVE SMOOTH",
"743 2 OFFCURVE",
"818 29 OFFCURVE",
"877 75 CURVE SMOOTH",
"907 98 OFFCURVE",
"932 125 OFFCURVE",
"949 153 CURVE SMOOTH",
"969 184 OFFCURVE",
"978 217 OFFCURVE",
"978 249 CURVE SMOOTH"
);
},
{
closed = 1;
nodes = (
"879 186 OFFCURVE",
"857 164 OFFCURVE",
"816 151 CURVE SMOOTH",
"796 144 OFFCURVE",
"772 139 OFFCURVE",
"742 139 CURVE SMOOTH",
"653 139 LINE",
"664 156 OFFCURVE",
"679 174 OFFCURVE",
"698 193 CURVE SMOOTH",
"726 222 OFFCURVE",
"759 249 OFFCURVE",
"807 249 CURVE SMOOTH",
"827 249 OFFCURVE",
"842 244 OFFCURVE",
"853 236 CURVE SMOOTH",
"872 223 OFFCURVE",
"881 201 OFFCURVE",
"884 191 CURVE"
);
}
);
width = 1028;
}
);
unicode = 0635;
},
{
glyphname = uniFEBA;
layers = (
{
anchors = (
{
name = bottom;
position = "{308, -316}";
},
{
name = top;
position = "{828, 392}";
}
);
layerId = "0E844BAD-773F-41FF-B6D6-C35F1E5E991C";
name = Bold;
paths = (
{
closed = 1;
nodes = (
"986 139 LINE SMOOTH",
"966 139 OFFCURVE",
"949 137 OFFCURVE",
"935 134 CURVE",
"942 145 OFFCURVE",
"940 141 OFFCURVE",
"949 155 CURVE SMOOTH",
"966 181 OFFCURVE",
"977 220 OFFCURVE",
"977 247 CURVE SMOOTH",
"977 278 OFFCURVE",
"962 308 OFFCURVE",
"933 331 CURVE SMOOTH",
"910 349 OFFCURVE",
"878 362 OFFCURVE",
"848 362 CURVE SMOOTH",
"774 362 OFFCURVE",
"692 280 OFFCURVE",
"666 252 CURVE SMOOTH",
"623 205 OFFCURVE",
"585 150 OFFCURVE",
"579 140 CURVE",
"532 144 OFFCURVE",
"494 191 OFFCURVE",
"480 213 CURVE",
"453 183 OFFCURVE",
"427 147 OFFCURVE",
"407 109 CURVE",
"455 46 OFFCURVE",
"496 -13 OFFCURVE",
"496 -45 CURVE SMOOTH",
"496 -81 OFFCURVE",
"457 -107 OFFCURVE",
"401 -120 CURVE SMOOTH",
"372 -127 OFFCURVE",
"338 -131 OFFCURVE",
"303 -131 CURVE SMOOTH",
"243 -131 OFFCURVE",
"186 -116 OFFCURVE",
"157 -81 CURVE SMOOTH",
"130 -48 OFFCURVE",
"129 1 OFFCURVE",
"141 54 CURVE",
"98 69 LINE",
"78 28 OFFCURVE",
"63 -25 OFFCURVE",
"60 -68 CURVE SMOOTH",
"58 -101 OFFCURVE",
"62 -137 OFFCURVE",
"74 -167 CURVE SMOOTH",
"89 -206 OFFCURVE",
"121 -237 OFFCURVE",
"164 -257 CURVE SMOOTH",
"192 -270 OFFCURVE",
"240 -286 OFFCURVE",
"298 -286 CURVE SMOOTH",
"404 -286 OFFCURVE",
"460 -249 OFFCURVE",
"498 -213 CURVE SMOOTH",
"558 -156 OFFCURVE",
"571 -87 OFFCURVE",
"571 -44 CURVE SMOOTH",
"571 -25 OFFCURVE",
"571 -6 OFFCURVE",
"568 14 CURVE",
"585 9 OFFCURVE",
"605 6 OFFCURVE",
"617 5 CURVE SMOOTH",
"636 4 OFFCURVE",
"675 5 OFFCURVE",
"687 5 CURVE SMOOTH",
"703 5 OFFCURVE",
"861 3 OFFCURVE",
"902 2 CURVE SMOOTH",
"930 1 OFFCURVE",
"951 0 OFFCURVE",
"981 0 CURVE SMOOTH",
"1111 0 LINE",
"1111 139 LINE"
);
},
{
closed = 1;
nodes = (
"873 181 OFFCURVE",
"857 166 OFFCURVE",
"818 152 CURVE SMOOTH",
"793 143 OFFCURVE",
"771 139 OFFCURVE",
"741 139 CURVE SMOOTH",
"652 139 LINE",
"663 155 OFFCURVE",
"678 174 OFFCURVE",
"697 193 CURVE SMOOTH",
"725 222 OFFCURVE",
"758 249 OFFCURVE",
"806 249 CURVE SMOOTH",
"826 249 OFFCURVE",
"841 244 OFFCURVE",
"852 236 CURVE SMOOTH",
"871 223 OFFCURVE",
"880 201 OFFCURVE",
"883 191 CURVE"
);
}
);
width = 1111;
}
);
unicode = FEBA;
},
{
glyphname = uniFEBC;
layers = (
{
anchors = (
{
name = bottom;
position = "{339, -30}";
},
{
name = top;
position = "{430, 391}";
}
);
layerId = "0E844BAD-773F-41FF-B6D6-C35F1E5E991C";
name = Bold;
paths = (
{
closed = 1;
nodes = (
"590 139 LINE SMOOTH",
"574 139 OFFCURVE",
"553 137 OFFCURVE",
"533 130 CURVE",
"539 138 OFFCURVE",
"545 146 OFFCURVE",
"550 154 CURVE SMOOTH",
"567 181 OFFCURVE",
"579 220 OFFCURVE",
"579 247 CURVE SMOOTH",
"579 279 OFFCURVE",
"561 310 OFFCURVE",
"535 331 CURVE SMOOTH",
"510 351 OFFCURVE",
"478 361 OFFCURVE",
"450 361 CURVE SMOOTH",
"421 361 OFFCURVE",
"391 351 OFFCURVE",
"355 328 CURVE SMOOTH",
"324 308 OFFCURVE",
"293 279 OFFCURVE",
"268 252 CURVE SMOOTH",
"222 202 OFFCURVE",
"191 155 OFFCURVE",
"180 139 CURVE",
"169 140 OFFCURVE",
"160 143 OFFCURVE",
"154 150 CURVE SMOOTH",
"138 168 OFFCURVE",
"142 207 OFFCURVE",
"149 244 CURVE",
"98 225 LINE",
"89 186 OFFCURVE",
"84 175 OFFCURVE",
"76 164 CURVE SMOOTH",
"64 147 OFFCURVE",
"49 139 OFFCURVE",
"28 139 CURVE SMOOTH",
"-11 139 LINE SMOOTH",
"-46 139 OFFCURVE",
"-80 121 OFFCURVE",
"-80 69 CURVE SMOOTH",
"-80 14 OFFCURVE",
"-43 0 OFFCURVE",
"-11 0 CURVE SMOOTH",
"27 0 LINE SMOOTH",
"72 0 OFFCURVE",
"105 16 OFFCURVE",
"122 45 CURVE",
"127 40 OFFCURVE",
"132 36 OFFCURVE",
"144 31 CURVE",
"132 -17 LINE",
"192 -17 LINE",
"199 8 LINE",
"222 4 OFFCURVE",
"244 4 OFFCURVE",
"270 4 CURVE SMOOTH",
"278 4 OFFCURVE",
"447 4 OFFCURVE",
"447 4 CURVE SMOOTH",
"565 0 OFFCURVE",
"558 0 OFFCURVE",
"578 0 CURVE SMOOTH",
"708 0 LINE",
"708 139 LINE"
);
},
{
closed = 1;
nodes = (
"474 180 OFFCURVE",
"462 170 OFFCURVE",
"438 159 CURVE SMOOTH",
"410 146 OFFCURVE",
"378 139 OFFCURVE",
"343 139 CURVE SMOOTH",
"254 139 LINE",
"256 141 OFFCURVE",
"279 173 OFFCURVE",
"298 193 CURVE SMOOTH",
"326 222 OFFCURVE",
"362 249 OFFCURVE",
"407 249 CURVE SMOOTH",
"461 249 OFFCURVE",
"479 206 OFFCURVE",
"484 191 CURVE"
);
}
);
width = 708;
}
);
unicode = FEBC;
},
{
glyphname = uniFEBB;
layers = (
{
anchors = (
{
name = bottom;
position = "{310, -29}";
},
{
name = top;
position = "{435, 392}";
}
);
layerId = "0E844BAD-773F-41FF-B6D6-C35F1E5E991C";
name = Bold;
paths = (
{
closed = 1;
nodes = (
"579 280 OFFCURVE",
"563 308 OFFCURVE",
"534 331 CURVE SMOOTH",
"509 350 OFFCURVE",
"479 362 OFFCURVE",
"455 362 CURVE SMOOTH",
"390 362 OFFCURVE",
"321 310 OFFCURVE",
"268 252 CURVE SMOOTH",
"223 202 OFFCURVE",
"191 155 OFFCURVE",
"181 139 CURVE",
"169 140 OFFCURVE",
"160 144 OFFCURVE",
"154 150 CURVE SMOOTH",
"139 168 OFFCURVE",
"141 201 OFFCURVE",
"149 244 CURVE",
"98 225 LINE",
"94 201 OFFCURVE",
"85 177 OFFCURVE",
"76 164 CURVE SMOOTH",
"64 148 OFFCURVE",
"50 139 OFFCURVE",
"28 139 CURVE SMOOTH",
"-11 139 LINE SMOOTH",
"-30 139 OFFCURVE",
"-80 124 OFFCURVE",
"-80 69 CURVE SMOOTH",
"-80 14 OFFCURVE",
"-30 0 OFFCURVE",
"-11 0 CURVE SMOOTH",
"27 0 LINE SMOOTH",
"72 0 OFFCURVE",
"105 16 OFFCURVE",
"122 45 CURVE",
"127 40 OFFCURVE",
"134 35 OFFCURVE",
"144 31 CURVE",
"133 -17 LINE",
"192 -17 LINE",
"199 8 LINE",
"220 3 OFFCURVE",
"246 4 OFFCURVE",
"278 4 CURVE SMOOTH",
"344 4 OFFCURVE",
"419 31 OFFCURVE",
"478 76 CURVE SMOOTH",
"508 99 OFFCURVE",
"533 126 OFFCURVE",
"550 154 CURVE SMOOTH",
"569 186 OFFCURVE",
"579 218 OFFCURVE",
"579 251 CURVE"
);
},
{
closed = 1;
nodes = (
"477 183 OFFCURVE",
"463 170 OFFCURVE",
"439 159 CURVE SMOOTH",
"410 146 OFFCURVE",
"378 139 OFFCURVE",
"343 139 CURVE SMOOTH",
"254 139 LINE",
"265 154 OFFCURVE",
"280 174 OFFCURVE",
"299 193 CURVE SMOOTH",
"327 222 OFFCURVE",
"360 249 OFFCURVE",
"408 249 CURVE SMOOTH",
"433 249 OFFCURVE",
"450 240 OFFCURVE",
"462 229 CURVE SMOOTH",
"475 216 OFFCURVE",
"482 199 OFFCURVE",
"485 191 CURVE"
);
}
);
width = 629;
}
);
unicode = FEBB;
},
{
glyphname = uni0637;
layers = (
{
anchors = (
{
name = bottom;
position = "{292, -29}";
},
{
name = top;
position = "{507, 379}";
}
);
layerId = "0E844BAD-773F-41FF-B6D6-C35F1E5E991C";
name = Bold;
paths = (
{
closed = 1;
nodes = (
"631 267 OFFCURVE",
"615 295 OFFCURVE",
"586 318 CURVE SMOOTH",
"561 337 OFFCURVE",
"531 349 OFFCURVE",
"507 349 CURVE SMOOTH",
"475 349 OFFCURVE",
"447 341 OFFCURVE",
"418 324 CURVE SMOOTH",
"395 310 OFFCURVE",
"365 286 OFFCURVE",
"338 257 CURVE",
"342 278 OFFCURVE",
"343 295 OFFCURVE",
"341 324 CURVE SMOOTH",
"339 348 OFFCURVE",
"336 368 OFFCURVE",
"332 399 CURVE",
"319 457 OFFCURVE",
"369 481 OFFCURVE",
"369 481 CURVE",
"322 525 OFFCURVE",
"292 584 OFFCURVE",
"282 611 CURVE",
"206 495 LINE",
"206 495 OFFCURVE",
"222 460 OFFCURVE",
"236 405 CURVE SMOOTH",
"258 317 OFFCURVE",
"265 240 OFFCURVE",
"268 179 CURVE",
"255 165 OFFCURVE",
"241 149 OFFCURVE",
"232 139 CURVE",
"167 142 OFFCURVE",
"94 148 OFFCURVE",
"60 154 CURVE",
"84 94 OFFCURVE",
"128 38 OFFCURVE",
"182 -3 CURVE",
"199 -1 OFFCURVE",
"227 0 OFFCURVE",
"239 0 CURVE SMOOTH",
"247 0 OFFCURVE",
"288 1 OFFCURVE",
"342 2 CURVE SMOOTH",
"409 3 OFFCURVE",
"480 32 OFFCURVE",
"535 73 CURVE SMOOTH",
"597 119 OFFCURVE",
"631 178 OFFCURVE",
"631 238 CURVE SMOOTH"
);
},
{
closed = 1;
nodes = (
"528 183 OFFCURVE",
"514 170 OFFCURVE",
"490 159 CURVE SMOOTH",
"462 146 OFFCURVE",
"430 139 OFFCURVE",
"395 139 CURVE SMOOTH",
"323 139 LINE",
"332 149 OFFCURVE",
"344 162 OFFCURVE",
"358 175 CURVE SMOOTH",
"396 211 OFFCURVE",
"431 229 OFFCURVE",
"460 229 CURVE SMOOTH",
"510 229 OFFCURVE",
"529 202 OFFCURVE",
"536 190 CURVE"
);
}
);
width = 681;
}
);
unicode = 0637;
},
{
glyphname = uniFEC2;
layers = (
{
anchors = (
{
name = bottom;
position = "{362, -26}";
},
{
name = top;
position = "{507, 379}";
}
);
layerId = "0E844BAD-773F-41FF-B6D6-C35F1E5E991C";
name = Bold;
paths = (
{
closed = 1;
nodes = (
"649 139 LINE SMOOTH",
"634 139 OFFCURVE",
"613 137 OFFCURVE",
"594 131 CURVE",
"618 164 OFFCURVE",
"631 201 OFFCURVE",
"631 238 CURVE SMOOTH",
"631 267 OFFCURVE",
"615 295 OFFCURVE",
"586 318 CURVE SMOOTH",
"561 337 OFFCURVE",
"531 349 OFFCURVE",
"507 349 CURVE SMOOTH",
"475 349 OFFCURVE",
"447 341 OFFCURVE",
"418 324 CURVE SMOOTH",
"395 310 OFFCURVE",
"365 286 OFFCURVE",
"338 257 CURVE",
"342 278 OFFCURVE",
"343 295 OFFCURVE",
"341 324 CURVE SMOOTH",
"339 348 OFFCURVE",
"336 368 OFFCURVE",
"332 399 CURVE",
"319 457 OFFCURVE",
"369 481 OFFCURVE",
"369 481 CURVE",
"322 525 OFFCURVE",
"292 584 OFFCURVE",
"282 611 CURVE",
"206 495 LINE",
"206 495 OFFCURVE",
"222 460 OFFCURVE",
"236 405 CURVE SMOOTH",
"258 317 OFFCURVE",
"265 240 OFFCURVE",
"268 179 CURVE",
"255 165 OFFCURVE",
"241 149 OFFCURVE",
"232 139 CURVE",
"167 142 OFFCURVE",
"94 148 OFFCURVE",
"60 154 CURVE",
"84 94 OFFCURVE",
"128 38 OFFCURVE",
"182 -3 CURVE",
"199 -1 OFFCURVE",
"227 0 OFFCURVE",
"239 0 CURVE SMOOTH",
"247 0 OFFCURVE",
"306 1 OFFCURVE",
"342 2 CURVE SMOOTH",
"406 5 OFFCURVE",
"469 4 OFFCURVE",
"522 3 CURVE SMOOTH",
"573 2 OFFCURVE",
"615 0 OFFCURVE",
"637 0 CURVE SMOOTH",
"757 0 LINE SMOOTH",
"757 139 LINE SMOOTH"
);
},
{
closed = 1;
nodes = (
"528 183 OFFCURVE",
"514 170 OFFCURVE",
"490 159 CURVE SMOOTH",
"462 146 OFFCURVE",
"430 139 OFFCURVE",
"395 139 CURVE SMOOTH",
"323 139 LINE",
"332 149 OFFCURVE",
"344 162 OFFCURVE",
"358 175 CURVE SMOOTH",
"396 211 OFFCURVE",
"431 229 OFFCURVE",
"460 229 CURVE SMOOTH",
"510 229 OFFCURVE",
"529 202 OFFCURVE",
"536 190 CURVE"
);
}
);
width = 757;
}
);
unicode = FEC2;
},
{
glyphname = uniFEC4;
layers = (
{
anchors = (
{
name = bottom;
position = "{202, -29}";
},
{
name = top;
position = "{303, 379}";
}
);
layerId = "0E844BAD-773F-41FF-B6D6-C35F1E5E991C";
name = Bold;
paths = (
{
closed = 1;
nodes = (
"440 139 OFFCURVE",
"419 137 OFFCURVE",
"400 131 CURVE",
"424 164 OFFCURVE",
"437 201 OFFCURVE",
"437 238 CURVE SMOOTH",
"437 267 OFFCURVE",
"421 295 OFFCURVE",
"392 318 CURVE SMOOTH",
"367 337 OFFCURVE",
"337 349 OFFCURVE",
"313 349 CURVE SMOOTH",
"281 349 OFFCURVE",
"253 341 OFFCURVE",
"224 324 CURVE SMOOTH",
"201 310 OFFCURVE",
"171 286 OFFCURVE",
"144 257 CURVE",
"148 278 OFFCURVE",
"149 295 OFFCURVE",
"147 324 CURVE SMOOTH",
"145 348 OFFCURVE",
"142 368 OFFCURVE",
"138 399 CURVE",
"125 457 OFFCURVE",
"175 481 OFFCURVE",
"175 481 CURVE",
"128 525 OFFCURVE",
"98 584 OFFCURVE",
"88 611 CURVE",
"12 495 LINE",
"12 495 OFFCURVE",
"28 460 OFFCURVE",
"42 405 CURVE SMOOTH",
"64 317 OFFCURVE",
"71 240 OFFCURVE",
"74 179 CURVE",
"61 165 OFFCURVE",
"47 149 OFFCURVE",
"38 139 CURVE",
"-11 139 LINE SMOOTH",
"-66 139 OFFCURVE",
"-80 88 OFFCURVE",
"-80 69 CURVE SMOOTH",
"-80 51 OFFCURVE",
"-66 0 OFFCURVE",
"-11 0 CURVE SMOOTH",
"45 0 LINE SMOOTH",
"53 0 OFFCURVE",
"112 1 OFFCURVE",
"148 2 CURVE SMOOTH",
"212 5 OFFCURVE",
"275 4 OFFCURVE",
"328 3 CURVE SMOOTH",
"379 2 OFFCURVE",
"421 0 OFFCURVE",
"443 0 CURVE SMOOTH",
"563 0 LINE",
"563 139 LINE",
"455 139 LINE SMOOTH"
);
},
{
closed = 1;
nodes = (
"268 146 OFFCURVE",
"236 139 OFFCURVE",
"201 139 CURVE SMOOTH",
"129 139 LINE",
"138 149 OFFCURVE",
"150 162 OFFCURVE",
"164 175 CURVE SMOOTH",
"202 211 OFFCURVE",
"237 229 OFFCURVE",
"266 229 CURVE SMOOTH",
"316 229 OFFCURVE",
"335 202 OFFCURVE",
"342 190 CURVE",
"334 183 OFFCURVE",
"320 170 OFFCURVE",
"296 159 CURVE SMOOTH"
);
}
);
width = 563;
}
);
unicode = FEC4;
},
{
glyphname = uniFEC3;
layers = (
{
anchors = (
{
name = bottom;
position = "{139, -28}";
},
{
name = top;
position = "{313, 379}";
}
);
layerId = "0E844BAD-773F-41FF-B6D6-C35F1E5E991C";
name = Bold;
paths = (
{
closed = 1;
nodes = (
"437 267 OFFCURVE",
"421 295 OFFCURVE",
"392 318 CURVE SMOOTH",
"367 337 OFFCURVE",
"337 349 OFFCURVE",
"313 349 CURVE SMOOTH",
"281 349 OFFCURVE",
"253 341 OFFCURVE",
"224 324 CURVE SMOOTH",
"201 310 OFFCURVE",
"171 286 OFFCURVE",
"144 257 CURVE",
"148 278 OFFCURVE",
"149 295 OFFCURVE",
"147 324 CURVE SMOOTH",
"145 348 OFFCURVE",
"142 368 OFFCURVE",
"138 399 CURVE",
"125 457 OFFCURVE",
"175 481 OFFCURVE",
"175 481 CURVE",
"128 525 OFFCURVE",
"98 584 OFFCURVE",
"88 611 CURVE",
"12 495 LINE",
"12 495 OFFCURVE",
"28 460 OFFCURVE",
"42 405 CURVE SMOOTH",
"64 317 OFFCURVE",
"71 240 OFFCURVE",
"74 179 CURVE",
"61 165 OFFCURVE",
"47 149 OFFCURVE",
"38 139 CURVE",
"-11 139 LINE SMOOTH",
"-66 139 OFFCURVE",
"-80 88 OFFCURVE",
"-80 69 CURVE SMOOTH",
"-80 51 OFFCURVE",
"-66 0 OFFCURVE",
"-11 0 CURVE",
"45 0 LINE",
"53 0 OFFCURVE",
"111 2 OFFCURVE",
"148 2 CURVE SMOOTH",
"204 2 OFFCURVE",
"286 32 OFFCURVE",
"341 73 CURVE SMOOTH",
"403 119 OFFCURVE",
"437 178 OFFCURVE",
"437 238 CURVE SMOOTH"
);
},
{
closed = 1;
nodes = (
"334 183 OFFCURVE",
"320 170 OFFCURVE",
"296 159 CURVE SMOOTH",
"268 146 OFFCURVE",
"236 139 OFFCURVE",
"201 139 CURVE SMOOTH",
"129 139 LINE",
"138 149 OFFCURVE",
"150 162 OFFCURVE",
"164 175 CURVE SMOOTH",
"202 211 OFFCURVE",
"237 229 OFFCURVE",
"266 229 CURVE SMOOTH",
"316 229 OFFCURVE",
"335 202 OFFCURVE",
"342 190 CURVE"
);
}
);
width = 487;
}
);
unicode = FEC3;
},
{
glyphname = uni0639;
layers = (
{
anchors = (
{
name = bottom;
position = "{301, -402}";
},
{
name = top;
position = "{259, 433}";
}
);
layerId = "0E844BAD-773F-41FF-B6D6-C35F1E5E991C";
name = Bold;
paths = (
{
closed = 1;
nodes = (
"379 248 OFFCURVE",
"298 221 OFFCURVE",
"263 206 CURVE",
"207 219 OFFCURVE",
"191 242 OFFCURVE",
"180 260 CURVE",
"195 273 OFFCURVE",
"219 293 OFFCURVE",
"255 303 CURVE SMOOTH",
"297 314 OFFCURVE",
"321 310 OFFCURVE",
"361 299 CURVE",
"396 344 LINE",
"361 376 OFFCURVE",
"311 403 OFFCURVE",
"259 403 CURVE SMOOTH",
"205 403 OFFCURVE",
"160 366 OFFCURVE",
"135 331 CURVE SMOOTH",
"109 293 OFFCURVE",
"98 251 OFFCURVE",
"106 216 CURVE SMOOTH",
"112 188 OFFCURVE",
"135 158 OFFCURVE",
"165 136 CURVE",
"134 108 OFFCURVE",
"74 43 OFFCURVE",
"62 -89 CURVE SMOOTH",
"54 -180 OFFCURVE",
"77 -246 OFFCURVE",
"121 -295 CURVE SMOOTH",
"166 -345 OFFCURVE",
"229 -372 OFFCURVE",
"301 -372 CURVE SMOOTH",
"352 -372 OFFCURVE",
"379 -358 OFFCURVE",
"405 -344 CURVE SMOOTH",
"430 -331 OFFCURVE",
"463 -316 OFFCURVE",
"505 -318 CURVE",
"522 -265 LINE",
"480 -257 OFFCURVE",
"441 -255 OFFCURVE",
"415 -254 CURVE",
"408 -254 OFFCURVE",
"358 -251 OFFCURVE",
"318 -244 CURVE SMOOTH",
"261 -234 OFFCURVE",
"214 -215 OFFCURVE",
"184 -179 CURVE SMOOTH",
"160 -150 OFFCURVE",
"146 -95 OFFCURVE",
"151 -54 CURVE SMOOTH",
"158 4 OFFCURVE",
"187 46 OFFCURVE",
"230 78 CURVE SMOOTH",
"279 114 OFFCURVE",
"346 138 OFFCURVE",
"422 159 CURVE",
"436 196 OFFCURVE",
"444 229 OFFCURVE",
"452 270 CURVE"
);
}
);
width = 522;
}
);
unicode = 0639;
},
{
glyphname = uniFECA;
layers = (
{
anchors = (
{
name = bottom;
position = "{272, -467}";
},
{
name = top;
position = "{299, 334}";
}
);
layerId = "0E844BAD-773F-41FF-B6D6-C35F1E5E991C";
name = Bold;
paths = (
{
closed = 1;
nodes = (
"402 139 LINE SMOOTH",
"396 139 OFFCURVE",
"391 140 OFFCURVE",
"385 141 CURVE",
"394 149 OFFCURVE",
"433 188 OFFCURVE",
"433 222 CURVE SMOOTH",
"433 262 OFFCURVE",
"398 304 OFFCURVE",
"299 304 CURVE SMOOTH",
"261 304 OFFCURVE",
"228 293 OFFCURVE",
"188 271 CURVE",
"176 244 OFFCURVE",
"170 210 OFFCURVE",
"166 177 CURVE",
"195 169 OFFCURVE",
"217 155 OFFCURVE",
"236 137 CURVE",
"210 125 OFFCURVE",
"185 109 OFFCURVE",
"162 90 CURVE SMOOTH",
"128 62 OFFCURVE",
"99 27 OFFCURVE",
"77 -14 CURVE SMOOTH",
"52 -59 OFFCURVE",
"37 -110 OFFCURVE",
"33 -166 CURVE SMOOTH",
"28 -237 OFFCURVE",
"48 -311 OFFCURVE",
"92 -360 CURVE SMOOTH",
"137 -410 OFFCURVE",
"200 -437 OFFCURVE",
"272 -437 CURVE SMOOTH",
"323 -437 OFFCURVE",
"350 -423 OFFCURVE",
"376 -409 CURVE SMOOTH",
"401 -396 OFFCURVE",
"434 -381 OFFCURVE",
"476 -383 CURVE",
"493 -330 LINE",
"451 -322 OFFCURVE",
"412 -320 OFFCURVE",
"386 -319 CURVE",
"379 -319 OFFCURVE",
"329 -316 OFFCURVE",
"289 -309 CURVE SMOOTH",
"229 -298 OFFCURVE",
"188 -275 OFFCURVE",
"162 -247 CURVE SMOOTH",
"126 -208 OFFCURVE",
"117 -159 OFFCURVE",
"122 -115 CURVE SMOOTH",
"126 -77 OFFCURVE",
"141 -41 OFFCURVE",
"164 -11 CURVE SMOOTH",
"194 29 OFFCURVE",
"237 61 OFFCURVE",
"285 77 CURVE",
"294 61 OFFCURVE",
"302 48 OFFCURVE",
"311 38 CURVE SMOOTH",
"336 10 OFFCURVE",
"366 0 OFFCURVE",
"414 0 CURVE SMOOTH",
"562 0 LINE",
"562 139 LINE"
);
}
);
width = 562;
}
);
unicode = FECA;
},
{
glyphname = uniFECC;
layers = (
{
anchors = (
{
name = bottom;
position = "{183, -29}";
},
{
name = top;
position = "{190, 334}";
}
);
layerId = "0E844BAD-773F-41FF-B6D6-C35F1E5E991C";
name = Bold;
paths = (
{
closed = 1;
nodes = (
"322 139 LINE",
"308 139 OFFCURVE",
"283 136 OFFCURVE",
"265 128 CURVE",
"283 144 OFFCURVE",
"324 188 OFFCURVE",
"324 222 CURVE SMOOTH",
"324 262 OFFCURVE",
"289 304 OFFCURVE",
"190 304 CURVE SMOOTH",
"151 304 OFFCURVE",
"112 292 OFFCURVE",
"78 271 CURVE",
"68 243 OFFCURVE",
"60 214 OFFCURVE",
"57 179 CURVE",
"74 179 OFFCURVE",
"105 173 OFFCURVE",
"117 147 CURVE",
"108 143 OFFCURVE",
"94 139 OFFCURVE",
"77 139 CURVE SMOOTH",
"-11 139 LINE SMOOTH",
"-29 139 OFFCURVE",
"-80 124 OFFCURVE",
"-80 69 CURVE SMOOTH",
"-80 51 OFFCURVE",
"-63 0 OFFCURVE",
"-11 0 CURVE SMOOTH",
"39 0 LINE SMOOTH",
"74 0 OFFCURVE",
"102 7 OFFCURVE",
"127 19 CURVE SMOOTH",
"148 29 OFFCURVE",
"168 43 OFFCURVE",
"188 61 CURVE",
"195 52 OFFCURVE",
"206 40 OFFCURVE",
"220 30 CURVE SMOOTH",
"246 10 OFFCURVE",
"278 0 OFFCURVE",
"312 0 CURVE SMOOTH",
"433 0 LINE",
"433 139 LINE"
);
}
);
width = 433;
}
);
unicode = FECC;
},
{
glyphname = uniFECB;
layers = (
{
anchors = (
{
name = bottom;
position = "{119, -29}";
},
{
name = top;
position = "{187, 393}";
}
);
layerId = "0E844BAD-773F-41FF-B6D6-C35F1E5E991C";
name = Bold;
paths = (
{
closed = 1;
nodes = (
"366 184 OFFCURVE",
"358 182 OFFCURVE",
"351 179 CURVE SMOOTH",
"350 179 OFFCURVE",
"239 138 OFFCURVE",
"181 137 CURVE",
"132 158 OFFCURVE",
"112 207 OFFCURVE",
"105 232 CURVE",
"119 240 OFFCURVE",
"155 259 OFFCURVE",
"200 259 CURVE SMOOTH",
"236 259 OFFCURVE",
"258 254 OFFCURVE",
"291 237 CURVE",
"332 273 LINE",
"290 330 OFFCURVE",
"251 363 OFFCURVE",
"187 363 CURVE SMOOTH",
"153 363 OFFCURVE",
"111 343 OFFCURVE",
"76 310 CURVE SMOOTH",
"38 275 OFFCURVE",
"17 237 OFFCURVE",
"17 200 CURVE SMOOTH",
"17 178 OFFCURVE",
"28 157 OFFCURVE",
"46 139 CURVE",
"-10 139 LINE SMOOTH",
"-50 139 OFFCURVE",
"-80 109 OFFCURVE",
"-80 70 CURVE SMOOTH",
"-80 31 OFFCURVE",
"-50 0 OFFCURVE",
"-10 0 CURVE SMOOTH",
"83 0 LINE SMOOTH",
"174 0 OFFCURVE",
"244 27 OFFCURVE",
"288 46 CURVE SMOOTH",
"304 53 OFFCURVE",
"326 60 OFFCURVE",
"326 60 CURVE",
"350 104 OFFCURVE",
"363 138 OFFCURVE",
"373 187 CURVE"
);
}
);
width = 423;
}
);
unicode = FECB;
},
{
glyphname = uni06A1;
layers = (
{
anchors = (
{
name = bottom;
position = "{405, -49}";
},
{
name = top;
position = "{668, 491}";
}
);
layerId = "0E844BAD-773F-41FF-B6D6-C35F1E5E991C";
name = Bold;
paths = (
{
closed = 1;
nodes = (
"629 461 OFFCURVE",
"600 437 OFFCURVE",
"580 404 CURVE SMOOTH",
"558 367 OFFCURVE",
"547 321 OFFCURVE",
"547 287 CURVE SMOOTH",
"547 252 OFFCURVE",
"559 226 OFFCURVE",
"579 209 CURVE SMOOTH",
"599 192 OFFCURVE",
"629 183 OFFCURVE",
"662 183 CURVE SMOOTH",
"684 183 OFFCURVE",
"706 187 OFFCURVE",
"718 191 CURVE",
"710 172 OFFCURVE",
"695 157 OFFCURVE",
"672 147 CURVE SMOOTH",
"653 139 OFFCURVE",
"630 135 OFFCURVE",
"599 135 CURVE SMOOTH",
"582 135 OFFCURVE",
"426 134 OFFCURVE",
"419 134 CURVE",
"393 134 OFFCURVE",
"291 134 OFFCURVE",
"244 140 CURVE SMOOTH",
"214 144 OFFCURVE",
"167 156 OFFCURVE",
"141 183 CURVE SMOOTH",
"126 199 OFFCURVE",
"113 223 OFFCURVE",
"111 258 CURVE",
"66 269 LINE",
"56 198 OFFCURVE",
"58 144 OFFCURVE",
"79 100 CURVE SMOOTH",
"104 47 OFFCURVE",
"155 13 OFFCURVE",
"240 -1 CURVE",
"277 -7 OFFCURVE",
"334 -10 OFFCURVE",
"420 -10 CURVE SMOOTH",
"584 -10 OFFCURVE",
"664 1 OFFCURVE",
"712 39 CURVE SMOOTH",
"742 63 OFFCURVE",
"765 99 OFFCURVE",
"779 148 CURVE SMOOTH",
"791 191 OFFCURVE",
"796 241 OFFCURVE",
"792 287 CURVE SMOOTH",
"784 375 OFFCURVE",
"741 461 OFFCURVE",
"668 461 CURVE SMOOTH"
);
},
{
closed = 1;
nodes = (
"694 288 OFFCURVE",
"681 283 OFFCURVE",
"656 283 CURVE SMOOTH",
"610 283 OFFCURVE",
"602 301 OFFCURVE",
"602 317 CURVE SMOOTH",
"602 341 OFFCURVE",
"620 362 OFFCURVE",
"648 362 CURVE SMOOTH",
"693 362 OFFCURVE",
"704 305 OFFCURVE",
"706 298 CURVE"
);
}
);
width = 843;
}
);
unicode = 06A1;
},
{
glyphname = uni06A1.fina;
layers = (
{
anchors = (
{
name = bottom;
position = "{423, -49}";
},
{
name = top;
position = "{739, 393}";
}
);
layerId = "0E844BAD-773F-41FF-B6D6-C35F1E5E991C";
name = Bold;
paths = (
{
closed = 1;
nodes = (
"861 139 LINE SMOOTH",
"851 139 OFFCURVE",
"840 138 OFFCURVE",
"831 137 CURVE",
"840 167 OFFCURVE",
"844 198 OFFCURVE",
"844 220 CURVE SMOOTH",
"844 259 OFFCURVE",
"832 296 OFFCURVE",
"816 319 CURVE SMOOTH",
"799 344 OFFCURVE",
"771 363 OFFCURVE",
"739 363 CURVE SMOOTH",
"705 363 OFFCURVE",
"669 341 OFFCURVE",
"640 302 CURVE SMOOTH",
"613 266 OFFCURVE",
"597 221 OFFCURVE",
"597 182 CURVE SMOOTH",
"597 168 OFFCURVE",
"599 157 OFFCURVE",
"603 145 CURVE",
"548 138 OFFCURVE",
"498 135 OFFCURVE",
"423 135 CURVE SMOOTH",
"361 135 OFFCURVE",
"307 137 OFFCURVE",
"263 144 CURVE SMOOTH",
"208 152 OFFCURVE",
"180 163 OFFCURVE",
"158 179 CURVE SMOOTH",
"107 216 OFFCURVE",
"112 264 OFFCURVE",
"112 264 CURVE",
"65 275 LINE",
"65 275 OFFCURVE",
"58 229 OFFCURVE",
"60 185 CURVE SMOOTH",
"64 75 OFFCURVE",
"117 26 OFFCURVE",
"239 5 CURVE SMOOTH",
"288 -3 OFFCURVE",
"339 -7 OFFCURVE",
"409 -7 CURVE SMOOTH",
"494 -7 OFFCURVE",
"570 -1 OFFCURVE",
"629 10 CURVE SMOOTH",
"677 19 OFFCURVE",
"715 33 OFFCURVE",
"750 52 CURVE",
"765 19 OFFCURVE",
"801 0 OFFCURVE",
"847 0 CURVE SMOOTH",
"954 0 LINE",
"954 139 LINE"
);
},
{
closed = 1;
nodes = (
"786 183 OFFCURVE",
"764 145 OFFCURVE",
"725 145 CURVE SMOOTH",
"690 145 OFFCURVE",
"665 176 OFFCURVE",
"656 189 CURVE",
"659 195 OFFCURVE",
"687 246 OFFCURVE",
"722 246 CURVE SMOOTH",
"757 246 OFFCURVE",
"785 194 OFFCURVE",
"786 191 CURVE"
);
}
);
width = 954;
}
);
},
{
glyphname = uni06A1.medi;
layers = (
{
anchors = (
{
name = bottom;
position = "{120, -29}";
},
{
name = top;
position = "{193, 379}";
}
);
layerId = "0E844BAD-773F-41FF-B6D6-C35F1E5E991C";
name = Bold;
paths = (
{
closed = 1;
nodes = (
"160 349 OFFCURVE",
"125 327 OFFCURVE",
"99 292 CURVE SMOOTH",
"74 258 OFFCURVE",
"59 215 OFFCURVE",
"57 183 CURVE SMOOTH",
"56 167 OFFCURVE",
"58 152 OFFCURVE",
"63 139 CURVE",
"-10 139 LINE SMOOTH",
"-48 139 OFFCURVE",
"-80 108 OFFCURVE",
"-80 68 CURVE SMOOTH",
"-80 32 OFFCURVE",
"-55 0 OFFCURVE",
"-10 0 CURVE SMOOTH",
"108 0 LINE SMOOTH",
"191 0 OFFCURVE",
"223 32 OFFCURVE",
"238 46 CURVE",
"243 31 OFFCURVE",
"274 0 OFFCURVE",
"331 0 CURVE SMOOTH",
"444 0 LINE",
"444 139 LINE",
"283 139 LINE",
"291 161 OFFCURVE",
"294 184 OFFCURVE",
"293 211 CURVE SMOOTH",
"290 293 OFFCURVE",
"245 349 OFFCURVE",
"193 349 CURVE SMOOTH"
);
},
{
closed = 1;
nodes = (
"231 171 OFFCURVE",
"201 148 OFFCURVE",
"174 148 CURVE SMOOTH",
"142 148 OFFCURVE",
"120 180 OFFCURVE",
"117 190 CURVE",
"124 202 OFFCURVE",
"146 233 OFFCURVE",
"173 233 CURVE SMOOTH",
"199 233 OFFCURVE",
"230 200 OFFCURVE",
"234 192 CURVE"
);
}
);
width = 444;
}
);
},
{
glyphname = uni06A1.init;
layers = (
{
anchors = (
{
name = bottom;
position = "{98, -29}";
},
{
name = top;
position = "{157, 501}";
}
);
layerId = "0E844BAD-773F-41FF-B6D6-C35F1E5E991C";
name = Bold;
paths = (
{
closed = 1;
nodes = (
"118 471 OFFCURVE",
"89 447 OFFCURVE",
"69 414 CURVE SMOOTH",
"47 377 OFFCURVE",
"36 332 OFFCURVE",
"36 297 CURVE SMOOTH",
"36 257 OFFCURVE",
"50 235 OFFCURVE",
"68 220 CURVE",
"87 202 OFFCURVE",
"116 193 OFFCURVE",
"150 193 CURVE SMOOTH",
"173 193 OFFCURVE",
"195 197 OFFCURVE",
"207 201 CURVE",
"199 182 OFFCURVE",
"185 162 OFFCURVE",
"161 151 CURVE SMOOTH",
"142 143 OFFCURVE",
"118 139 OFFCURVE",
"88 139 CURVE SMOOTH",
"66 139 OFFCURVE",
"-11 139 OFFCURVE",
"-11 139 CURVE SMOOTH",
"-45 139 OFFCURVE",
"-80 114 OFFCURVE",
"-80 70 CURVE SMOOTH",
"-80 30 OFFCURVE",
"-50 0 OFFCURVE",
"-10 0 CURVE SMOOTH",
"47 0 LINE SMOOTH",
"114 0 OFFCURVE",
"164 12 OFFCURVE",
"200 42 CURVE SMOOTH",
"227 64 OFFCURVE",
"252 99 OFFCURVE",
"268 158 CURVE SMOOTH",
"280 201 OFFCURVE",
"285 252 OFFCURVE",
"281 297 CURVE SMOOTH",
"273 385 OFFCURVE",
"230 471 OFFCURVE",
"157 471 CURVE SMOOTH"
);
},
{
closed = 1;
nodes = (
"184 296 OFFCURVE",
"171 291 OFFCURVE",
"146 291 CURVE SMOOTH",
"100 291 OFFCURVE",
"92 309 OFFCURVE",
"92 325 CURVE SMOOTH",
"92 349 OFFCURVE",
"110 370 OFFCURVE",
"138 370 CURVE SMOOTH",
"183 370 OFFCURVE",
"194 313 OFFCURVE",
"196 306 CURVE"
);
}
);
width = 332;
}
);
},
{
glyphname = uni066F;
layers = (
{
anchors = (
{
name = bottom;
position = "{285, -209}";
},
{
name = top;
position = "{404, 429}";
}
);
layerId = "0E844BAD-773F-41FF-B6D6-C35F1E5E991C";
name = Bold;
paths = (
{
closed = 1;
nodes = (
"376 402 OFFCURVE",
"351 383 OFFCURVE",
"332 357 CURVE SMOOTH",
"304 319 OFFCURVE",
"290 268 OFFCURVE",
"290 227 CURVE SMOOTH",
"290 192 OFFCURVE",
"300 160 OFFCURVE",
"321 141 CURVE SMOOTH",
"341 123 OFFCURVE",
"370 114 OFFCURVE",
"404 114 CURVE SMOOTH",
"432 114 OFFCURVE",
"453 120 OFFCURVE",
"468 125 CURVE",
"472 96 LINE",
"463 70 OFFCURVE",
"448 29 OFFCURVE",
"380 1 CURVE SMOOTH",
"356 -9 OFFCURVE",
"323 -18 OFFCURVE",
"286 -18 CURVE SMOOTH",
"232 -18 OFFCURVE",
"186 1 OFFCURVE",
"159 33 CURVE SMOOTH",
"110 91 OFFCURVE",
"141 168 OFFCURVE",
"141 168 CURVE",
"98 183 LINE",
"98 183 OFFCURVE",
"67 127 OFFCURVE",
"61 46 CURVE SMOOTH",
"58 10 OFFCURVE",
"61 -22 OFFCURVE",
"74 -53 CURVE SMOOTH",
"88 -87 OFFCURVE",
"113 -118 OFFCURVE",
"154 -140 CURVE SMOOTH",
"193 -161 OFFCURVE",
"240 -170 OFFCURVE",
"285 -170 CURVE SMOOTH",
"324 -170 OFFCURVE",
"358 -163 OFFCURVE",
"385 -153 CURVE SMOOTH",
"425 -138 OFFCURVE",
"459 -112 OFFCURVE",
"485 -78 CURVE SMOOTH",
"504 -53 OFFCURVE",
"518 -26 OFFCURVE",
"529 8 CURVE SMOOTH",
"541 45 OFFCURVE",
"548 88 OFFCURVE",
"548 128 CURVE SMOOTH",
"548 174 OFFCURVE",
"539 239 OFFCURVE",
"515 299 CURVE SMOOTH",
"501 334 OFFCURVE",
"486 359 OFFCURVE",
"466 377 CURVE SMOOTH",
"448 394 OFFCURVE",
"428 402 OFFCURVE",
"408 402 CURVE SMOOTH"
);
},
{
closed = 1;
nodes = (
"436 305 OFFCURVE",
"447 248 OFFCURVE",
"449 241 CURVE",
"437 231 OFFCURVE",
"424 226 OFFCURVE",
"398 226 CURVE SMOOTH",
"350 226 OFFCURVE",
"345 244 OFFCURVE",
"345 259 CURVE SMOOTH",
"345 289 OFFCURVE",
"367 305 OFFCURVE",
"391 305 CURVE SMOOTH"
);
}
);
width = 598;
}
);
unicode = 066F;
},
{
glyphname = uni066F.fina;
layers = (
{
anchors = (
{
name = bottom;
position = "{289, -318}";
},
{
name = top;
position = "{414, 342}";
}
);
layerId = "0E844BAD-773F-41FF-B6D6-C35F1E5E991C";
name = Bold;
paths = (
{
closed = 1;
nodes = (
"394 309 OFFCURVE",
"362 289 OFFCURVE",
"338 244 CURVE SMOOTH",
"322 214 OFFCURVE",
"310 178 OFFCURVE",
"310 136 CURVE SMOOTH",
"310 93 OFFCURVE",
"322 50 OFFCURVE",
"348 27 CURVE SMOOTH",
"360 16 OFFCURVE",
"386 0 OFFCURVE",
"440 0 CURVE SMOOTH",
"473 0 LINE",
"471 -30 OFFCURVE",
"456 -60 OFFCURVE",
"432 -82 CURVE SMOOTH",
"401 -111 OFFCURVE",
"355 -125 OFFCURVE",
"294 -125 CURVE SMOOTH",
"226 -125 OFFCURVE",
"183 -113 OFFCURVE",
"158 -82 CURVE SMOOTH",
"114 -27 OFFCURVE",
"142 60 OFFCURVE",
"142 60 CURVE",
"99 75 LINE",
"99 75 OFFCURVE",
"67 8 OFFCURVE",
"61 -67 CURVE SMOOTH",
"58 -104 OFFCURVE",
"62 -132 OFFCURVE",
"74 -161 CURVE SMOOTH",
"90 -199 OFFCURVE",
"117 -229 OFFCURVE",
"154 -249 CURVE SMOOTH",
"191 -269 OFFCURVE",
"238 -279 OFFCURVE",
"289 -279 CURVE SMOOTH",
"334 -279 OFFCURVE",
"371 -271 OFFCURVE",
"405 -255 CURVE SMOOTH",
"436 -240 OFFCURVE",
"462 -219 OFFCURVE",
"485 -189 CURVE SMOOTH",
"525 -137 OFFCURVE",
"545 -69 OFFCURVE",
"547 0 CURVE",
"673 0 LINE SMOOTH",
"673 139 LINE SMOOTH",
"544 139 LINE",
"538 188 OFFCURVE",
"526 224 OFFCURVE",
"512 250 CURVE SMOOTH",
"504 265 OFFCURVE",
"477 309 OFFCURVE",
"427 309 CURVE SMOOTH"
);
},
{
closed = 1;
nodes = (
"451 218 OFFCURVE",
"466 171 OFFCURVE",
"473 139 CURVE",
"425 139 LINE SMOOTH",
"374 139 OFFCURVE",
"367 154 OFFCURVE",
"367 172 CURVE SMOOTH",
"367 205 OFFCURVE",
"391 218 OFFCURVE",
"412 218 CURVE SMOOTH"
);
}
);
width = 673;
}
);
},
{
glyphname = uni0643;
layers = (
{
anchors = (
{
name = bottom;
position = "{400, -52}";
},
{
name = top;
position = "{398, 423}";
}
);
layerId = "0E844BAD-773F-41FF-B6D6-C35F1E5E991C";
name = Bold;
paths = (
{
closed = 1;
nodes = (
"702 519 OFFCURVE",
"672 564 OFFCURVE",
"651 612 CURVE",
"576 497 LINE",
"588 456 OFFCURVE",
"597 431 OFFCURVE",
"613 367 CURVE SMOOTH",
"625 319 OFFCURVE",
"638 262 OFFCURVE",
"648 176 CURVE",
"639 162 OFFCURVE",
"618 139 OFFCURVE",
"580 135 CURVE",
"562 134 OFFCURVE",
"542 133 OFFCURVE",
"471 133 CURVE SMOOTH",
"400 133 OFFCURVE",
"301 134 OFFCURVE",
"244 141 CURVE SMOOTH",
"212 145 OFFCURVE",
"169 154 OFFCURVE",
"141 183 CURVE SMOOTH",
"126 199 OFFCURVE",
"113 223 OFFCURVE",
"111 258 CURVE",
"66 269 LINE",
"56 198 OFFCURVE",
"58 144 OFFCURVE",
"79 100 CURVE SMOOTH",
"93 70 OFFCURVE",
"118 44 OFFCURVE",
"148 28 CURVE SMOOTH",
"173 15 OFFCURVE",
"203 5 OFFCURVE",
"241 -1 CURVE SMOOTH",
"281 -7 OFFCURVE",
"339 -9 OFFCURVE",
"381 -9 CURVE SMOOTH",
"411 -9 OFFCURVE",
"517 -8 OFFCURVE",
"566 -7 CURVE SMOOTH",
"605 -6 OFFCURVE",
"651 3 OFFCURVE",
"687 46 CURVE SMOOTH",
"713 77 OFFCURVE",
"730 122 OFFCURVE",
"730 178 CURVE SMOOTH",
"730 205 OFFCURVE",
"726 229 OFFCURVE",
"712 328 CURVE SMOOTH",
"708 353 OFFCURVE",
"705 377 OFFCURVE",
"701 402 CURVE",
"698 445 OFFCURVE",
"703 456 OFFCURVE",
"738 483 CURVE"
);
},
{
closed = 1;
nodes = (
"485 305 OFFCURVE",
"453 310 OFFCURVE",
"422 310 CURVE SMOOTH",
"406 310 OFFCURVE",
"392 312 OFFCURVE",
"392 319 CURVE",
"403 329 OFFCURVE",
"422 339 OFFCURVE",
"447 345 CURVE",
"461 363 OFFCURVE",
"468 376 OFFCURVE",
"482 406 CURVE",
"451 400 OFFCURVE",
"422 392 OFFCURVE",
"388 376 CURVE",
"352 356 OFFCURVE",
"333 331 OFFCURVE",
"333 302 CURVE SMOOTH",
"333 272 OFFCURVE",
"359 263 OFFCURVE",
"389 263 CURVE SMOOTH",
"406 263 OFFCURVE",
"415 262 OFFCURVE",
"415 256 CURVE",
"415 244 OFFCURVE",
"329 217 OFFCURVE",
"272 203 CURVE",
"319 191 OFFCURVE",
"364 188 OFFCURVE",
"414 197 CURVE SMOOTH",
"465 227 OFFCURVE",
"485 251 OFFCURVE",
"485 279 CURVE SMOOTH"
);
}
);
width = 788;
}
);
unicode = 0643;
},
{
glyphname = uniFEDA;
layers = (
{
anchors = (
{
name = bottom;
position = "{407, -55}";
},
{
name = top;
position = "{399, 430}";
}
);
layerId = "0E844BAD-773F-41FF-B6D6-C35F1E5E991C";
name = Bold;
paths = (
{
closed = 1;
nodes = (
"778 139 LINE SMOOTH",
"757 139 OFFCURVE",
"742 145 OFFCURVE",
"732 158 CURVE SMOOTH",
"722 171 OFFCURVE",
"719 184 OFFCURVE",
"717 200 CURVE SMOOTH",
"704 305 OFFCURVE",
"682 553 OFFCURVE",
"677 608 CURVE",
"634 561 OFFCURVE",
"606 525 OFFCURVE",
"581 479 CURVE",
"600 372 OFFCURVE",
"617 303 OFFCURVE",
"625 210 CURVE SMOOTH",
"626 198 LINE",
"628 178 OFFCURVE",
"622 163 OFFCURVE",
"611 153 CURVE SMOOTH",
"601 143 OFFCURVE",
"586 137 OFFCURVE",
"572 136 CURVE",
"410 134 LINE SMOOTH",
"303 133 OFFCURVE",
"250 137 OFFCURVE",
"235 139 CURVE SMOOTH",
"205 143 OFFCURVE",
"157 158 OFFCURVE",
"131 185 CURVE SMOOTH",
"118 199 OFFCURVE",
"104 221 OFFCURVE",
"102 258 CURVE",
"57 269 LINE",
"47 198 OFFCURVE",
"46 149 OFFCURVE",
"67 105 CURVE SMOOTH",
"79 80 OFFCURVE",
"99 56 OFFCURVE",
"122 39 CURVE SMOOTH",
"148 20 OFFCURVE",
"187 3 OFFCURVE",
"231 -4 CURVE SMOOTH",
"268 -10 OFFCURVE",
"331 -10 OFFCURVE",
"411 -9 CURVE SMOOTH",
"462 -8 OFFCURVE",
"426 -9 OFFCURVE",
"565 -7 CURVE SMOOTH",
"671 -6 OFFCURVE",
"681 32 OFFCURVE",
"695 53 CURVE",
"713 23 OFFCURVE",
"752 0 OFFCURVE",
"798 0 CURVE SMOOTH",
"854 0 LINE",
"854 139 LINE"
);
},
{
closed = 1;
nodes = (
"485 305 OFFCURVE",
"453 310 OFFCURVE",
"422 310 CURVE SMOOTH",
"406 310 OFFCURVE",
"392 312 OFFCURVE",
"392 319 CURVE",
"403 329 OFFCURVE",
"422 339 OFFCURVE",
"447 345 CURVE",
"461 363 OFFCURVE",
"468 376 OFFCURVE",
"482 406 CURVE",
"451 400 OFFCURVE",
"422 392 OFFCURVE",
"388 376 CURVE",
"352 356 OFFCURVE",
"333 331 OFFCURVE",
"333 302 CURVE SMOOTH",
"333 272 OFFCURVE",
"359 263 OFFCURVE",
"389 263 CURVE SMOOTH",
"406 263 OFFCURVE",
"415 262 OFFCURVE",
"415 256 CURVE",
"415 244 OFFCURVE",
"329 217 OFFCURVE",
"272 203 CURVE",
"319 191 OFFCURVE",
"364 188 OFFCURVE",
"414 197 CURVE SMOOTH",
"465 227 OFFCURVE",
"485 251 OFFCURVE",
"485 279 CURVE SMOOTH"
);
}
);
width = 854;
}
);
unicode = FEDA;
},
{
glyphname = uniFEDC;
layers = (
{
anchors = (
{
name = bottom;
position = "{93, -37}";
},
{
name = top;
position = "{118, 577}";
}
);
layerId = "0E844BAD-773F-41FF-B6D6-C35F1E5E991C";
name = Bold;
paths = (
{
closed = 1;
nodes = (
"299 518 OFFCURVE",
"306 558 OFFCURVE",
"311 608 CURVE",
"191 551 OFFCURVE",
"63 484 OFFCURVE",
"-4 427 CURVE",
"-11 395 OFFCURVE",
"-14 372 OFFCURVE",
"-17 338 CURVE",
"6 314 OFFCURVE",
"45 272 OFFCURVE",
"64 250 CURVE SMOOTH",
"92 219 OFFCURVE",
"118 195 OFFCURVE",
"138 162 CURVE",
"131 153 OFFCURVE",
"114 139 OFFCURVE",
"86 139 CURVE SMOOTH",
"-10 139 LINE SMOOTH",
"-49 139 OFFCURVE",
"-80 108 OFFCURVE",
"-80 69 CURVE SMOOTH",
"-80 30 OFFCURVE",
"-49 0 OFFCURVE",
"-10 0 CURVE SMOOTH",
"94 0 LINE SMOOTH",
"172 0 OFFCURVE",
"202 67 OFFCURVE",
"205 75 CURVE",
"210 67 OFFCURVE",
"253 0 OFFCURVE",
"347 0 CURVE SMOOTH",
"402 0 LINE",
"402 139 LINE",
"346 139 LINE SMOOTH",
"292 139 OFFCURVE",
"269 169 OFFCURVE",
"241 201 CURVE SMOOTH",
"227 217 OFFCURVE",
"195 254 OFFCURVE",
"161 293 CURVE SMOOTH",
"136 321 OFFCURVE",
"110 349 OFFCURVE",
"88 372 CURVE",
"145 407 OFFCURVE",
"216 442 OFFCURVE",
"287 470 CURVE"
);
}
);
width = 402;
}
);
unicode = FEDC;
},
{
glyphname = uniFEDB;
layers = (
{
anchors = (
{
name = bottom;
position = "{76, -29}";
},
{
name = top;
position = "{116, 579}";
}
);
layerId = "0E844BAD-773F-41FF-B6D6-C35F1E5E991C";
name = Bold;
paths = (
{
closed = 1;
nodes = (
"288 521 OFFCURVE",
"293 558 OFFCURVE",
"299 608 CURVE",
"180 553 OFFCURVE",
"59 486 OFFCURVE",
"-16 427 CURVE",
"-24 394 OFFCURVE",
"-29 371 OFFCURVE",
"-34 326 CURVE",
"19 266 LINE",
"30 290 LINE",
"78 254 OFFCURVE",
"139 190 OFFCURVE",
"139 166 CURVE",
"133 158 OFFCURVE",
"115 139 OFFCURVE",
"84 139 CURVE SMOOTH",
"-10 139 LINE SMOOTH",
"-49 139 OFFCURVE",
"-80 108 OFFCURVE",
"-80 69 CURVE SMOOTH",
"-80 30 OFFCURVE",
"-48 0 OFFCURVE",
"-10 0 CURVE SMOOTH",
"76 0 LINE SMOOTH",
"165 0 OFFCURVE",
"220 54 OFFCURVE",
"220 149 CURVE SMOOTH",
"220 194 OFFCURVE",
"208 231 OFFCURVE",
"186 273 CURVE SMOOTH",
"165 312 OFFCURVE",
"133 349 OFFCURVE",
"92 382 CURVE",
"143 411 OFFCURVE",
"214 445 OFFCURVE",
"275 470 CURVE"
);
}
);
width = 319;
}
);
unicode = FEDB;
},
{
glyphname = uni06A9;
layers = (
{
anchors = (
{
name = bottom;
position = "{391, -50}";
},
{
name = top;
position = "{308, 180}";
}
);
layerId = "0E844BAD-773F-41FF-B6D6-C35F1E5E991C";
name = Bold;
paths = (
{
closed = 1;
nodes = (
"56 198 OFFCURVE",
"58 144 OFFCURVE",
"79 100 CURVE SMOOTH",
"104 47 OFFCURVE",
"155 13 OFFCURVE",
"240 -1 CURVE SMOOTH",
"277 -7 OFFCURVE",
"334 -9 OFFCURVE",
"420 -9 CURVE",
"469 -8 OFFCURVE",
"514 -10 OFFCURVE",
"566 -7 CURVE",
"655 -7 OFFCURVE",
"710 54 OFFCURVE",
"710 149 CURVE SMOOTH",
"710 194 OFFCURVE",
"698 231 OFFCURVE",
"676 273 CURVE SMOOTH",
"655 312 OFFCURVE",
"623 349 OFFCURVE",
"582 382 CURVE",
"633 411 OFFCURVE",
"704 445 OFFCURVE",
"765 470 CURVE",
"778 521 OFFCURVE",
"783 558 OFFCURVE",
"789 608 CURVE",
"670 553 OFFCURVE",
"549 486 OFFCURVE",
"474 427 CURVE",
"466 394 OFFCURVE",
"461 371 OFFCURVE",
"456 326 CURVE",
"509 266 LINE",
"520 290 LINE",
"568 254 OFFCURVE",
"629 190 OFFCURVE",
"629 166 CURVE",
"623 158 OFFCURVE",
"605 136 OFFCURVE",
"574 136 CURVE",
"519 133 OFFCURVE",
"471 135 OFFCURVE",
"419 134 CURVE",
"393 134 OFFCURVE",
"291 134 OFFCURVE",
"244 140 CURVE SMOOTH",
"214 144 OFFCURVE",
"167 156 OFFCURVE",
"141 183 CURVE SMOOTH",
"126 199 OFFCURVE",
"113 223 OFFCURVE",
"111 258 CURVE",
"66 269 LINE"
);
}
);
width = 809;
}
);
unicode = 06A9;
},
{
glyphname = uniFB8F;
layers = (
{
anchors = (
{
name = bottom;
position = "{394, -48}";
},
{
name = top;
position = "{310, 175}";
}
);
layerId = "0E844BAD-773F-41FF-B6D6-C35F1E5E991C";
name = Bold;
paths = (
{
closed = 1;
nodes = (
"780 517 OFFCURVE",
"787 563 OFFCURVE",
"792 609 CURVE",
"658 546 OFFCURVE",
"540 482 OFFCURVE",
"477 428 CURVE",
"469 397 OFFCURVE",
"462 362 OFFCURVE",
"458 326 CURVE",
"511 266 LINE",
"519 280 LINE",
"527 270 OFFCURVE",
"538 258 OFFCURVE",
"546 248 CURVE",
"572 218 OFFCURVE",
"598 194 OFFCURVE",
"618 162 CURVE",
"611 153 OFFCURVE",
"595 138 OFFCURVE",
"567 136 CURVE SMOOTH",
"519 133 OFFCURVE",
"474 134 OFFCURVE",
"420 134 CURVE SMOOTH",
"394 134 OFFCURVE",
"292 133 OFFCURVE",
"245 139 CURVE SMOOTH",
"215 143 OFFCURVE",
"167 158 OFFCURVE",
"141 185 CURVE SMOOTH",
"126 201 OFFCURVE",
"114 223 OFFCURVE",
"112 258 CURVE",
"67 269 LINE",
"57 198 OFFCURVE",
"56 149 OFFCURVE",
"77 105 CURVE SMOOTH",
"102 52 OFFCURVE",
"156 10 OFFCURVE",
"241 -4 CURVE SMOOTH",
"278 -10 OFFCURVE",
"335 -10 OFFCURVE",
"421 -9 CURVE SMOOTH",
"472 -8 OFFCURVE",
"519 -9 OFFCURVE",
"575 -7 CURVE SMOOTH",
"658 -4 OFFCURVE",
"682 67 OFFCURVE",
"685 75 CURVE",
"691 67 OFFCURVE",
"733 0 OFFCURVE",
"828 0 CURVE SMOOTH",
"883 0 LINE",
"883 139 LINE",
"827 139 LINE SMOOTH",
"778 139 OFFCURVE",
"752 166 OFFCURVE",
"723 197 CURVE SMOOTH",
"703 219 OFFCURVE",
"673 259 OFFCURVE",
"642 293 CURVE SMOOTH",
"617 320 OFFCURVE",
"591 348 OFFCURVE",
"569 372 CURVE",
"638 414 OFFCURVE",
"687 438 OFFCURVE",
"768 471 CURVE"
);
}
);
width = 883;
}
);
unicode = FB8F;
},
{
glyphname = uni06AA;
layers = (
{
anchors = (
{
name = bottom;
position = "{427, -49}";
},
{
name = top;
position = "{330, 549}";
}
);
layerId = "0E844BAD-773F-41FF-B6D6-C35F1E5E991C";
name = Bold;
paths = (
{
closed = 1;
nodes = (
"383 517 OFFCURVE",
"325 488 OFFCURVE",
"269 425 CURVE SMOOTH",
"233 384 OFFCURVE",
"213 339 OFFCURVE",
"213 301 CURVE SMOOTH",
"213 277 OFFCURVE",
"222 256 OFFCURVE",
"239 240 CURVE SMOOTH",
"257 222 OFFCURVE",
"285 210 OFFCURVE",
"321 203 CURVE SMOOTH",
"344 198 OFFCURVE",
"366 197 OFFCURVE",
"378 197 CURVE SMOOTH",
"486 197 OFFCURVE",
"604 203 OFFCURVE",
"634 203 CURVE SMOOTH",
"659 203 OFFCURVE",
"682 196 OFFCURVE",
"703 185 CURVE SMOOTH",
"726 173 OFFCURVE",
"744 150 OFFCURVE",
"749 143 CURVE",
"715 142 OFFCURVE",
"683 141 OFFCURVE",
"652 140 CURVE SMOOTH",
"617 138 OFFCURVE",
"580 137 OFFCURVE",
"543 136 CURVE SMOOTH",
"483 134 OFFCURVE",
"433 133 OFFCURVE",
"392 133 CURVE SMOOTH",
"324 133 OFFCURVE",
"278 136 OFFCURVE",
"247 140 CURVE SMOOTH",
"190 147 OFFCURVE",
"157 166 OFFCURVE",
"137 187 CURVE SMOOTH",
"116 209 OFFCURVE",
"113 226 OFFCURVE",
"111 257 CURVE",
"66 268 LINE",
"63 244 OFFCURVE",
"60 202 OFFCURVE",
"60 180 CURVE SMOOTH",
"60 150 OFFCURVE",
"68 87 OFFCURVE",
"124 43 CURVE SMOOTH",
"161 15 OFFCURVE",
"216 -5 OFFCURVE",
"303 -5 CURVE SMOOTH",
"445 -5 OFFCURVE",
"506 -4 OFFCURVE",
"698 4 CURVE SMOOTH",
"740 6 OFFCURVE",
"776 26 OFFCURVE",
"802 62 CURVE SMOOTH",
"813 78 OFFCURVE",
"822 95 OFFCURVE",
"829 118 CURVE SMOOTH",
"823 171 OFFCURVE",
"817 204 OFFCURVE",
"788 243 CURVE SMOOTH",
"750 293 OFFCURVE",
"688 319 OFFCURVE",
"604 319 CURVE",
"534 317 OFFCURVE",
"463 316 OFFCURVE",
"393 314 CURVE SMOOTH",
"368 314 OFFCURVE",
"350 316 OFFCURVE",
"335 320 CURVE SMOOTH",
"304 327 OFFCURVE",
"295 338 OFFCURVE",
"294 339 CURVE",
"335 375 OFFCURVE",
"382 397 OFFCURVE",
"447 417 CURVE",
"459 461 OFFCURVE",
"466 497 OFFCURVE",
"471 547 CURVE SMOOTH"
);
}
);
width = 879;
}
);
unicode = 06AA;
},
{
glyphname = uni06AA.fina;
layers = (
{
anchors = (
{
name = bottom;
position = "{446, -49}";
},
{
name = top;
position = "{328, 546}";
}
);
layerId = "0E844BAD-773F-41FF-B6D6-C35F1E5E991C";
name = Bold;
paths = (
{
closed = 1;
nodes = (
"826 139 LINE",
"821 180 OFFCURVE",
"813 209 OFFCURVE",
"788 243 CURVE SMOOTH",
"750 293 OFFCURVE",
"688 319 OFFCURVE",
"604 319 CURVE SMOOTH",
"534 317 OFFCURVE",
"463 316 OFFCURVE",
"393 314 CURVE SMOOTH",
"368 314 OFFCURVE",
"350 316 OFFCURVE",
"335 320 CURVE",
"304 327 OFFCURVE",
"295 338 OFFCURVE",
"294 339 CURVE",
"335 375 OFFCURVE",
"382 397 OFFCURVE",
"447 417 CURVE",
"459 461 OFFCURVE",
"466 497 OFFCURVE",
"471 547 CURVE",
"383 517 OFFCURVE",
"325 488 OFFCURVE",
"269 425 CURVE SMOOTH",
"233 384 OFFCURVE",
"213 339 OFFCURVE",
"213 301 CURVE SMOOTH",
"213 277 OFFCURVE",
"222 256 OFFCURVE",
"239 240 CURVE SMOOTH",
"257 222 OFFCURVE",
"285 210 OFFCURVE",
"321 203 CURVE SMOOTH",
"344 198 OFFCURVE",
"366 197 OFFCURVE",
"378 197 CURVE SMOOTH",
"486 197 OFFCURVE",
"604 203 OFFCURVE",
"634 203 CURVE SMOOTH",
"659 203 OFFCURVE",
"682 196 OFFCURVE",
"703 185 CURVE SMOOTH",
"726 173 OFFCURVE",
"744 150 OFFCURVE",
"749 143 CURVE",
"715 142 OFFCURVE",
"683 141 OFFCURVE",
"652 140 CURVE SMOOTH",
"617 138 OFFCURVE",
"580 137 OFFCURVE",
"543 136 CURVE SMOOTH",
"483 134 OFFCURVE",
"433 133 OFFCURVE",
"392 133 CURVE SMOOTH",
"324 133 OFFCURVE",
"278 136 OFFCURVE",
"247 140 CURVE SMOOTH",
"190 147 OFFCURVE",
"157 166 OFFCURVE",
"137 187 CURVE SMOOTH",
"116 209 OFFCURVE",
"113 226 OFFCURVE",
"111 257 CURVE",
"66 268 LINE",
"63 244 OFFCURVE",
"60 202 OFFCURVE",
"60 180 CURVE SMOOTH",
"60 150 OFFCURVE",
"68 87 OFFCURVE",
"124 43 CURVE SMOOTH",
"161 15 OFFCURVE",
"216 -5 OFFCURVE",
"303 -5 CURVE SMOOTH",
"445 -5 OFFCURVE",
"506 -4 OFFCURVE",
"698 4 CURVE SMOOTH",
"731 6 OFFCURVE",
"760 18 OFFCURVE",
"783 40 CURVE",
"787 34 OFFCURVE",
"792 29 OFFCURVE",
"797 25 CURVE SMOOTH",
"817 8 OFFCURVE",
"842 0 OFFCURVE",
"872 0 CURVE SMOOTH",
"935 0 LINE",
"935 139 LINE"
);
}
);
width = 935;
}
);
},
{
glyphname = uni06AA.init;
layers = (
{
anchors = (
{
name = bottom;
position = "{276, -28}";
},
{
name = top;
position = "{134, 543}";
}
);
layerId = "0E844BAD-773F-41FF-B6D6-C35F1E5E991C";
name = Bold;
paths = (
{
closed = 1;
nodes = (
"630 171 OFFCURVE",
"624 204 OFFCURVE",
"595 243 CURVE SMOOTH",
"557 293 OFFCURVE",
"495 319 OFFCURVE",
"411 319 CURVE SMOOTH",
"341 317 OFFCURVE",
"270 316 OFFCURVE",
"200 314 CURVE SMOOTH",
"175 314 OFFCURVE",
"157 316 OFFCURVE",
"142 320 CURVE",
"111 327 OFFCURVE",
"102 338 OFFCURVE",
"101 339 CURVE",
"142 375 OFFCURVE",
"189 397 OFFCURVE",
"254 417 CURVE",
"266 461 OFFCURVE",
"273 497 OFFCURVE",
"278 547 CURVE",
"190 517 OFFCURVE",
"132 488 OFFCURVE",
"76 425 CURVE SMOOTH",
"40 384 OFFCURVE",
"20 339 OFFCURVE",
"20 301 CURVE SMOOTH",
"20 277 OFFCURVE",
"29 256 OFFCURVE",
"46 240 CURVE SMOOTH",
"64 222 OFFCURVE",
"92 210 OFFCURVE",
"128 203 CURVE SMOOTH",
"151 198 OFFCURVE",
"173 197 OFFCURVE",
"185 197 CURVE SMOOTH",
"293 197 OFFCURVE",
"411 203 OFFCURVE",
"441 203 CURVE SMOOTH",
"466 203 OFFCURVE",
"489 196 OFFCURVE",
"510 185 CURVE SMOOTH",
"533 173 OFFCURVE",
"551 151 OFFCURVE",
"556 144 CURVE",
"522 143 OFFCURVE",
"490 142 OFFCURVE",
"459 141 CURVE SMOOTH",
"424 139 OFFCURVE",
"387 140 OFFCURVE",
"350 139 CURVE SMOOTH",
"313 138 OFFCURVE",
"263 138 OFFCURVE",
"54 140 CURVE",
"-10 139 LINE SMOOTH",
"-34 139 OFFCURVE",
"-80 120 OFFCURVE",
"-80 71 CURVE SMOOTH",
"-80 31 OFFCURVE",
"-49 0 OFFCURVE",
"-10 0 CURVE SMOOTH",
"110 0 LINE SMOOTH",
"252 0 OFFCURVE",
"313 -4 OFFCURVE",
"505 4 CURVE SMOOTH",
"547 6 OFFCURVE",
"583 26 OFFCURVE",
"609 62 CURVE SMOOTH",
"620 78 OFFCURVE",
"629 95 OFFCURVE",
"636 118 CURVE"
);
}
);
width = 686;
}
);
},
{
glyphname = uni06AA.medi;
layers = (
{
anchors = (
{
name = bottom;
position = "{249, -30}";
},
{
name = top;
position = "{134, 544}";
}
);
layerId = "0E844BAD-773F-41FF-B6D6-C35F1E5E991C";
name = Bold;
paths = (
{
closed = 1;
nodes = (
"633 139 LINE",
"628 180 OFFCURVE",
"620 209 OFFCURVE",
"595 243 CURVE SMOOTH",
"557 293 OFFCURVE",
"495 319 OFFCURVE",
"411 319 CURVE SMOOTH",
"341 317 OFFCURVE",
"270 316 OFFCURVE",
"200 314 CURVE SMOOTH",
"175 314 OFFCURVE",
"157 316 OFFCURVE",
"142 320 CURVE",
"111 327 OFFCURVE",
"102 338 OFFCURVE",
"101 339 CURVE",
"142 375 OFFCURVE",
"189 397 OFFCURVE",
"254 417 CURVE",
"266 461 OFFCURVE",
"273 497 OFFCURVE",
"278 547 CURVE",
"190 517 OFFCURVE",
"132 488 OFFCURVE",
"76 425 CURVE SMOOTH",
"40 384 OFFCURVE",
"20 339 OFFCURVE",
"20 301 CURVE SMOOTH",
"20 277 OFFCURVE",
"29 256 OFFCURVE",
"46 240 CURVE SMOOTH",
"64 222 OFFCURVE",
"92 210 OFFCURVE",
"128 203 CURVE SMOOTH",
"151 198 OFFCURVE",
"173 197 OFFCURVE",
"185 197 CURVE SMOOTH",
"293 197 OFFCURVE",
"411 203 OFFCURVE",
"441 203 CURVE SMOOTH",
"466 203 OFFCURVE",
"489 196 OFFCURVE",
"510 185 CURVE SMOOTH",
"533 173 OFFCURVE",
"551 151 OFFCURVE",
"556 144 CURVE",
"522 143 OFFCURVE",
"490 142 OFFCURVE",
"459 141 CURVE SMOOTH",
"424 139 OFFCURVE",
"387 140 OFFCURVE",
"350 139 CURVE SMOOTH",
"313 138 OFFCURVE",
"263 138 OFFCURVE",
"54 140 CURVE SMOOTH",
"-10 139 LINE SMOOTH",
"-34 139 OFFCURVE",
"-80 120 OFFCURVE",
"-80 71 CURVE SMOOTH",
"-80 31 OFFCURVE",
"-49 0 OFFCURVE",
"-10 0 CURVE SMOOTH",
"110 0 LINE SMOOTH",
"252 0 OFFCURVE",
"313 -4 OFFCURVE",
"505 4 CURVE SMOOTH",
"537 6 OFFCURVE",
"565 17 OFFCURVE",
"589 39 CURVE",
"594 33 OFFCURVE",
"600 27 OFFCURVE",
"603 25 CURVE SMOOTH",
"623 8 OFFCURVE",
"648 0 OFFCURVE",
"678 0 CURVE SMOOTH",
"741 0 LINE",
"741 139 LINE"
);
}
);
width = 741;
}
);
},
{
glyphname = uni0644;
layers = (
{
anchors = (
{
name = bottom;
position = "{294, -156}";
},
{
name = top;
position = "{323, 690}";
}
);
layerId = "0E844BAD-773F-41FF-B6D6-C35F1E5E991C";
name = Bold;
paths = (
{
closed = 1;
nodes = (
"490 601 OFFCURVE",
"468 639 OFFCURVE",
"439 698 CURVE",
"364 587 LINE",
"394 448 OFFCURVE",
"410 372 OFFCURVE",
"431 259 CURVE SMOOTH",
"444 188 OFFCURVE",
"452 141 OFFCURVE",
"452 117 CURVE SMOOTH",
"452 90 OFFCURVE",
"442 72 OFFCURVE",
"422 58 CURVE SMOOTH",
"395 39 OFFCURVE",
"351 27 OFFCURVE",
"302 27 CURVE SMOOTH",
"259 27 OFFCURVE",
"226 36 OFFCURVE",
"208 43 CURVE SMOOTH",
"182 53 OFFCURVE",
"166 66 OFFCURVE",
"157 76 CURVE SMOOTH",
"126 110 OFFCURVE",
"132 171 OFFCURVE",
"141 212 CURVE",
"98 228 LINE",
"72 159 OFFCURVE",
"62 125 OFFCURVE",
"60 90 CURVE SMOOTH",
"58 57 OFFCURVE",
"63 21 OFFCURVE",
"74 -7 CURVE SMOOTH",
"89 -45 OFFCURVE",
"118 -76 OFFCURVE",
"156 -96 CURVE SMOOTH",
"194 -116 OFFCURVE",
"240 -126 OFFCURVE",
"294 -126 CURVE SMOOTH",
"367 -126 OFFCURVE",
"429 -104 OFFCURVE",
"469 -58 CURVE SMOOTH",
"493 -30 OFFCURVE",
"510 6 OFFCURVE",
"519 49 CURVE SMOOTH",
"527 87 OFFCURVE",
"528 129 OFFCURVE",
"523 175 CURVE",
"517 246 OFFCURVE",
"508 346 OFFCURVE",
"489 494 CURVE",
"482 535 OFFCURVE",
"494 554 OFFCURVE",
"527 572 CURVE"
);
}
);
width = 577;
}
);
unicode = 0644;
},
{
glyphname = uniFEDE;
layers = (
{
anchors = (
{
name = bottom;
position = "{295, -313}";
},
{
name = top;
position = "{346, 601}";
}
);
layerId = "0E844BAD-773F-41FF-B6D6-C35F1E5E991C";
name = Bold;
paths = (
{
closed = 1;
nodes = (
"571 139 LINE SMOOTH",
"553 139 OFFCURVE",
"537 143 OFFCURVE",
"525 158 CURVE SMOOTH",
"513 172 OFFCURVE",
"511 190 OFFCURVE",
"510 200 CURVE SMOOTH",
"505 250 OFFCURVE",
"505 243 OFFCURVE",
"469 626 CURVE",
"445 604 OFFCURVE",
"412 558 OFFCURVE",
"374 501 CURVE SMOOTH",
"374 501 OFFCURVE",
"447 -1 OFFCURVE",
"448 -10 CURVE SMOOTH",
"455 -58 OFFCURVE",
"452 -82 OFFCURVE",
"419 -103 CURVE SMOOTH",
"392 -120 OFFCURVE",
"352 -129 OFFCURVE",
"298 -129 CURVE SMOOTH",
"262 -129 OFFCURVE",
"238 -125 OFFCURVE",
"213 -116 CURVE SMOOTH",
"189 -108 OFFCURVE",
"171 -96 OFFCURVE",
"158 -80 CURVE SMOOTH",
"135 -51 OFFCURVE",
"128 -14 OFFCURVE",
"142 55 CURVE",
"99 70 LINE",
"78 18 OFFCURVE",
"64 -24 OFFCURVE",
"61 -67 CURVE SMOOTH",
"59 -96 OFFCURVE",
"60 -129 OFFCURVE",
"75 -165 CURVE SMOOTH",
"90 -201 OFFCURVE",
"114 -231 OFFCURVE",
"157 -253 CURVE SMOOTH",
"194 -273 OFFCURVE",
"241 -283 OFFCURVE",
"295 -283 CURVE SMOOTH",
"370 -283 OFFCURVE",
"429 -260 OFFCURVE",
"470 -216 CURVE SMOOTH",
"495 -188 OFFCURVE",
"513 -151 OFFCURVE",
"521 -116 CURVE SMOOTH",
"526 -94 OFFCURVE",
"530 -65 OFFCURVE",
"530 -40 CURVE SMOOTH",
"530 -28 OFFCURVE",
"529 -3 OFFCURVE",
"527 23 CURVE",
"542 8 OFFCURVE",
"570 0 OFFCURVE",
"595 0 CURVE SMOOTH",
"649 0 LINE",
"649 139 LINE"
);
}
);
width = 649;
}
);
unicode = FEDE;
},
{
glyphname = uniFEE0;
layers = (
{
anchors = (
{
name = bottom;
position = "{93, -29}";
},
{
name = top;
position = "{40, 600}";
}
);
layerId = "0E844BAD-773F-41FF-B6D6-C35F1E5E991C";
name = Bold;
paths = (
{
closed = 1;
nodes = (
"249 139 LINE SMOOTH",
"228 139 OFFCURVE",
"213 145 OFFCURVE",
"203 158 CURVE SMOOTH",
"193 171 OFFCURVE",
"190 184 OFFCURVE",
"188 200 CURVE SMOOTH",
"183 244 OFFCURVE",
"147 608 OFFCURVE",
"147 608 CURVE",
"108 566 OFFCURVE",
"83 531 OFFCURVE",
"51 479 CURVE SMOOTH",
"51 479 OFFCURVE",
"81 336 OFFCURVE",
"92 246 CURVE SMOOTH",
"93 238 OFFCURVE",
"96 220 OFFCURVE",
"97 193 CURVE SMOOTH",
"98 180 OFFCURVE",
"95 168 OFFCURVE",
"86 158 CURVE SMOOTH",
"75 146 OFFCURVE",
"57 139 OFFCURVE",
"36 139 CURVE SMOOTH",
"-10 139 LINE SMOOTH",
"-48 139 OFFCURVE",
"-80 107 OFFCURVE",
"-80 69 CURVE SMOOTH",
"-80 36 OFFCURVE",
"-54 0 OFFCURVE",
"-10 0 CURVE SMOOTH",
"62 0 LINE SMOOTH",
"135 0 OFFCURVE",
"163 48 OFFCURVE",
"166 53 CURVE",
"169 48 OFFCURVE",
"198 0 OFFCURVE",
"269 0 CURVE SMOOTH",
"325 0 LINE",
"325 139 LINE"
);
}
);
width = 325;
}
);
unicode = FEE0;
},
{
glyphname = uniFEDF;
layers = (
{
anchors = (
{
name = bottom;
position = "{74, -29}";
},
{
name = top;
position = "{21, 598}";
}
);
layerId = "0E844BAD-773F-41FF-B6D6-C35F1E5E991C";
name = Bold;
paths = (
{
closed = 1;
nodes = (
"155 523 OFFCURVE",
"131 553 OFFCURVE",
"110 608 CURVE",
"35 493 LINE",
"35 493 OFFCURVE",
"49 453 OFFCURVE",
"66 387 CURVE SMOOTH",
"80 329 OFFCURVE",
"97 265 OFFCURVE",
"107 176 CURVE",
"100 167 OFFCURVE",
"76 139 OFFCURVE",
"28 139 CURVE SMOOTH",
"-10 139 LINE SMOOTH",
"-56 139 OFFCURVE",
"-80 98 OFFCURVE",
"-80 70 CURVE SMOOTH",
"-80 31 OFFCURVE",
"-48 0 OFFCURVE",
"-10 0 CURVE",
"32 0 LINE",
"54 0 OFFCURVE",
"74 4 OFFCURVE",
"93 11 CURVE SMOOTH",
"112 19 OFFCURVE",
"130 32 OFFCURVE",
"144 48 CURVE SMOOTH",
"171 78 OFFCURVE",
"189 122 OFFCURVE",
"189 176 CURVE SMOOTH",
"189 204 OFFCURVE",
"179 265 OFFCURVE",
"171 324 CURVE SMOOTH",
"168 346 OFFCURVE",
"164 370 OFFCURVE",
"160 398 CURVE SMOOTH",
"150 457 OFFCURVE",
"189 472 OFFCURVE",
"198 479 CURVE"
);
}
);
width = 248;
}
);
unicode = FEDF;
},
{
glyphname = uni0645;
layers = (
{
anchors = (
{
name = bottom;
position = "{146, -390}";
},
{
name = top;
position = "{234, 376}";
}
);
layerId = "0E844BAD-773F-41FF-B6D6-C35F1E5E991C";
name = Bold;
paths = (
{
closed = 1;
nodes = (
"384 250 OFFCURVE",
"355 290 OFFCURVE",
"314 317 CURVE SMOOTH",
"291 334 OFFCURVE",
"264 346 OFFCURVE",
"234 346 CURVE SMOOTH",
"205 346 OFFCURVE",
"181 335 OFFCURVE",
"163 316 CURVE SMOOTH",
"145 296 OFFCURVE",
"133 267 OFFCURVE",
"131 234 CURVE",
"145 244 OFFCURVE",
"205 256 OFFCURVE",
"235 223 CURVE",
"141 221 OFFCURVE",
"93 172 OFFCURVE",
"70 108 CURVE SMOOTH",
"60 80 OFFCURVE",
"57 47 OFFCURVE",
"63 8 CURVE SMOOTH",
"67 -30 OFFCURVE",
"74 -76 OFFCURVE",
"82 -122 CURVE SMOOTH",
"89 -157 OFFCURVE",
"104 -288 OFFCURVE",
"114 -372 CURVE",
"171 -350 LINE",
"171 -228 OFFCURVE",
"161 -110 OFFCURVE",
"152 5 CURVE SMOOTH",
"150 32 OFFCURVE",
"154 54 OFFCURVE",
"170 72 CURVE SMOOTH",
"191 95 OFFCURVE",
"221 109 OFFCURVE",
"257 116 CURVE SMOOTH",
"290 124 OFFCURVE",
"328 125 OFFCURVE",
"365 122 CURVE",
"377 168 OFFCURVE",
"384 213 OFFCURVE",
"384 250 CURVE"
);
}
);
width = 434;
}
);
unicode = 0645;
},
{
glyphname = uni0645.alt;
layers = (
{
anchors = (
{
name = bottom;
position = "{439, -10}";
},
{
name = top;
position = "{493, 363}";
}
);
layerId = "0E844BAD-773F-41FF-B6D6-C35F1E5E991C";
name = Bold;
paths = (
{
closed = 1;
nodes = (
"592 110 LINE",
"601 142 OFFCURVE",
"603 186 OFFCURVE",
"595 225 CURVE SMOOTH",
"590 252 OFFCURVE",
"581 277 OFFCURVE",
"566 296 CURVE SMOOTH",
"548 320 OFFCURVE",
"522 333 OFFCURVE",
"493 333 CURVE SMOOTH",
"461 333 OFFCURVE",
"432 318 OFFCURVE",
"408 288 CURVE SMOOTH",
"394 272 OFFCURVE",
"383 252 OFFCURVE",
"374 231 CURVE",
"358 241 LINE",
"324 131 OFFCURVE",
"298 72 OFFCURVE",
"180 5 CURVE SMOOTH",
"132 -22 OFFCURVE",
"112 -32 OFFCURVE",
"30 -76 CURVE",
"60 -119 LINE",
"85 -111 OFFCURVE",
"118 -108 OFFCURVE",
"139 -108 CURVE SMOOTH",
"160 -108 OFFCURVE",
"168 -111 OFFCURVE",
"191 -111 CURVE SMOOTH",
"229 -111 OFFCURVE",
"247 -102 OFFCURVE",
"272 -86 CURVE SMOOTH",
"322 -54 OFFCURVE",
"360 9 OFFCURVE",
"374 90 CURVE",
"432 55 OFFCURVE",
"478 44 OFFCURVE",
"552 37 CURVE"
);
},
{
closed = 1;
nodes = (
"506 165 OFFCURVE",
"463 186 OFFCURVE",
"412 211 CURVE",
"412 211 OFFCURVE",
"425 245 OFFCURVE",
"463 245 CURVE SMOOTH",
"492 245 OFFCURVE",
"517 226 OFFCURVE",
"533 200 CURVE SMOOTH",
"542 185 OFFCURVE",
"549 168 OFFCURVE",
"552 151 CURVE"
);
}
);
width = 650;
}
);
},
{
glyphname = uni0645.altfina;
layers = (
{
anchors = (
{
name = bottom;
position = "{425, -29}";
},
{
name = top;
position = "{484, 338}";
}
);
layerId = "0E844BAD-773F-41FF-B6D6-C35F1E5E991C";
name = Bold;
paths = (
{
closed = 1;
nodes = (
"648 139 LINE SMOOTH",
"632 139 OFFCURVE",
"621 144 OFFCURVE",
"611 157 CURVE",
"597 178 OFFCURVE",
"583 234 OFFCURVE",
"560 268 CURVE",
"543 291 OFFCURVE",
"519 308 OFFCURVE",
"484 308 CURVE SMOOTH",
"460 308 OFFCURVE",
"438 300 OFFCURVE",
"415 281 CURVE",
"400 270 OFFCURVE",
"385 253 OFFCURVE",
"369 233 CURVE",
"358 241 LINE",
"324 131 OFFCURVE",
"298 72 OFFCURVE",
"180 5 CURVE SMOOTH",
"132 -22 OFFCURVE",
"112 -32 OFFCURVE",
"30 -76 CURVE",
"60 -119 LINE",
"85 -111 OFFCURVE",
"118 -108 OFFCURVE",
"139 -108 CURVE SMOOTH",
"160 -108 OFFCURVE",
"168 -111 OFFCURVE",
"191 -111 CURVE SMOOTH",
"223 -111 OFFCURVE",
"246 -101 OFFCURVE",
"272 -86 CURVE SMOOTH",
"314 -61 OFFCURVE",
"353 -5 OFFCURVE",
"369 70 CURVE",
"410 38 OFFCURVE",
"453 14 OFFCURVE",
"510 -11 CURVE",
"533 11 OFFCURVE",
"553 33 OFFCURVE",
"563 55 CURVE",
"581 21 OFFCURVE",
"612 0 OFFCURVE",
"666 0 CURVE SMOOTH",
"716 0 LINE",
"716 139 LINE"
);
},
{
closed = 1;
nodes = (
"499 129 OFFCURVE",
"437 172 OFFCURVE",
"408 197 CURVE",
"414 203 OFFCURVE",
"423 210 OFFCURVE",
"432 215 CURVE",
"443 221 OFFCURVE",
"457 226 OFFCURVE",
"470 226 CURVE SMOOTH",
"491 226 OFFCURVE",
"511 214 OFFCURVE",
"522 193 CURVE",
"528 183 OFFCURVE",
"532 170 OFFCURVE",
"532 155 CURVE SMOOTH",
"532 139 OFFCURVE",
"527 124 OFFCURVE",
"522 114 CURVE"
);
}
);
width = 716;
}
);
},
{
glyphname = uniFEE2;
layers = (
{
anchors = (
{
name = bottom;
position = "{143, -366}";
},
{
name = top;
position = "{252, 295}";
}
);
layerId = "0E844BAD-773F-41FF-B6D6-C35F1E5E991C";
name = Bold;
paths = (
{
closed = 1;
nodes = (
"458 139 LINE SMOOTH",
"412 139 OFFCURVE",
"364 169 OFFCURVE",
"328 199 CURVE",
"305 216 OFFCURVE",
"277 244 OFFCURVE",
"262 265 CURVE",
"229 219 LINE",
"214 218 OFFCURVE",
"176 216 OFFCURVE",
"139 196 CURVE SMOOTH",
"111 182 OFFCURVE",
"89 159 OFFCURVE",
"76 131 CURVE SMOOTH",
"59 97 OFFCURVE",
"57 56 OFFCURVE",
"64 9 CURVE SMOOTH",
"83 -119 OFFCURVE",
"104 -216 OFFCURVE",
"112 -345 CURVE",
"167 -325 LINE",
"174 -236 OFFCURVE",
"165 -124 OFFCURVE",
"159 -83 CURVE SMOOTH",
"158 -71 OFFCURVE",
"144 33 OFFCURVE",
"144 43 CURVE",
"144 56 OFFCURVE",
"154 69 OFFCURVE",
"168 79 CURVE SMOOTH",
"183 89 OFFCURVE",
"202 96 OFFCURVE",
"219 96 CURVE",
"220 89 OFFCURVE",
"220 49 OFFCURVE",
"248 15 CURVE SMOOTH",
"274 -14 OFFCURVE",
"312 -39 OFFCURVE",
"371 -36 CURVE",
"389 -24 OFFCURVE",
"404 2 OFFCURVE",
"412 17 CURVE",
"422 9 OFFCURVE",
"439 0 OFFCURVE",
"464 0 CURVE SMOOTH",
"518 0 LINE",
"518 139 LINE"
);
}
);
width = 519;
}
);
unicode = FEE2;
},
{
glyphname = uniFEE4;
layers = (
{
anchors = (
{
name = bottom;
position = "{144, -29}";
},
{
name = top;
position = "{270, 338}";
}
);
layerId = "0E844BAD-773F-41FF-B6D6-C35F1E5E991C";
name = Bold;
paths = (
{
closed = 1;
nodes = (
"454 139 LINE SMOOTH",
"438 139 OFFCURVE",
"427 144 OFFCURVE",
"417 157 CURVE SMOOTH",
"403 178 OFFCURVE",
"389 234 OFFCURVE",
"366 268 CURVE SMOOTH",
"349 291 OFFCURVE",
"325 308 OFFCURVE",
"290 308 CURVE SMOOTH",
"266 308 OFFCURVE",
"244 300 OFFCURVE",
"221 281 CURVE SMOOTH",
"206 270 OFFCURVE",
"191 254 OFFCURVE",
"175 234 CURVE",
"164 244 LINE",
"132 208 OFFCURVE",
"123 198 OFFCURVE",
"101 173 CURVE SMOOTH",
"91 162 OFFCURVE",
"71 139 OFFCURVE",
"33 139 CURVE SMOOTH",
"-11 139 LINE SMOOTH",
"-61 139 OFFCURVE",
"-80 92 OFFCURVE",
"-80 69 CURVE SMOOTH",
"-80 30 OFFCURVE",
"-50 0 OFFCURVE",
"-11 0 CURVE SMOOTH",
"29 0 LINE SMOOTH",
"61 0 OFFCURVE",
"89 10 OFFCURVE",
"109 30 CURVE SMOOTH",
"127 47 OFFCURVE",
"138 69 OFFCURVE",
"144 96 CURVE",
"195 50 OFFCURVE",
"244 20 OFFCURVE",
"316 -11 CURVE SMOOTH",
"339 11 OFFCURVE",
"359 33 OFFCURVE",
"369 55 CURVE",
"387 21 OFFCURVE",
"418 0 OFFCURVE",
"472 0 CURVE SMOOTH",
"522 0 LINE",
"522 139 LINE"
);
},
{
closed = 1;
nodes = (
"297 226 OFFCURVE",
"317 214 OFFCURVE",
"328 193 CURVE SMOOTH",
"334 183 OFFCURVE",
"338 170 OFFCURVE",
"338 155 CURVE SMOOTH",
"338 139 OFFCURVE",
"333 124 OFFCURVE",
"328 114 CURVE",
"305 129 OFFCURVE",
"243 172 OFFCURVE",
"214 197 CURVE",
"220 203 OFFCURVE",
"229 210 OFFCURVE",
"238 215 CURVE SMOOTH",
"249 221 OFFCURVE",
"263 226 OFFCURVE",
"276 226 CURVE SMOOTH"
);
}
);
width = 522;
}
);
unicode = FEE4;
},
{
glyphname = uniFEE3;
layers = (
{
anchors = (
{
name = bottom;
position = "{156, -10}";
},
{
name = top;
position = "{274, 333}";
}
);
layerId = "0E844BAD-773F-41FF-B6D6-C35F1E5E991C";
name = Bold;
paths = (
{
closed = 1;
nodes = (
"382 112 OFFCURVE",
"384 156 OFFCURVE",
"376 195 CURVE SMOOTH",
"371 222 OFFCURVE",
"362 247 OFFCURVE",
"347 266 CURVE SMOOTH",
"329 290 OFFCURVE",
"303 303 OFFCURVE",
"274 303 CURVE SMOOTH",
"242 303 OFFCURVE",
"213 288 OFFCURVE",
"189 258 CURVE SMOOTH",
"172 238 OFFCURVE",
"161 216 OFFCURVE",
"155 201 CURVE",
"139 211 LINE",
"125 186 OFFCURVE",
"122 179 OFFCURVE",
"108 161 CURVE SMOOTH",
"98 148 OFFCURVE",
"80 139 OFFCURVE",
"62 139 CURVE SMOOTH",
"-11 139 LINE SMOOTH",
"-54 139 OFFCURVE",
"-80 106 OFFCURVE",
"-80 70 CURVE SMOOTH",
"-80 31 OFFCURVE",
"-50 0 OFFCURVE",
"-11 0 CURVE SMOOTH",
"21 0 LINE SMOOTH",
"86 0 OFFCURVE",
"134 3 OFFCURVE",
"155 60 CURVE",
"213 25 OFFCURVE",
"259 14 OFFCURVE",
"333 7 CURVE",
"373 80 LINE"
);
},
{
closed = 1;
nodes = (
"273 213 OFFCURVE",
"298 194 OFFCURVE",
"314 168 CURVE SMOOTH",
"323 153 OFFCURVE",
"330 136 OFFCURVE",
"333 119 CURVE",
"287 133 OFFCURVE",
"244 154 OFFCURVE",
"193 179 CURVE",
"193 179 OFFCURVE",
"206 213 OFFCURVE",
"244 213 CURVE SMOOTH"
);
}
);
width = 431;
}
);
unicode = FEE3;
},
{
glyphname = uni06BA;
layers = (
{
anchors = (
{
name = bottom;
position = "{308, -200}";
},
{
name = top;
position = "{290, 54}";
}
);
layerId = "0E844BAD-773F-41FF-B6D6-C35F1E5E991C";
name = Bold;
paths = (
{
closed = 1;
nodes = (
"451 294 OFFCURVE",
"428 261 OFFCURVE",
"408 223 CURVE",
"456 160 OFFCURVE",
"497 101 OFFCURVE",
"497 69 CURVE SMOOTH",
"497 31 OFFCURVE",
"457 5 OFFCURVE",
"398 -8 CURVE SMOOTH",
"370 -14 OFFCURVE",
"338 -17 OFFCURVE",
"304 -17 CURVE SMOOTH",
"244 -17 OFFCURVE",
"187 -2 OFFCURVE",
"158 33 CURVE SMOOTH",
"131 66 OFFCURVE",
"130 115 OFFCURVE",
"142 168 CURVE",
"99 183 LINE",
"79 142 OFFCURVE",
"64 89 OFFCURVE",
"61 46 CURVE SMOOTH",
"59 15 OFFCURVE",
"62 -20 OFFCURVE",
"75 -52 CURVE SMOOTH",
"92 -93 OFFCURVE",
"123 -124 OFFCURVE",
"164 -144 CURVE SMOOTH",
"200 -161 OFFCURVE",
"242 -170 OFFCURVE",
"295 -170 CURVE SMOOTH",
"338 -170 OFFCURVE",
"374 -166 OFFCURVE",
"406 -157 CURVE SMOOTH",
"439 -147 OFFCURVE",
"467 -130 OFFCURVE",
"494 -106 CURVE SMOOTH",
"518 -84 OFFCURVE",
"568 -26 OFFCURVE",
"568 85 CURVE SMOOTH",
"568 141 OFFCURVE",
"555 197 OFFCURVE",
"538 238 CURVE SMOOTH",
"512 302 OFFCURVE",
"478 324 OFFCURVE",
"478 324 CURVE"
);
}
);
width = 618;
}
);
unicode = 06BA;
},
{
glyphname = uniFB9F;
layers = (
{
anchors = (
{
name = bottom;
position = "{303, -315}";
},
{
name = top;
position = "{289, -38}";
}
);
layerId = "0E844BAD-773F-41FF-B6D6-C35F1E5E991C";
name = Bold;
paths = (
{
closed = 1;
nodes = (
"698 139 LINE",
"589 139 LINE SMOOTH",
"551 139 OFFCURVE",
"517 160 OFFCURVE",
"490 199 CURVE SMOOTH",
"481 212 LINE",
"455 179 OFFCURVE",
"435 149 OFFCURVE",
"413 113 CURVE",
"462 49 OFFCURVE",
"497 -9 OFFCURVE",
"497 -44 CURVE SMOOTH",
"497 -85 OFFCURVE",
"453 -113 OFFCURVE",
"387 -125 CURVE SMOOTH",
"363 -130 OFFCURVE",
"335 -132 OFFCURVE",
"305 -132 CURVE SMOOTH",
"266 -132 OFFCURVE",
"235 -125 OFFCURVE",
"214 -118 CURVE SMOOTH",
"193 -111 OFFCURVE",
"171 -99 OFFCURVE",
"157 -82 CURVE SMOOTH",
"129 -48 OFFCURVE",
"132 -1 OFFCURVE",
"142 53 CURVE",
"99 68 LINE",
"79 33 OFFCURVE",
"64 -28 OFFCURVE",
"61 -69 CURVE SMOOTH",
"58 -107 OFFCURVE",
"65 -142 OFFCURVE",
"75 -167 CURVE SMOOTH",
"90 -205 OFFCURVE",
"117 -234 OFFCURVE",
"157 -255 CURVE SMOOTH",
"197 -276 OFFCURVE",
"243 -285 OFFCURVE",
"293 -285 CURVE SMOOTH",
"327 -285 OFFCURVE",
"367 -281 OFFCURVE",
"407 -268 CURVE SMOOTH",
"445 -255 OFFCURVE",
"482 -235 OFFCURVE",
"512 -202 CURVE SMOOTH",
"564 -144 OFFCURVE",
"577 -64 OFFCURVE",
"569 6 CURVE",
"582 2 OFFCURVE",
"597 0 OFFCURVE",
"618 0 CURVE",
"698 0 LINE"
);
}
);
width = 698;
}
);
unicode = FB9F;
},
{
glyphname = uni0647;
layers = (
{
anchors = (
{
name = bottom;
position = "{192, -40}";
},
{
name = top;
position = "{147, 401}";
}
);
layerId = "0E844BAD-773F-41FF-B6D6-C35F1E5E991C";
name = Bold;
paths = (
{
closed = 1;
nodes = (
"340 199 OFFCURVE",
"327 236 OFFCURVE",
"306 266 CURVE SMOOTH",
"288 291 OFFCURVE",
"266 312 OFFCURVE",
"240 329 CURVE SMOOTH",
"212 348 OFFCURVE",
"180 362 OFFCURVE",
"147 371 CURVE",
"110 339 OFFCURVE",
"84 309 OFFCURVE",
"60 274 CURVE",
"100 258 LINE",
"79 222 OFFCURVE",
"63 171 OFFCURVE",
"66 126 CURVE SMOOTH",
"67 86 OFFCURVE",
"79 53 OFFCURVE",
"94 33 CURVE SMOOTH",
"116 5 OFFCURVE",
"149 -10 OFFCURVE",
"192 -10 CURVE SMOOTH",
"254 -10 OFFCURVE",
"294 13 OFFCURVE",
"317 53 CURVE SMOOTH",
"338 88 OFFCURVE",
"340 133 OFFCURVE",
"340 152 CURVE SMOOTH"
);
},
{
closed = 1;
nodes = (
"255 186 OFFCURVE",
"273 175 OFFCURVE",
"276 161 CURVE",
"276 143 OFFCURVE",
"256 132 OFFCURVE",
"227 132 CURVE SMOOTH",
"195 132 OFFCURVE",
"160 137 OFFCURVE",
"145 151 CURVE SMOOTH",
"133 162 OFFCURVE",
"127 177 OFFCURVE",
"127 198 CURVE SMOOTH",
"127 225 OFFCURVE",
"144 240 OFFCURVE",
"144 240 CURVE",
"174 229 OFFCURVE",
"209 214 OFFCURVE",
"229 202 CURVE SMOOTH"
);
}
);
width = 390;
}
);
unicode = 0647;
},
{
glyphname = uniFEEA;
layers = (
{
anchors = (
{
name = bottom;
position = "{189, 10}";
},
{
name = top;
position = "{135, 375}";
}
);
layerId = "0E844BAD-773F-41FF-B6D6-C35F1E5E991C";
name = Bold;
paths = (
{
closed = 1;
nodes = (
"408 139 LINE SMOOTH",
"373 139 OFFCURVE",
"357 156 OFFCURVE",
"346 178 CURVE SMOOTH",
"339 193 OFFCURVE",
"333 211 OFFCURVE",
"328 228 CURVE SMOOTH",
"315 270 OFFCURVE",
"297 332 OFFCURVE",
"280 391 CURVE",
"242 366 OFFCURVE",
"225 350 OFFCURVE",
"197 319 CURVE",
"205 295 LINE",
"181 290 OFFCURVE",
"145 277 OFFCURVE",
"120 261 CURVE SMOOTH",
"96 246 OFFCURVE",
"75 224 OFFCURVE",
"71 199 CURVE SMOOTH",
"61 139 LINE SMOOTH",
"56 109 OFFCURVE",
"73 89 OFFCURVE",
"101 77 CURVE SMOOTH",
"131 64 OFFCURVE",
"174 61 OFFCURVE",
"216 68 CURVE",
"232 89 OFFCURVE",
"254 119 OFFCURVE",
"260 133 CURVE",
"273 96 OFFCURVE",
"284 63 OFFCURVE",
"305 39 CURVE SMOOTH",
"326 15 OFFCURVE",
"357 0 OFFCURVE",
"401 0 CURVE SMOOTH",
"450 0 LINE",
"450 139 LINE"
);
},
{
closed = 1;
nodes = (
"117 172 LINE",
"117 178 LINE SMOOTH",
"117 196 OFFCURVE",
"136 217 OFFCURVE",
"160 222 CURVE SMOOTH",
"173 225 OFFCURVE",
"207 224 OFFCURVE",
"214 224 CURVE",
"224 246 LINE",
"235 213 LINE",
"225 191 OFFCURVE",
"214 172 OFFCURVE",
"191 172 CURVE SMOOTH"
);
}
);
width = 450;
}
);
unicode = FEEA;
},
{
glyphname = uniFEEC;
layers = (
{
anchors = (
{
name = bottom;
position = "{189, -198}";
},
{
name = top;
position = "{173, 347}";
}
);
layerId = "0E844BAD-773F-41FF-B6D6-C35F1E5E991C";
name = Bold;
paths = (
{
closed = 1;
nodes = (
"324 139 LINE SMOOTH",
"310 139 OFFCURVE",
"290 136 OFFCURVE",
"275 129 CURVE",
"296 158 OFFCURVE",
"308 188 OFFCURVE",
"309 217 CURVE SMOOTH",
"311 256 OFFCURVE",
"294 292 OFFCURVE",
"261 337 CURVE SMOOTH",
"215 321 OFFCURVE",
"182 303 OFFCURVE",
"146 263 CURVE SMOOTH",
"116 230 OFFCURVE",
"94 193 OFFCURVE",
"80 139 CURVE",
"-10 139 LINE SMOOTH",
"-44 139 OFFCURVE",
"-80 112 OFFCURVE",
"-80 70 CURVE SMOOTH",
"-80 32 OFFCURVE",
"-49 0 OFFCURVE",
"-10 0 CURVE SMOOTH",
"23 0 LINE",
"16 -38 LINE",
"34 -27 OFFCURVE",
"42 -22 OFFCURVE",
"63 -13 CURVE",
"68 -52 OFFCURVE",
"84 -91 OFFCURVE",
"108 -122 CURVE SMOOTH",
"140 -162 OFFCURVE",
"183 -185 OFFCURVE",
"225 -185 CURVE SMOOTH",
"268 -185 OFFCURVE",
"293 -160 OFFCURVE",
"307 -140 CURVE SMOOTH",
"324 -116 OFFCURVE",
"332 -90 OFFCURVE",
"332 -66 CURVE SMOOTH",
"332 -44 OFFCURVE",
"325 -20 OFFCURVE",
"311 0 CURVE",
"478 0 LINE",
"478 139 LINE"
);
},
{
closed = 1;
nodes = (
"244 188 OFFCURVE",
"236 178 OFFCURVE",
"221 169 CURVE SMOOTH",
"199 157 OFFCURVE",
"188 154 OFFCURVE",
"147 138 CURVE",
"153 154 OFFCURVE",
"162 172 OFFCURVE",
"176 191 CURVE SMOOTH",
"188 211 OFFCURVE",
"203 226 OFFCURVE",
"221 241 CURVE",
"232 225 OFFCURVE",
"244 207 OFFCURVE",
"244 197 CURVE SMOOTH"
);
},
{
closed = 1;
nodes = (
"250 -36 OFFCURVE",
"275 -57 OFFCURVE",
"281 -91 CURVE",
"242 -89 OFFCURVE",
"209 -80 OFFCURVE",
"185 -65 CURVE SMOOTH",
"152 -44 OFFCURVE",
"140 -16 OFFCURVE",
"135 1 CURVE",
"170 -2 OFFCURVE",
"205 -12 OFFCURVE",
"229 -25 CURVE SMOOTH"
);
}
);
width = 478;
}
);
unicode = FEEC;
},
{
glyphname = uniFEEB;
layers = (
{
anchors = (
{
name = bottom;
position = "{159, -20}";
},
{
name = top;
position = "{129, 427}";
}
);
layerId = "0E844BAD-773F-41FF-B6D6-C35F1E5E991C";
name = Bold;
paths = (
{
closed = 1;
nodes = (
"388 188 OFFCURVE",
"370 225 OFFCURVE",
"350 253 CURVE SMOOTH",
"325 289 OFFCURVE",
"293 314 OFFCURVE",
"253 338 CURVE SMOOTH",
"233 350 OFFCURVE",
"213 361 OFFCURVE",
"192 371 CURVE SMOOTH",
"159 387 OFFCURVE",
"152 391 OFFCURVE",
"129 407 CURVE",
"119 390 OFFCURVE",
"108 373 OFFCURVE",
"99 356 CURVE SMOOTH",
"85 330 OFFCURVE",
"81 312 OFFCURVE",
"98 301 CURVE",
"106 296 LINE",
"82 286 OFFCURVE",
"62 270 OFFCURVE",
"49 251 CURVE SMOOTH",
"33 229 OFFCURVE",
"25 203 OFFCURVE",
"26 176 CURVE SMOOTH",
"26 163 OFFCURVE",
"29 151 OFFCURVE",
"33 139 CURVE",
"-10 139 LINE SMOOTH",
"-49 139 OFFCURVE",
"-80 106 OFFCURVE",
"-80 68 CURVE SMOOTH",
"-80 38 OFFCURVE",
"-60 0 OFFCURVE",
"-10 0 CURVE SMOOTH",
"43 0 LINE SMOOTH",
"99 0 OFFCURVE",
"144 15 OFFCURVE",
"171 44 CURVE",
"204 34 OFFCURVE",
"262 4 OFFCURVE",
"291 -12 CURVE",
"334 33 OFFCURVE",
"340 40 OFFCURVE",
"347 48 CURVE SMOOTH",
"373 78 OFFCURVE",
"388 109 OFFCURVE",
"388 147 CURVE SMOOTH"
);
},
{
closed = 1;
nodes = (
"199 194 OFFCURVE",
"195 180 OFFCURVE",
"180 169 CURVE SMOOTH",
"164 160 OFFCURVE",
"151 158 OFFCURVE",
"147 158 CURVE SMOOTH",
"141 158 OFFCURVE",
"124 160 OFFCURVE",
"101 172 CURVE SMOOTH",
"85 180 OFFCURVE",
"78 190 OFFCURVE",
"75 195 CURVE",
"77 198 OFFCURVE",
"84 210 OFFCURVE",
"107 231 CURVE SMOOTH",
"135 254 OFFCURVE",
"150 260 OFFCURVE",
"158 260 CURVE SMOOTH",
"169 260 OFFCURVE",
"179 246 OFFCURVE",
"184 235 CURVE SMOOTH",
"194 218 OFFCURVE",
"199 201 OFFCURVE",
"199 197 CURVE SMOOTH"
);
},
{
closed = 1;
nodes = (
"291 120 OFFCURVE",
"245 132 OFFCURVE",
"224 138 CURVE",
"234 154 OFFCURVE",
"240 169 OFFCURVE",
"243 184 CURVE SMOOTH",
"246 202 OFFCURVE",
"244 219 OFFCURVE",
"240 237 CURVE",
"264 221 OFFCURVE",
"281 204 OFFCURVE",
"293 185 CURVE SMOOTH",
"306 164 OFFCURVE",
"313 141 OFFCURVE",
"312 114 CURVE"
);
}
);
width = 438;
}
);
unicode = FEEB;
},
{
glyphname = uniFBA7;
layers = (
{
anchors = (
{
name = bottom;
position = "{164, -27}";
},
{
name = top;
position = "{201, 275}";
}
);
layerId = "0E844BAD-773F-41FF-B6D6-C35F1E5E991C";
name = Bold;
paths = (
{
closed = 1;
nodes = (
"407 139 LINE SMOOTH",
"377 139 OFFCURVE",
"357 160 OFFCURVE",
"339 187 CURVE SMOOTH",
"322 212 OFFCURVE",
"297 245 OFFCURVE",
"253 245 CURVE SMOOTH",
"207 245 OFFCURVE",
"167 210 OFFCURVE",
"126 135 CURVE SMOOTH",
"104 95 OFFCURVE",
"86 52 OFFCURVE",
"60 -29 CURVE",
"122 -11 LINE",
"131 11 OFFCURVE",
"147 45 OFFCURVE",
"159 66 CURVE SMOOTH",
"192 124 OFFCURVE",
"218 133 OFFCURVE",
"234 133 CURVE SMOOTH",
"259 133 OFFCURVE",
"273 111 OFFCURVE",
"286 87 CURVE SMOOTH",
"296 68 OFFCURVE",
"307 47 OFFCURVE",
"325 30 CURVE SMOOTH",
"346 10 OFFCURVE",
"372 0 OFFCURVE",
"405 0 CURVE SMOOTH",
"462 0 LINE",
"462 139 LINE"
);
}
);
width = 462;
}
);
unicode = FBA7;
},
{
glyphname = uniFBA9;
layers = (
{
anchors = (
{
name = bottom;
position = "{223, -219}";
},
{
name = top;
position = "{192, 250}";
}
);
layerId = "0E844BAD-773F-41FF-B6D6-C35F1E5E991C";
name = Bold;
paths = (
{
closed = 1;
nodes = (
"347 139 LINE SMOOTH",
"305 139 OFFCURVE",
"265 129 OFFCURVE",
"235 108 CURVE SMOOTH",
"212 92 OFFCURVE",
"196 69 OFFCURVE",
"188 39 CURVE",
"176 67 OFFCURVE",
"171 99 OFFCURVE",
"169 125 CURVE SMOOTH",
"167 153 OFFCURVE",
"168 185 OFFCURVE",
"172 220 CURVE",
"120 201 LINE",
"118 184 OFFCURVE",
"116 170 OFFCURVE",
"101 156 CURVE SMOOTH",
"91 147 OFFCURVE",
"77 139 OFFCURVE",
"49 139 CURVE SMOOTH",
"-10 139 LINE SMOOTH",
"-49 139 OFFCURVE",
"-80 108 OFFCURVE",
"-80 70 CURVE SMOOTH",
"-80 41 OFFCURVE",
"-62 0 OFFCURVE",
"-10 0 CURVE SMOOTH",
"32 0 LINE SMOOTH",
"64 0 OFFCURVE",
"85 13 OFFCURVE",
"99 26 CURVE",
"100 10 OFFCURVE",
"103 -9 OFFCURVE",
"106 -22 CURVE SMOOTH",
"113 -55 OFFCURVE",
"127 -84 OFFCURVE",
"140 -105 CURVE SMOOTH",
"159 -136 OFFCURVE",
"188 -168 OFFCURVE",
"223 -189 CURVE",
"256 -160 OFFCURVE",
"279 -136 OFFCURVE",
"307 -101 CURVE",
"290 -83 OFFCURVE",
"277 -69 OFFCURVE",
"271 -43 CURVE SMOOTH",
"268 -29 OFFCURVE",
"266 -14 OFFCURVE",
"273 2 CURVE SMOOTH",
"280 19 OFFCURVE",
"299 33 OFFCURVE",
"326 33 CURVE SMOOTH",
"346 33 OFFCURVE",
"359 25 OFFCURVE",
"371 18 CURVE SMOOTH",
"390 7 OFFCURVE",
"401 0 OFFCURVE",
"440 0 CURVE SMOOTH",
"494 0 LINE",
"494 139 LINE"
);
}
);
width = 494;
}
);
unicode = FBA9;
},
{
glyphname = uniFBA8;
layers = (
{
anchors = (
{
name = bottom;
position = "{31, -241}";
},
{
name = top;
position = "{8, 335}";
}
);
layerId = "0E844BAD-773F-41FF-B6D6-C35F1E5E991C";
name = Bold;
paths = (
{
closed = 1;
nodes = (
"194 288 OFFCURVE",
"123 350 OFFCURVE",
"123 350 CURVE",
"95 320 OFFCURVE",
"78 293 OFFCURVE",
"55 247 CURVE",
"81 220 OFFCURVE",
"101 200 OFFCURVE",
"124 176 CURVE",
"108 152 OFFCURVE",
"72 139 OFFCURVE",
"45 139 CURVE SMOOTH",
"-10 139 LINE SMOOTH",
"-44 139 OFFCURVE",
"-80 113 OFFCURVE",
"-80 70 CURVE SMOOTH",
"-80 31 OFFCURVE",
"-49 0 OFFCURVE",
"-10 0 CURVE SMOOTH",
"37 0 LINE SMOOTH",
"90 0 OFFCURVE",
"132 22 OFFCURVE",
"159 65 CURVE SMOOTH",
"182 101 OFFCURVE",
"194 138 OFFCURVE",
"194 182 CURVE SMOOTH"
);
},
{
closed = 1;
nodes = (
"123 -18 LINE",
"52 -46 OFFCURVE",
"3 -81 OFFCURVE",
"-11 -140 CURVE SMOOTH",
"-19 -177 OFFCURVE",
"-1 -207 OFFCURVE",
"30 -210 CURVE SMOOTH",
"61 -213 OFFCURVE",
"75 -198 OFFCURVE",
"84 -166 CURVE",
"55 -164 OFFCURVE",
"42 -146 OFFCURVE",
"51 -120 CURVE SMOOTH",
"62 -89 OFFCURVE",
"85 -71 OFFCURVE",
"123 -57 CURVE"
);
}
);
width = 244;
}
);
unicode = FBA8;
},
{
glyphname = uniFBAB;
layers = (
{
anchors = (
{
name = bottom;
position = "{349, -34}";
},
{
name = top;
position = "{315, 437}";
}
);
layerId = "0E844BAD-773F-41FF-B6D6-C35F1E5E991C";
name = Bold;
paths = (
{
closed = 1;
nodes = (
"623 139 LINE SMOOTH",
"602 139 OFFCURVE",
"586 140 OFFCURVE",
"574 150 CURVE",
"573 190 OFFCURVE",
"556 226 OFFCURVE",
"536 253 CURVE SMOOTH",
"511 289 OFFCURVE",
"479 314 OFFCURVE",
"439 338 CURVE SMOOTH",
"419 350 OFFCURVE",
"399 361 OFFCURVE",
"378 371 CURVE SMOOTH",
"345 387 OFFCURVE",
"338 391 OFFCURVE",
"315 407 CURVE",
"305 390 OFFCURVE",
"294 373 OFFCURVE",
"285 356 CURVE SMOOTH",
"271 330 OFFCURVE",
"267 312 OFFCURVE",
"284 301 CURVE SMOOTH",
"292 296 LINE",
"268 286 OFFCURVE",
"248 270 OFFCURVE",
"235 251 CURVE SMOOTH",
"221 232 OFFCURVE",
"211 205 OFFCURVE",
"208 178 CURVE SMOOTH",
"205 151 OFFCURVE",
"209 124 OFFCURVE",
"225 101 CURVE",
"197 79 OFFCURVE",
"146 54 OFFCURVE",
"72 29 CURVE",
"60 -9 LINE",
"125 -21 OFFCURVE",
"180 -20 OFFCURVE",
"228 -12 CURVE SMOOTH",
"271 -5 OFFCURVE",
"311 14 OFFCURVE",
"350 49 CURVE",
"385 37 OFFCURVE",
"450 3 OFFCURVE",
"477 -12 CURVE",
"505 15 LINE",
"514 24 OFFCURVE",
"526 35 OFFCURVE",
"532 47 CURVE",
"542 33 OFFCURVE",
"554 22 OFFCURVE",
"568 15 CURVE SMOOTH",
"587 5 OFFCURVE",
"609 0 OFFCURVE",
"637 0 CURVE SMOOTH",
"697 0 LINE",
"697 139 LINE"
);
},
{
closed = 1;
nodes = (
"380 218 OFFCURVE",
"385 201 OFFCURVE",
"385 197 CURVE SMOOTH",
"385 194 OFFCURVE",
"381 180 OFFCURVE",
"366 169 CURVE",
"350 160 OFFCURVE",
"337 158 OFFCURVE",
"333 158 CURVE SMOOTH",
"327 158 OFFCURVE",
"310 160 OFFCURVE",
"287 172 CURVE",
"271 180 OFFCURVE",
"264 190 OFFCURVE",
"261 195 CURVE",
"263 198 OFFCURVE",
"270 210 OFFCURVE",
"293 231 CURVE",
"321 254 OFFCURVE",
"336 260 OFFCURVE",
"344 260 CURVE SMOOTH",
"355 260 OFFCURVE",
"365 246 OFFCURVE",
"370 235 CURVE"
);
},
{
closed = 1;
nodes = (
"490 168 OFFCURVE",
"498 143 OFFCURVE",
"497 115 CURVE",
"472 122 OFFCURVE",
"430 133 OFFCURVE",
"409 139 CURVE",
"418 155 OFFCURVE",
"426 171 OFFCURVE",
"428 185 CURVE SMOOTH",
"431 203 OFFCURVE",
"428 220 OFFCURVE",
"426 238 CURVE",
"447 223 OFFCURVE",
"463 207 OFFCURVE",
"475 191 CURVE SMOOTH"
);
}
);
width = 697;
}
);
unicode = FBAB;
},
{
glyphname = uniFBAD;
layers = (
{
anchors = (
{
name = bottom;
position = "{160, -32}";
},
{
name = top;
position = "{129, 437}";
}
);
layerId = "0E844BAD-773F-41FF-B6D6-C35F1E5E991C";
name = Bold;
paths = (
{
closed = 1;
nodes = (
"437 139 LINE SMOOTH",
"416 139 OFFCURVE",
"400 140 OFFCURVE",
"388 150 CURVE",
"387 190 OFFCURVE",
"370 226 OFFCURVE",
"350 253 CURVE SMOOTH",
"325 289 OFFCURVE",
"293 314 OFFCURVE",
"253 338 CURVE SMOOTH",
"233 350 OFFCURVE",
"213 361 OFFCURVE",
"192 371 CURVE SMOOTH",
"159 387 OFFCURVE",
"152 391 OFFCURVE",
"129 407 CURVE",
"119 390 OFFCURVE",
"108 373 OFFCURVE",
"99 356 CURVE SMOOTH",
"85 330 OFFCURVE",
"81 312 OFFCURVE",
"98 301 CURVE SMOOTH",
"106 296 LINE",
"82 286 OFFCURVE",
"62 270 OFFCURVE",
"49 251 CURVE SMOOTH",
"33 229 OFFCURVE",
"25 203 OFFCURVE",
"26 176 CURVE",
"26 163 OFFCURVE",
"29 151 OFFCURVE",
"33 139 CURVE",
"-10 139 LINE SMOOTH",
"-49 139 OFFCURVE",
"-80 106 OFFCURVE",
"-80 68 CURVE SMOOTH",
"-80 38 OFFCURVE",
"-60 0 OFFCURVE",
"-10 0 CURVE SMOOTH",
"43 0 LINE SMOOTH",
"99 0 OFFCURVE",
"144 15 OFFCURVE",
"171 44 CURVE",
"204 34 OFFCURVE",
"262 4 OFFCURVE",
"291 -12 CURVE",
"321 19 LINE",
"337 37 OFFCURVE",
"342 42 OFFCURVE",
"346 47 CURVE",
"349 43 OFFCURVE",
"355 33 OFFCURVE",
"369 23 CURVE SMOOTH",
"386 11 OFFCURVE",
"411 0 OFFCURVE",
"451 0 CURVE SMOOTH",
"511 0 LINE",
"511 139 LINE"
);
},
{
closed = 1;
nodes = (
"194 218 OFFCURVE",
"199 201 OFFCURVE",
"199 197 CURVE SMOOTH",
"199 194 OFFCURVE",
"195 180 OFFCURVE",
"180 169 CURVE",
"164 160 OFFCURVE",
"151 158 OFFCURVE",
"147 158 CURVE SMOOTH",
"141 158 OFFCURVE",
"124 160 OFFCURVE",
"101 172 CURVE",
"85 180 OFFCURVE",
"78 190 OFFCURVE",
"75 195 CURVE",
"77 198 OFFCURVE",
"84 210 OFFCURVE",
"107 231 CURVE",
"135 254 OFFCURVE",
"150 260 OFFCURVE",
"158 260 CURVE SMOOTH",
"169 260 OFFCURVE",
"179 246 OFFCURVE",
"184 235 CURVE"
);
},
{
closed = 1;
nodes = (
"305 167 OFFCURVE",
"313 142 OFFCURVE",
"312 114 CURVE",
"287 121 OFFCURVE",
"245 132 OFFCURVE",
"224 138 CURVE",
"234 154 OFFCURVE",
"240 169 OFFCURVE",
"243 184 CURVE SMOOTH",
"246 202 OFFCURVE",
"244 219 OFFCURVE",
"240 237 CURVE",
"261 222 OFFCURVE",
"278 206 OFFCURVE",
"290 189 CURVE SMOOTH"
);
}
);
width = 511;
}
);
unicode = FBAD;
},
{
glyphname = uni0648;
layers = (
{
anchors = (
{
name = bottom;
position = "{118, -230}";
},
{
name = top;
position = "{216, 401}";
}
);
layerId = "0E844BAD-773F-41FF-B6D6-C35F1E5E991C";
name = Bold;
paths = (
{
closed = 1;
nodes = (
"304 324 OFFCURVE",
"274 371 OFFCURVE",
"216 371 CURVE SMOOTH",
"185 371 OFFCURVE",
"156 348 OFFCURVE",
"134 315 CURVE SMOOTH",
"113 283 OFFCURVE",
"99 240 OFFCURVE",
"99 199 CURVE SMOOTH",
"99 171 OFFCURVE",
"102 130 OFFCURVE",
"131 103 CURVE SMOOTH",
"148 87 OFFCURVE",
"175 76 OFFCURVE",
"216 76 CURVE SMOOTH",
"238 76 OFFCURVE",
"254 81 OFFCURVE",
"265 86 CURVE",
"263 56 OFFCURVE",
"248 26 OFFCURVE",
"226 -2 CURVE SMOOTH",
"202 -34 OFFCURVE",
"167 -61 OFFCURVE",
"130 -84 CURVE SMOOTH",
"63 -126 OFFCURVE",
"-6 -159 OFFCURVE",
"-20 -165 CURVE",
"10 -208 LINE",
"29 -202 OFFCURVE",
"68 -197 OFFCURVE",
"92 -197 CURVE SMOOTH",
"106 -197 OFFCURVE",
"125 -200 OFFCURVE",
"138 -200 CURVE SMOOTH",
"180 -200 OFFCURVE",
"207 -192 OFFCURVE",
"232 -175 CURVE SMOOTH",
"255 -159 OFFCURVE",
"280 -133 OFFCURVE",
"300 -92 CURVE SMOOTH",
"312 -67 OFFCURVE",
"322 -38 OFFCURVE",
"329 -2 CURVE SMOOTH",
"335 30 OFFCURVE",
"339 67 OFFCURVE",
"339 110 CURVE SMOOTH",
"339 146 OFFCURVE",
"337 211 OFFCURVE",
"321 267 CURVE SMOOTH"
);
},
{
closed = 1;
nodes = (
"255 227 OFFCURVE",
"259 205 OFFCURVE",
"259 205 CURVE",
"252 201 OFFCURVE",
"236 190 OFFCURVE",
"211 190 CURVE SMOOTH",
"154 190 OFFCURVE",
"151 208 OFFCURVE",
"151 230 CURVE SMOOTH",
"151 245 OFFCURVE",
"164 273 OFFCURVE",
"199 273 CURVE SMOOTH",
"217 273 OFFCURVE",
"232 260 OFFCURVE",
"241 247 CURVE SMOOTH"
);
}
);
width = 389;
}
);
unicode = 0648;
},
{
glyphname = uniFEEE;
layers = (
{
anchors = (
{
name = bottom;
position = "{118, -307}";
},
{
name = top;
position = "{216, 344}";
}
);
layerId = "0E844BAD-773F-41FF-B6D6-C35F1E5E991C";
name = Bold;
paths = (
{
closed = 1;
nodes = (
"332 139 LINE",
"327 178 OFFCURVE",
"318 219 OFFCURVE",
"302 251 CURVE SMOOTH",
"284 288 OFFCURVE",
"257 314 OFFCURVE",
"216 314 CURVE SMOOTH",
"170 314 OFFCURVE",
"138 279 OFFCURVE",
"120 234 CURVE SMOOTH",
"105 199 OFFCURVE",
"99 158 OFFCURVE",
"99 122 CURVE SMOOTH",
"99 94 OFFCURVE",
"105 54 OFFCURVE",
"137 27 CURVE SMOOTH",
"156 11 OFFCURVE",
"184 0 OFFCURVE",
"225 0 CURVE SMOOTH",
"264 0 LINE",
"262 -15 OFFCURVE",
"256 -31 OFFCURVE",
"248 -46 CURVE SMOOTH",
"225 -91 OFFCURVE",
"180 -133 OFFCURVE",
"130 -161 CURVE SMOOTH",
"96 -180 OFFCURVE",
"52 -204 OFFCURVE",
"24 -219 CURVE SMOOTH",
"-7 -236 OFFCURVE",
"-20 -242 OFFCURVE",
"-20 -242 CURVE",
"10 -285 LINE",
"29 -278 OFFCURVE",
"68 -274 OFFCURVE",
"92 -274 CURVE SMOOTH",
"106 -274 OFFCURVE",
"125 -277 OFFCURVE",
"138 -277 CURVE SMOOTH",
"180 -277 OFFCURVE",
"207 -269 OFFCURVE",
"232 -252 CURVE SMOOTH",
"261 -232 OFFCURVE",
"293 -195 OFFCURVE",
"314 -133 CURVE SMOOTH",
"327 -98 OFFCURVE",
"335 -54 OFFCURVE",
"338 0 CURVE",
"457 0 LINE",
"457 139 LINE"
);
},
{
closed = 1;
nodes = (
"254 181 OFFCURVE",
"260 162 OFFCURVE",
"262 138 CURVE",
"213 138 LINE SMOOTH",
"165 138 OFFCURVE",
"151 150 OFFCURVE",
"151 178 CURVE SMOOTH",
"151 193 OFFCURVE",
"166 221 OFFCURVE",
"200 221 CURVE SMOOTH",
"220 221 OFFCURVE",
"235 212 OFFCURVE",
"246 195 CURVE SMOOTH"
);
}
);
width = 457;
}
);
unicode = FEEE;
},
{
glyphname = uni0649;
layers = (
{
anchors = (
{
name = bottom;
position = "{326, -230}";
},
{
name = top;
position = "{214, 163}";
}
);
layerId = "0E844BAD-773F-41FF-B6D6-C35F1E5E991C";
name = Bold;
paths = (
{
closed = 1;
nodes = (
"466 168 OFFCURVE",
"423 176 OFFCURVE",
"422 189 CURVE",
"423 195 OFFCURVE",
"431 217 OFFCURVE",
"451 239 CURVE SMOOTH",
"479 268 OFFCURVE",
"519 284 OFFCURVE",
"568 284 CURVE",
"573 278 OFFCURVE",
"600 228 OFFCURVE",
"600 228 CURVE",
"640 248 LINE",
"640 248 OFFCURVE",
"645 338 OFFCURVE",
"605 382 CURVE SMOOTH",
"588 400 OFFCURVE",
"565 409 OFFCURVE",
"539 409 CURVE SMOOTH",
"481 409 OFFCURVE",
"429 367 OFFCURVE",
"388 287 CURVE SMOOTH",
"356 223 OFFCURVE",
"341 155 OFFCURVE",
"341 129 CURVE SMOOTH",
"340 109 OFFCURVE",
"348 84 OFFCURVE",
"380 65 CURVE SMOOTH",
"398 55 OFFCURVE",
"423 47 OFFCURVE",
"459 41 CURVE SMOOTH",
"500 35 OFFCURVE",
"526 30 OFFCURVE",
"542 27 CURVE",
"528 15 OFFCURVE",
"504 1 OFFCURVE",
"471 -13 CURVE SMOOTH",
"441 -25 OFFCURVE",
"385 -44 OFFCURVE",
"303 -44 CURVE SMOOTH",
"234 -44 OFFCURVE",
"186 -29 OFFCURVE",
"158 4 CURVE SMOOTH",
"115 55 OFFCURVE",
"142 151 OFFCURVE",
"142 151 CURVE",
"99 166 LINE",
"99 166 OFFCURVE",
"65 75 OFFCURVE",
"61 19 CURVE SMOOTH",
"58 -16 OFFCURVE",
"62 -49 OFFCURVE",
"75 -78 CURVE SMOOTH",
"90 -116 OFFCURVE",
"117 -145 OFFCURVE",
"154 -165 CURVE SMOOTH",
"191 -186 OFFCURVE",
"239 -197 OFFCURVE",
"294 -197 CURVE SMOOTH",
"356 -197 OFFCURVE",
"435 -180 OFFCURVE",
"491 -151 CURVE SMOOTH",
"575 -107 OFFCURVE",
"643 -27 OFFCURVE",
"643 78 CURVE SMOOTH",
"643 108 OFFCURVE",
"630 153 OFFCURVE",
"498 165 CURVE SMOOTH"
);
}
);
width = 693;
}
);
unicode = 0649;
},
{
glyphname = uniFEF0;
layers = (
{
anchors = (
{
name = bottom;
position = "{325, -317}";
},
{
name = top;
position = "{275, 87}";
}
);
layerId = "0E844BAD-773F-41FF-B6D6-C35F1E5E991C";
name = Bold;
paths = (
{
closed = 1;
nodes = (
"494 139 LINE",
"466 106 OFFCURVE",
"443 64 OFFCURVE",
"414 3 CURVE SMOOTH",
"414 3 OFFCURVE",
"461 -3 OFFCURVE",
"491 -13 CURVE SMOOTH",
"524 -24 OFFCURVE",
"544 -37 OFFCURVE",
"545 -49 CURVE",
"531 -81 OFFCURVE",
"484 -104 OFFCURVE",
"421 -117 CURVE SMOOTH",
"385 -124 OFFCURVE",
"345 -128 OFFCURVE",
"302 -128 CURVE SMOOTH",
"233 -128 OFFCURVE",
"185 -113 OFFCURVE",
"158 -80 CURVE SMOOTH",
"130 -46 OFFCURVE",
"130 8 OFFCURVE",
"141 67 CURVE",
"98 82 LINE",
"76 29 OFFCURVE",
"62 -24 OFFCURVE",
"60 -65 CURVE SMOOTH",
"59 -101 OFFCURVE",
"61 -134 OFFCURVE",
"74 -163 CURVE SMOOTH",
"89 -200 OFFCURVE",
"116 -229 OFFCURVE",
"153 -250 CURVE SMOOTH",
"191 -270 OFFCURVE",
"238 -281 OFFCURVE",
"293 -281 CURVE SMOOTH",
"345 -281 OFFCURVE",
"399 -271 OFFCURVE",
"448 -253 CURVE SMOOTH",
"518 -227 OFFCURVE",
"577 -184 OFFCURVE",
"607 -126 CURVE SMOOTH",
"627 -88 OFFCURVE",
"632 -57 OFFCURVE",
"632 -38 CURVE SMOOTH",
"632 -24 OFFCURVE",
"629 -11 OFFCURVE",
"626 0 CURVE",
"733 0 LINE",
"733 139 LINE"
);
}
);
width = 733;
}
);
unicode = FEF0;
},
{
glyphname = uni06CD;
layers = (
{
components = (
{
name = uni0649;
}
);
layerId = "0E844BAD-773F-41FF-B6D6-C35F1E5E991C";
name = Bold;
paths = (
{
closed = 1;
nodes = (
"63 145 OFFCURVE",
"23 124 OFFCURVE",
"-26 111 CURVE",
"19 49 LINE",
"113 92 LINE",
"99 166 LINE"
);
}
);
width = 679;
}
);
unicode = 06CD;
},
{
glyphname = uni06CD.fina;
layers = (
{
components = (
{
name = uniFEF0;
}
);
layerId = "0E844BAD-773F-41FF-B6D6-C35F1E5E991C";
name = Bold;
paths = (
{
closed = 1;
nodes = (
"62 61 OFFCURVE",
"22 40 OFFCURVE",
"-27 27 CURVE",
"18 -35 LINE",
"112 8 LINE",
"98 82 LINE"
);
}
);
width = 733;
}
);
},
{
glyphname = uni06D2;
layers = (
{
anchors = (
{
name = bottom;
position = "{438, -29}";
},
{
name = top;
position = "{418, 477}";
}
);
layerId = "0E844BAD-773F-41FF-B6D6-C35F1E5E991C";
name = Bold;
paths = (
{
closed = 1;
nodes = (
"492 322 OFFCURVE",
"497 377 OFFCURVE",
"470 418 CURVE SMOOTH",
"458 436 OFFCURVE",
"438 447 OFFCURVE",
"418 447 CURVE SMOOTH",
"387 447 OFFCURVE",
"367 421 OFFCURVE",
"347 393 CURVE SMOOTH",
"319 353 OFFCURVE",
"310 341 OFFCURVE",
"228 302 CURVE SMOOTH",
"195 286 OFFCURVE",
"153 267 OFFCURVE",
"119 239 CURVE SMOOTH",
"86 211 OFFCURVE",
"60 175 OFFCURVE",
"60 125 CURVE SMOOTH",
"60 86 OFFCURVE",
"76 55 OFFCURVE",
"109 34 CURVE SMOOTH",
"145 11 OFFCURVE",
"199 0 OFFCURVE",
"276 0 CURVE SMOOTH",
"846 0 LINE",
"884 46 OFFCURVE",
"909 86 OFFCURVE",
"933 139 CURVE",
"281 139 LINE SMOOTH",
"189 139 OFFCURVE",
"166 142 OFFCURVE",
"166 165 CURVE SMOOTH",
"166 176 OFFCURVE",
"176 183 OFFCURVE",
"185 187 CURVE",
"284 224 OFFCURVE",
"303 250 OFFCURVE",
"345 292 CURVE SMOOTH",
"355 302 OFFCURVE",
"381 339 OFFCURVE",
"406 339 CURVE SMOOTH",
"437 339 OFFCURVE",
"441 289 OFFCURVE",
"429 231 CURVE",
"479 250 LINE"
);
}
);
width = 983;
}
);
unicode = 06D2;
},
{
glyphname = uniFBAF;
layers = (
{
anchors = (
{
name = bottom;
position = "{277, -314}";
},
{
name = top;
position = "{240, 139}";
}
);
layerId = "0E844BAD-773F-41FF-B6D6-C35F1E5E991C";
name = Bold;
paths = (
{
closed = 1;
nodes = (
"615 139 LINE",
"481 139 LINE SMOOTH",
"432 139 OFFCURVE",
"397 127 OFFCURVE",
"370 113 CURVE SMOOTH",
"344 99 OFFCURVE",
"327 82 OFFCURVE",
"318 72 CURVE SMOOTH",
"301 55 OFFCURVE",
"271 39 OFFCURVE",
"227 18 CURVE SMOOTH",
"193 2 OFFCURVE",
"155 -17 OFFCURVE",
"123 -42 CURVE SMOOTH",
"96 -64 OFFCURVE",
"60 -96 OFFCURVE",
"60 -160 CURVE SMOOTH",
"60 -179 OFFCURVE",
"66 -215 OFFCURVE",
"108 -244 CURVE SMOOTH",
"146 -270 OFFCURVE",
"203 -284 OFFCURVE",
"277 -284 CURVE SMOOTH",
"587 -284 LINE",
"625 -238 OFFCURVE",
"650 -197 OFFCURVE",
"674 -145 CURVE",
"264 -145 LINE SMOOTH",
"190 -145 OFFCURVE",
"167 -136 OFFCURVE",
"167 -119 CURVE SMOOTH",
"167 -110 OFFCURVE",
"174 -102 OFFCURVE",
"184 -98 CURVE",
"210 -90 OFFCURVE",
"231 -80 OFFCURVE",
"242 -74 CURVE SMOOTH",
"266 -61 OFFCURVE",
"302 -36 OFFCURVE",
"310 -28 CURVE SMOOTH",
"315 -24 OFFCURVE",
"340 0 OFFCURVE",
"391 0 CURVE SMOOTH",
"615 0 LINE SMOOTH"
);
}
);
width = 615;
}
);
unicode = FBAF;
},
{
glyphname = uni08AC.pt.fina;
layers = (
{
anchors = (
{
name = bottom;
position = "{395, -39}";
},
{
name = top;
position = "{465, 369}";
}
);
layerId = "0E844BAD-773F-41FF-B6D6-C35F1E5E991C";
name = Bold;
paths = (
{
closed = 1;
nodes = (
"555 139 LINE",
"563 161 OFFCURVE",
"566 184 OFFCURVE",
"565 211 CURVE SMOOTH",
"562 293 OFFCURVE",
"517 349 OFFCURVE",
"465 349 CURVE SMOOTH",
"432 349 OFFCURVE",
"397 327 OFFCURVE",
"371 292 CURVE SMOOTH",
"346 258 OFFCURVE",
"331 215 OFFCURVE",
"329 183 CURVE SMOOTH",
"328 167 OFFCURVE",
"330 152 OFFCURVE",
"335 139 CURVE",
"237 139 LINE SMOOTH",
"186 139 OFFCURVE",
"144 124 OFFCURVE",
"113 98 CURVE SMOOTH",
"79 69 OFFCURVE",
"60 26 OFFCURVE",
"60 -27 CURVE SMOOTH",
"60 -97 OFFCURVE",
"95 -171 OFFCURVE",
"170 -207 CURVE",
"239 -174 LINE",
"181 -141 OFFCURVE",
"172 -102 OFFCURVE",
"172 -74 CURVE SMOOTH",
"172 -21 OFFCURVE",
"210 0 OFFCURVE",
"282 0 CURVE SMOOTH",
"380 0 LINE SMOOTH",
"463 0 OFFCURVE",
"495 32 OFFCURVE",
"510 46 CURVE",
"515 31 OFFCURVE",
"546 0 OFFCURVE",
"603 0 CURVE SMOOTH",
"716 0 LINE",
"716 139 LINE"
);
},
{
closed = 1;
nodes = (
"503 173 OFFCURVE",
"473 150 OFFCURVE",
"446 150 CURVE SMOOTH",
"414 150 OFFCURVE",
"392 182 OFFCURVE",
"389 192 CURVE",
"396 204 OFFCURVE",
"418 235 OFFCURVE",
"445 235 CURVE SMOOTH",
"471 235 OFFCURVE",
"502 202 OFFCURVE",
"506 194 CURVE"
);
}
);
width = 716;
}
);
},
{
glyphname = uni0676.fina;
layers = (
{
anchors = (
{
name = bottom;
position = "{68, -307}";
},
{
name = top;
position = "{166, 344}";
}
);
components = (
{
name = uni0654;
transform = "{1, 0, 0, 1, 375, -379}";
}
);
layerId = "0E844BAD-773F-41FF-B6D6-C35F1E5E991C";
name = Bold;
paths = (
{
closed = 1;
nodes = (
"282 139 LINE",
"277 178 OFFCURVE",
"268 219 OFFCURVE",
"252 251 CURVE SMOOTH",
"234 288 OFFCURVE",
"207 314 OFFCURVE",
"166 314 CURVE SMOOTH",
"120 314 OFFCURVE",
"88 279 OFFCURVE",
"70 234 CURVE SMOOTH",
"55 199 OFFCURVE",
"49 158 OFFCURVE",
"49 122 CURVE SMOOTH",
"49 94 OFFCURVE",
"55 54 OFFCURVE",
"87 27 CURVE SMOOTH",
"106 11 OFFCURVE",
"134 0 OFFCURVE",
"175 0 CURVE SMOOTH",
"214 0 LINE",
"212 -15 OFFCURVE",
"206 -31 OFFCURVE",
"198 -46 CURVE SMOOTH",
"175 -91 OFFCURVE",
"130 -133 OFFCURVE",
"80 -161 CURVE SMOOTH",
"46 -180 OFFCURVE",
"2 -204 OFFCURVE",
"-26 -219 CURVE SMOOTH",
"-57 -236 OFFCURVE",
"-70 -242 OFFCURVE",
"-70 -242 CURVE",
"-40 -285 LINE",
"-21 -278 OFFCURVE",
"18 -274 OFFCURVE",
"42 -274 CURVE SMOOTH",
"56 -274 OFFCURVE",
"75 -277 OFFCURVE",
"88 -277 CURVE SMOOTH",
"130 -277 OFFCURVE",
"157 -269 OFFCURVE",
"182 -252 CURVE SMOOTH",
"211 -232 OFFCURVE",
"243 -195 OFFCURVE",
"264 -133 CURVE SMOOTH",
"277 -98 OFFCURVE",
"285 -54 OFFCURVE",
"288 0 CURVE",
"615 0 LINE",
"615 139 LINE"
);
},
{
closed = 1;
nodes = (
"197 176 OFFCURVE",
"203 159 OFFCURVE",
"205 139 CURVE",
"165 139 LINE SMOOTH",
"125 139 OFFCURVE",
"114 149 OFFCURVE",
"114 172 CURVE SMOOTH",
"114 185 OFFCURVE",
"126 208 OFFCURVE",
"154 208 CURVE SMOOTH",
"172 208 OFFCURVE",
"182 198 OFFCURVE",
"191 187 CURVE SMOOTH"
);
}
);
width = 615;
}
);
},
{
glyphname = uni0677;
layers = (
{
anchors = (
{
name = top;
position = "{160, 594}";
}
);
components = (
{
name = uni0648;
}
);
layerId = "0E844BAD-773F-41FF-B6D6-C35F1E5E991C";
name = Bold;
paths = (
{
closed = 1;
nodes = (
"154 499 OFFCURVE",
"141 496 OFFCURVE",
"129 495 CURVE SMOOTH",
"114 493 OFFCURVE",
"108 492 OFFCURVE",
"95 496 CURVE SMOOTH",
"76 501 OFFCURVE",
"70 510 OFFCURVE",
"69 514 CURVE",
"75 517 OFFCURVE",
"88 524 OFFCURVE",
"105 524 CURVE SMOOTH",
"114 524 OFFCURVE",
"122 521 OFFCURVE",
"131 518 CURVE",
"143 530 LINE",
"141 546 OFFCURVE",
"130 563 OFFCURVE",
"102 563 CURVE SMOOTH",
"85 563 OFFCURVE",
"69 557 OFFCURVE",
"52 544 CURVE SMOOTH",
"41 535 OFFCURVE",
"31 523 OFFCURVE",
"28 519 CURVE SMOOTH",
"25 514 OFFCURVE",
"23 510 OFFCURVE",
"23 504 CURVE SMOOTH",
"23 493 OFFCURVE",
"30 479 OFFCURVE",
"50 471 CURVE",
"38 463 OFFCURVE",
"21 452 OFFCURVE",
"14 441 CURVE SMOOTH",
"10 436 OFFCURVE",
"10 431 OFFCURVE",
"11 427 CURVE SMOOTH",
"14 420 OFFCURVE",
"19 417 OFFCURVE",
"25 417 CURVE SMOOTH",
"25 417 OFFCURVE",
"52 435 OFFCURVE",
"83 445 CURVE SMOOTH",
"102 452 OFFCURVE",
"123 458 OFFCURVE",
"143 459 CURVE",
"153 474 OFFCURVE",
"160 484 OFFCURVE",
"166 501 CURVE"
);
},
{
closed = 1;
nodes = (
"292 491 LINE",
"304 517 OFFCURVE",
"313 553 OFFCURVE",
"286 566 CURVE SMOOTH",
"268 576 OFFCURVE",
"245 568 OFFCURVE",
"225 543 CURVE SMOOTH",
"213 529 OFFCURVE",
"209 515 OFFCURVE",
"212 502 CURVE SMOOTH",
"216 486 OFFCURVE",
"230 476 OFFCURVE",
"240 471 CURVE",
"223 457 OFFCURVE",
"199 452 OFFCURVE",
"170 456 CURVE",
"161 443 OFFCURVE",
"159 433 OFFCURVE",
"153 417 CURVE",
"214 414 OFFCURVE",
"236 425 OFFCURVE",
"250 436 CURVE SMOOTH",
"262 443 OFFCURVE",
"270 452 OFFCURVE",
"275 458 CURVE",
"304 446 LINE",
"305 466 OFFCURVE",
"305 471 OFFCURVE",
"304 486 CURVE"
);
},
{
closed = 1;
nodes = (
"255 506 LINE SMOOTH",
"245 511 OFFCURVE",
"240 519 OFFCURVE",
"240 524 CURVE SMOOTH",
"239 529 OFFCURVE",
"243 536 OFFCURVE",
"252 539 CURVE SMOOTH",
"258 540 OFFCURVE",
"263 539 OFFCURVE",
"270 533 CURVE SMOOTH",
"276 527 OFFCURVE",
"277 511 OFFCURVE",
"270 499 CURVE"
);
}
);
width = 384;
}
);
unicode = 0677;
},
{
glyphname = uni0677.fina;
layers = (
{
anchors = (
{
name = top;
position = "{145, 546}";
}
);
components = (
{
name = uniFEEE;
}
);
layerId = "0E844BAD-773F-41FF-B6D6-C35F1E5E991C";
name = Bold;
paths = (
{
closed = 1;
nodes = (
"129 449 OFFCURVE",
"116 446 OFFCURVE",
"104 445 CURVE SMOOTH",
"89 443 OFFCURVE",
"83 442 OFFCURVE",
"70 446 CURVE SMOOTH",
"51 451 OFFCURVE",
"45 460 OFFCURVE",
"44 464 CURVE",
"50 467 OFFCURVE",
"63 474 OFFCURVE",
"80 474 CURVE SMOOTH",
"89 474 OFFCURVE",
"97 471 OFFCURVE",
"106 468 CURVE",
"118 480 LINE",
"116 496 OFFCURVE",
"105 513 OFFCURVE",
"77 513 CURVE SMOOTH",
"60 513 OFFCURVE",
"44 507 OFFCURVE",
"27 494 CURVE SMOOTH",
"16 485 OFFCURVE",
"6 473 OFFCURVE",
"3 469 CURVE SMOOTH",
"0 464 OFFCURVE",
"-2 460 OFFCURVE",
"-2 454 CURVE SMOOTH",
"-2 443 OFFCURVE",
"5 429 OFFCURVE",
"25 421 CURVE",
"13 413 OFFCURVE",
"-4 402 OFFCURVE",
"-11 391 CURVE SMOOTH",
"-15 386 OFFCURVE",
"-15 381 OFFCURVE",
"-14 377 CURVE SMOOTH",
"-11 370 OFFCURVE",
"-6 367 OFFCURVE",
"0 367 CURVE SMOOTH",
"0 367 OFFCURVE",
"27 385 OFFCURVE",
"58 395 CURVE SMOOTH",
"77 402 OFFCURVE",
"98 408 OFFCURVE",
"118 409 CURVE",
"128 424 OFFCURVE",
"135 434 OFFCURVE",
"141 451 CURVE"
);
},
{
closed = 1;
nodes = (
"267 441 LINE",
"279 467 OFFCURVE",
"288 503 OFFCURVE",
"261 516 CURVE SMOOTH",
"243 526 OFFCURVE",
"220 518 OFFCURVE",
"200 493 CURVE SMOOTH",
"188 479 OFFCURVE",
"184 465 OFFCURVE",
"187 452 CURVE SMOOTH",
"191 436 OFFCURVE",
"205 426 OFFCURVE",
"215 421 CURVE",
"198 407 OFFCURVE",
"174 402 OFFCURVE",
"145 406 CURVE",
"136 393 OFFCURVE",
"134 383 OFFCURVE",
"128 367 CURVE",
"189 364 OFFCURVE",
"211 375 OFFCURVE",
"225 386 CURVE SMOOTH",
"237 393 OFFCURVE",
"245 402 OFFCURVE",
"250 408 CURVE",
"279 396 LINE",
"280 416 OFFCURVE",
"280 421 OFFCURVE",
"279 436 CURVE"
);
},
{
closed = 1;
nodes = (
"230 456 LINE SMOOTH",
"220 461 OFFCURVE",
"215 469 OFFCURVE",
"215 474 CURVE SMOOTH",
"214 479 OFFCURVE",
"218 486 OFFCURVE",
"227 489 CURVE SMOOTH",
"233 490 OFFCURVE",
"238 489 OFFCURVE",
"245 483 CURVE SMOOTH",
"251 477 OFFCURVE",
"252 461 OFFCURVE",
"245 449 CURVE"
);
}
);
width = 457;
}
);
},
{
glyphname = uni0678.fina;
layers = (
{
anchors = (
{
name = bottom;
position = "{312, -317}";
},
{
name = top;
position = "{261, 87}";
}
);
components = (
{
name = uni0654;
transform = "{1, 0, 0, 1, 631, -484}";
}
);
layerId = "0E844BAD-773F-41FF-B6D6-C35F1E5E991C";
name = Bold;
paths = (
{
closed = 1;
nodes = (
"481 139 LINE",
"453 106 OFFCURVE",
"430 64 OFFCURVE",
"401 3 CURVE SMOOTH",
"401 3 OFFCURVE",
"448 -3 OFFCURVE",
"478 -13 CURVE SMOOTH",
"511 -24 OFFCURVE",
"531 -37 OFFCURVE",
"532 -49 CURVE",
"529 -56 OFFCURVE",
"505 -76 OFFCURVE",
"460 -96 CURVE SMOOTH",
"430 -108 OFFCURVE",
"370 -128 OFFCURVE",
"302 -128 CURVE SMOOTH",
"233 -128 OFFCURVE",
"185 -113 OFFCURVE",
"158 -80 CURVE SMOOTH",
"130 -46 OFFCURVE",
"130 8 OFFCURVE",
"141 67 CURVE",
"98 82 LINE",
"76 29 OFFCURVE",
"62 -24 OFFCURVE",
"60 -65 CURVE SMOOTH",
"59 -101 OFFCURVE",
"61 -134 OFFCURVE",
"74 -163 CURVE SMOOTH",
"89 -200 OFFCURVE",
"116 -229 OFFCURVE",
"153 -250 CURVE SMOOTH",
"191 -270 OFFCURVE",
"238 -281 OFFCURVE",
"293 -281 CURVE SMOOTH",
"355 -281 OFFCURVE",
"420 -265 OFFCURVE",
"476 -235 CURVE SMOOTH",
"530 -206 OFFCURVE",
"573 -167 OFFCURVE",
"594 -126 CURVE SMOOTH",
"614 -88 OFFCURVE",
"619 -57 OFFCURVE",
"619 -38 CURVE SMOOTH",
"619 -24 OFFCURVE",
"616 -11 OFFCURVE",
"613 0 CURVE",
"885 0 LINE",
"885 139 LINE"
);
}
);
width = 885;
}
);
},
{
glyphname = uni0678.medi;
layers = (
{
anchors = (
{
name = bottom;
position = "{75, -29}";
},
{
name = top;
position = "{322, 473}";
}
);
components = (
{
name = uni0654;
transform = "{1, 0, 0, 1, 313, -428}";
}
);
layerId = "0E844BAD-773F-41FF-B6D6-C35F1E5E991C";
name = Bold;
paths = (
{
closed = 1;
nodes = (
"129 227 LINE",
"129 227 OFFCURVE",
"123 139 OFFCURVE",
"50 139 CURVE SMOOTH",
"-10 139 LINE SMOOTH",
"-34 139 OFFCURVE",
"-80 120 OFFCURVE",
"-80 71 CURVE SMOOTH",
"-80 31 OFFCURVE",
"-49 0 OFFCURVE",
"-10 0 CURVE SMOOTH",
"58 0 LINE SMOOTH",
"91 0 OFFCURVE",
"116 11 OFFCURVE",
"133 23 CURVE SMOOTH",
"149 35 OFFCURVE",
"158 48 OFFCURVE",
"159 50 CURVE",
"160 48 OFFCURVE",
"165 36 OFFCURVE",
"183 23 CURVE SMOOTH",
"200 11 OFFCURVE",
"225 0 OFFCURVE",
"265 0 CURVE SMOOTH",
"598 0 LINE",
"598 139 LINE",
"251 139 LINE SMOOTH",
"222 139 OFFCURVE",
"202 146 OFFCURVE",
"190 159 CURVE SMOOTH",
"167 186 OFFCURVE",
"180 246 OFFCURVE",
"180 246 CURVE"
);
}
);
width = 598;
}
);
},
{
glyphname = uni0640;
layers = (
{
layerId = "0E844BAD-773F-41FF-B6D6-C35F1E5E991C";
name = Bold;
paths = (
{
closed = 1;
nodes = (
"-11 139 LINE SMOOTH",
"-54 139 OFFCURVE",
"-80 103 OFFCURVE",
"-80 69 CURVE SMOOTH",
"-80 31 OFFCURVE",
"-50 0 OFFCURVE",
"-11 0 CURVE SMOOTH",
"218 0 LINE",
"218 139 LINE"
);
}
);
width = 218;
}
);
unicode = 0640;
},
{
glyphname = uniFEFB;
layers = (
{
anchors = (
{
name = bottom_1;
position = "{377, -38}";
},
{
name = bottom_2;
position = "{139, -56}";
},
{
name = caret_1;
position = "{243, -19}";
},
{
name = top_1;
position = "{309, 596}";
},
{
name = top_2;
position = "{6, 565}";
}
);
layerId = "0E844BAD-773F-41FF-B6D6-C35F1E5E991C";
name = Bold;
paths = (
{
closed = 1;
nodes = (
"434 503 OFFCURVE",
"410 547 OFFCURVE",
"392 608 CURVE",
"368 576 OFFCURVE",
"345 553 OFFCURVE",
"312 528 CURVE",
"320 498 OFFCURVE",
"329 461 OFFCURVE",
"330 419 CURVE SMOOTH",
"331 385 OFFCURVE",
"327 346 OFFCURVE",
"313 305 CURVE",
"287 345 OFFCURVE",
"244 399 OFFCURVE",
"199 449 CURVE SMOOTH",
"171 479 OFFCURVE",
"146 504 OFFCURVE",
"124 522 CURVE SMOOTH",
"89 552 OFFCURVE",
"74 555 OFFCURVE",
"65 555 CURVE SMOOTH",
"61 555 OFFCURVE",
"49 554 OFFCURVE",
"41 536 CURVE SMOOTH",
"32 516 OFFCURVE",
"26 481 OFFCURVE",
"20 441 CURVE SMOOTH",
"51 416 OFFCURVE",
"93 385 OFFCURVE",
"118 371 CURVE",
"130 390 LINE",
"199 326 OFFCURVE",
"242 266 OFFCURVE",
"273 219 CURVE",
"263 206 OFFCURVE",
"198 138 OFFCURVE",
"156 136 CURVE",
"133 134 LINE",
"127 85 OFFCURVE",
"125 44 OFFCURVE",
"126 -6 CURVE",
"228 -6 OFFCURVE",
"319 1 OFFCURVE",
"394 21 CURVE",
"396 39 OFFCURVE",
"401 79 OFFCURVE",
"402 85 CURVE SMOOTH",
"406 124 OFFCURVE",
"394 167 OFFCURVE",
"362 223 CURVE",
"396 276 OFFCURVE",
"414 333 OFFCURVE",
"418 400 CURVE",
"437 389 LINE",
"475 478 LINE"
);
},
{
closed = 1;
nodes = (
"302 136 OFFCURVE",
"270 134 OFFCURVE",
"241 133 CURVE",
"264 146 OFFCURVE",
"286 161 OFFCURVE",
"310 182 CURVE",
"322 167 OFFCURVE",
"330 150 OFFCURVE",
"336 139 CURVE"
);
}
);
width = 495;
}
);
unicode = FEFB;
},
{
glyphname = uniFEFC;
layers = (
{
anchors = (
{
name = bottom_1;
position = "{439, -39}";
},
{
name = bottom_2;
position = "{176, -64}";
},
{
name = caret_1;
position = "{173, -62}";
},
{
name = top_1;
position = "{344, 601}";
},
{
name = top_2;
position = "{37, 568}";
}
);
layerId = "0E844BAD-773F-41FF-B6D6-C35F1E5E991C";
name = Bold;
paths = (
{
closed = 1;
nodes = (
"545 139 LINE SMOOTH",
"519 139 OFFCURVE",
"503 153 OFFCURVE",
"493 173 CURVE SMOOTH",
"486 186 OFFCURVE",
"482 210 OFFCURVE",
"477 246 CURVE SMOOTH",
"469 300 OFFCURVE",
"463 373 OFFCURVE",
"459 411 CURVE SMOOTH",
"458 423 OFFCURVE",
"457 431 OFFCURVE",
"439 608 CURVE",
"397 578 OFFCURVE",
"380 559 OFFCURVE",
"347 516 CURVE",
"362 406 OFFCURVE",
"361 415 OFFCURVE",
"363 399 CURVE SMOOTH",
"368 361 OFFCURVE",
"370 339 OFFCURVE",
"370 314 CURVE SMOOTH",
"370 274 OFFCURVE",
"365 252 OFFCURVE",
"357 229 CURVE",
"348 261 OFFCURVE",
"334 294 OFFCURVE",
"318 323 CURVE SMOOTH",
"299 358 OFFCURVE",
"272 393 OFFCURVE",
"241 426 CURVE SMOOTH",
"176 496 OFFCURVE",
"95 558 OFFCURVE",
"63 558 CURVE SMOOTH",
"44 558 OFFCURVE",
"31 545 OFFCURVE",
"29 525 CURVE SMOOTH",
"28 513 OFFCURVE",
"25 494 OFFCURVE",
"20 446 CURVE SMOOTH",
"20 446 OFFCURVE",
"74 405 OFFCURVE",
"117 377 CURVE",
"131 401 LINE",
"147 388 OFFCURVE",
"176 362 OFFCURVE",
"209 323 CURVE SMOOTH",
"273 247 OFFCURVE",
"294 191 OFFCURVE",
"302 147 CURVE",
"252 86 OFFCURVE",
"173 36 OFFCURVE",
"69 -14 CURVE",
"78 -64 LINE",
"129 -49 OFFCURVE",
"145 -46 OFFCURVE",
"173 -42 CURVE SMOOTH",
"211 -37 OFFCURVE",
"248 -31 OFFCURVE",
"285 -10 CURVE SMOOTH",
"340 21 OFFCURVE",
"376 72 OFFCURVE",
"395 111 CURVE",
"401 82 OFFCURVE",
"411 60 OFFCURVE",
"426 43 CURVE SMOOTH",
"452 14 OFFCURVE",
"491 0 OFFCURVE",
"548 0 CURVE SMOOTH",
"603 0 LINE",
"603 139 LINE"
);
}
);
width = 603;
}
);
unicode = FEFC;
},
{
glyphname = uni066E062D;
layers = (
{
anchors = (
{
name = bottom_1;
position = "{523, 139}";
},
{
name = bottom_2;
position = "{294, 62}";
},
{
name = caret_1;
position = "{288, 0}";
},
{
name = top_1;
position = "{381, 549}";
},
{
name = top_2;
position = "{144, 419}";
}
);
layerId = "0E844BAD-773F-41FF-B6D6-C35F1E5E991C";
name = Bold;
paths = (
{
closed = 1;
nodes = (
"484 285 OFFCURVE",
"454 292 OFFCURVE",
"398 298 CURVE SMOOTH",
"336 305 OFFCURVE",
"296 307 OFFCURVE",
"263 303 CURVE",
"281 313 OFFCURVE",
"294 323 OFFCURVE",
"305 334 CURVE SMOOTH",
"322 351 OFFCURVE",
"331 369 OFFCURVE",
"337 380 CURVE SMOOTH",
"350 403 OFFCURVE",
"358 417 OFFCURVE",
"373 417 CURVE SMOOTH",
"396 417 OFFCURVE",
"402 388 OFFCURVE",
"381 346 CURVE",
"416 346 LINE",
"436 372 OFFCURVE",
"448 398 OFFCURVE",
"448 433 CURVE SMOOTH",
"448 478 OFFCURVE",
"428 519 OFFCURVE",
"381 519 CURVE SMOOTH",
"345 519 OFFCURVE",
"323 494 OFFCURVE",
"299 464 CURVE SMOOTH",
"296 460 OFFCURVE",
"264 419 OFFCURVE",
"233 392 CURVE SMOOTH",
"217 378 OFFCURVE",
"191 358 OFFCURVE",
"167 345 CURVE SMOOTH",
"146 334 OFFCURVE",
"120 319 OFFCURVE",
"103 288 CURVE SMOOTH",
"94 271 OFFCURVE",
"88 251 OFFCURVE",
"79 211 CURVE",
"108 213 OFFCURVE",
"138 215 OFFCURVE",
"167 217 CURVE",
"170 217 OFFCURVE",
"173 217 OFFCURVE",
"176 217 CURVE SMOOTH",
"201 217 OFFCURVE",
"228 215 OFFCURVE",
"253 212 CURVE",
"233 202 OFFCURVE",
"185 178 OFFCURVE",
"141 127 CURVE SMOOTH",
"97 76 OFFCURVE",
"60 5 OFFCURVE",
"60 -73 CURVE SMOOTH",
"60 -131 OFFCURVE",
"81 -190 OFFCURVE",
"120 -233 CURVE SMOOTH",
"167 -285 OFFCURVE",
"233 -311 OFFCURVE",
"297 -311 CURVE SMOOTH",
"348 -311 OFFCURVE",
"381 -294 OFFCURVE",
"404 -282 CURVE SMOOTH",
"437 -265 OFFCURVE",
"467 -256 OFFCURVE",
"504 -256 CURVE",
"521 -207 LINE",
"479 -199 OFFCURVE",
"440 -197 OFFCURVE",
"414 -196 CURVE",
"407 -196 OFFCURVE",
"357 -193 OFFCURVE",
"317 -186 CURVE SMOOTH",
"260 -176 OFFCURVE",
"211 -155 OFFCURVE",
"182 -121 CURVE SMOOTH",
"156 -91 OFFCURVE",
"146 -50 OFFCURVE",
"150 -12 CURVE SMOOTH",
"158 62 OFFCURVE",
"215 116 OFFCURVE",
"277 146 CURVE SMOOTH",
"324 169 OFFCURVE",
"378 179 OFFCURVE",
"426 179 CURVE SMOOTH",
"448 179 OFFCURVE",
"468 177 OFFCURVE",
"485 175 CURVE",
"505 212 OFFCURVE",
"519 248 OFFCURVE",
"525 285 CURVE"
);
}
);
width = 645;
}
);
},
{
glyphname = uni066E062D.init;
layers = (
{
anchors = (
{
name = bottom_1;
position = "{383, 56}";
},
{
name = bottom_2;
position = "{105, -19}";
},
{
name = caret_1;
position = "{304, 0}";
},
{
name = top_1;
position = "{397, 550}";
},
{
name = top_2;
position = "{107, 432}";
}
);
layerId = "0E844BAD-773F-41FF-B6D6-C35F1E5E991C";
name = Bold;
paths = (
{
closed = 1;
nodes = (
"534 272 OFFCURVE",
"507 269 OFFCURVE",
"479 269 CURVE SMOOTH",
"447 269 OFFCURVE",
"408 273 OFFCURVE",
"373 278 CURVE SMOOTH",
"324 285 OFFCURVE",
"279 295 OFFCURVE",
"236 296 CURVE",
"296 318 OFFCURVE",
"328 358 OFFCURVE",
"344 379 CURVE SMOOTH",
"358 398 OFFCURVE",
"372 418 OFFCURVE",
"392 418 CURVE SMOOTH",
"418 418 OFFCURVE",
"413 388 OFFCURVE",
"400 343 CURVE",
"436 343 LINE",
"452 367 OFFCURVE",
"462 387 OFFCURVE",
"466 415 CURVE SMOOTH",
"474 469 OFFCURVE",
"454 520 OFFCURVE",
"397 520 CURVE SMOOTH",
"351 520 OFFCURVE",
"322 485 OFFCURVE",
"286 447 CURVE SMOOTH",
"215 373 OFFCURVE",
"171 360 OFFCURVE",
"136 346 CURVE SMOOTH",
"101 332 OFFCURVE",
"75 321 OFFCURVE",
"53 289 CURVE SMOOTH",
"36 264 OFFCURVE",
"33 245 OFFCURVE",
"31 211 CURVE",
"64 200 LINE",
"73 216 OFFCURVE",
"85 227 OFFCURVE",
"122 222 CURVE SMOOTH",
"145 219 OFFCURVE",
"211 205 OFFCURVE",
"274 184 CURVE",
"252 174 OFFCURVE",
"220 162 OFFCURVE",
"168 152 CURVE SMOOTH",
"132 145 OFFCURVE",
"88 140 OFFCURVE",
"37 140 CURVE SMOOTH",
"-10 140 LINE SMOOTH",
"-49 140 OFFCURVE",
"-80 108 OFFCURVE",
"-80 70 CURVE SMOOTH",
"-80 31 OFFCURVE",
"-49 1 OFFCURVE",
"-10 1 CURVE SMOOTH",
"36 1 LINE SMOOTH",
"140 1 OFFCURVE",
"206 38 OFFCURVE",
"264 71 CURVE SMOOTH",
"341 115 OFFCURVE",
"410 137 OFFCURVE",
"495 140 CURVE",
"527 192 OFFCURVE",
"540 217 OFFCURVE",
"558 275 CURVE"
);
}
);
width = 608;
}
);
},
{
glyphname = uni066E062D0649;
layers = (
{
anchors = (
{
name = bottom_1;
position = "{792, 20}";
},
{
name = bottom_2;
position = "{651, -198}";
},
{
name = bottom_3;
position = "{304, -301}";
},
{
name = caret_1;
position = "{333, 0}";
},
{
name = caret_2;
position = "{657, 0}";
},
{
name = top_1;
position = "{769, 550}";
},
{
name = top_2;
position = "{534, 462}";
},
{
name = top_3;
position = "{246, 65}";
}
);
layerId = "0E844BAD-773F-41FF-B6D6-C35F1E5E991C";
name = Bold;
paths = (
{
closed = 1;
nodes = (
"904 271 OFFCURVE",
"879 270 OFFCURVE",
"855 269 CURVE",
"817 269 OFFCURVE",
"780 273 OFFCURVE",
"745 278 CURVE SMOOTH",
"696 285 OFFCURVE",
"651 295 OFFCURVE",
"608 296 CURVE",
"668 318 OFFCURVE",
"698 356 OFFCURVE",
"716 379 CURVE SMOOTH",
"730 398 OFFCURVE",
"744 418 OFFCURVE",
"764 418 CURVE SMOOTH",
"790 418 OFFCURVE",
"785 388 OFFCURVE",
"772 343 CURVE",
"808 343 LINE",
"824 367 OFFCURVE",
"834 387 OFFCURVE",
"838 415 CURVE SMOOTH",
"847 472 OFFCURVE",
"823 520 OFFCURVE",
"769 520 CURVE SMOOTH",
"723 520 OFFCURVE",
"694 485 OFFCURVE",
"658 447 CURVE SMOOTH",
"592 378 OFFCURVE",
"548 361 OFFCURVE",
"508 346 CURVE SMOOTH",
"474 332 OFFCURVE",
"445 320 OFFCURVE",
"425 289 CURVE SMOOTH",
"408 264 OFFCURVE",
"405 245 OFFCURVE",
"403 211 CURVE",
"436 200 LINE",
"445 217 OFFCURVE",
"464 233 OFFCURVE",
"498 228 CURVE SMOOTH",
"540 221 OFFCURVE",
"587 205 OFFCURVE",
"640 186 CURVE",
"599 172 OFFCURVE",
"563 156 OFFCURVE",
"533 142 CURVE SMOOTH",
"491 121 OFFCURVE",
"462 103 OFFCURVE",
"453 93 CURVE",
"432 72 OFFCURVE",
"427 59 OFFCURVE",
"418 2 CURVE",
"446 -3 OFFCURVE",
"455 -5 OFFCURVE",
"484 -12 CURVE",
"514 -21 OFFCURVE",
"543 -34 OFFCURVE",
"543 -49 CURVE SMOOTH",
"543 -75 OFFCURVE",
"495 -100 OFFCURVE",
"428 -115 CURVE SMOOTH",
"390 -123 OFFCURVE",
"347 -128 OFFCURVE",
"303 -128 CURVE SMOOTH",
"234 -128 OFFCURVE",
"185 -114 OFFCURVE",
"159 -80 CURVE SMOOTH",
"130 -44 OFFCURVE",
"129 0 OFFCURVE",
"142 57 CURVE",
"99 72 LINE",
"78 23 OFFCURVE",
"65 -13 OFFCURVE",
"61 -59 CURVE SMOOTH",
"58 -93 OFFCURVE",
"61 -129 OFFCURVE",
"75 -163 CURVE SMOOTH",
"90 -200 OFFCURVE",
"117 -229 OFFCURVE",
"154 -250 CURVE SMOOTH",
"192 -270 OFFCURVE",
"239 -281 OFFCURVE",
"294 -281 CURVE SMOOTH",
"350 -281 OFFCURVE",
"410 -270 OFFCURVE",
"464 -247 CURVE SMOOTH",
"525 -221 OFFCURVE",
"577 -181 OFFCURVE",
"606 -126 CURVE SMOOTH",
"622 -96 OFFCURVE",
"629 -66 OFFCURVE",
"630 -40 CURVE",
"630 12 OFFCURVE",
"603 39 OFFCURVE",
"546 60 CURVE",
"569 73 OFFCURVE",
"599 87 OFFCURVE",
"633 100 CURVE SMOOTH",
"686 119 OFFCURVE",
"751 140 OFFCURVE",
"811 140 CURVE SMOOTH",
"867 140 LINE",
"899 187 OFFCURVE",
"912 217 OFFCURVE",
"930 275 CURVE"
);
}
);
width = 980;
}
);
},
{
glyphname = uni066E0631;
layers = (
{
anchors = (
{
name = bottom_1;
position = "{412, -19}";
},
{
name = bottom_2;
position = "{47, -282}";
},
{
name = caret_1;
position = "{300, 0}";
},
{
name = top_1;
position = "{421, 374}";
},
{
name = top_2;
position = "{160, 312}";
}
);
layerId = "0E844BAD-773F-41FF-B6D6-C35F1E5E991C";
name = Bold;
paths = (
{
closed = 1;
nodes = (
"375 334 OFFCURVE",
"310 304 OFFCURVE",
"292 294 CURVE SMOOTH",
"258 276 OFFCURVE",
"230 251 OFFCURVE",
"212 213 CURVE SMOOTH",
"197 182 OFFCURVE",
"188 141 OFFCURVE",
"193 100 CURVE SMOOTH",
"195 83 OFFCURVE",
"201 61 OFFCURVE",
"201 29 CURVE SMOOTH",
"201 -32 OFFCURVE",
"180 -65 OFFCURVE",
"60 -135 CURVE SMOOTH",
"0 -170 OFFCURVE",
"-90 -217 OFFCURVE",
"-90 -217 CURVE",
"-60 -260 LINE",
"-35 -252 OFFCURVE",
"-2 -249 OFFCURVE",
"19 -249 CURVE SMOOTH",
"40 -249 OFFCURVE",
"47 -252 OFFCURVE",
"72 -252 CURVE SMOOTH",
"114 -252 OFFCURVE",
"147 -243 OFFCURVE",
"183 -210 CURVE SMOOTH",
"209 -186 OFFCURVE",
"231 -155 OFFCURVE",
"252 -107 CURVE SMOOTH",
"271 -65 OFFCURVE",
"281 -22 OFFCURVE",
"284 27 CURVE SMOOTH",
"286 61 OFFCURVE",
"285 80 OFFCURVE",
"275 136 CURVE",
"299 151 OFFCURVE",
"362 177 OFFCURVE",
"448 177 CURVE SMOOTH",
"458 177 OFFCURVE",
"467 177 OFFCURVE",
"477 176 CURVE",
"504 240 OFFCURVE",
"512 279 OFFCURVE",
"520 331 CURVE",
"503 333 OFFCURVE",
"486 334 OFFCURVE",
"469 334 CURVE SMOOTH"
);
}
);
width = 570;
}
);
},
{
glyphname = uni066E0631.fina;
layers = (
{
anchors = (
{
name = bottom_1;
position = "{383, -19}";
},
{
name = bottom_2;
position = "{49, -210}";
},
{
name = caret_1;
position = "{351, 0}";
},
{
name = top_1;
position = "{360, 322}";
},
{
name = top_2;
position = "{83, 323}";
}
);
layerId = "0E844BAD-773F-41FF-B6D6-C35F1E5E991C";
name = Bold;
paths = (
{
closed = 1;
nodes = (
"606 139 LINE SMOOTH",
"536 139 OFFCURVE",
"508 178 OFFCURVE",
"507 242 CURVE SMOOTH",
"506 268 OFFCURVE",
"510 298 OFFCURVE",
"517 331 CURVE",
"466 312 LINE",
"461 292 OFFCURVE",
"449 261 OFFCURVE",
"411 241 CURVE",
"390 231 OFFCURVE",
"362 224 OFFCURVE",
"323 224 CURVE SMOOTH",
"283 224 OFFCURVE",
"252 238 OFFCURVE",
"229 254 CURVE SMOOTH",
"212 265 OFFCURVE",
"196 282 OFFCURVE",
"185 297 CURVE",
"155 265 OFFCURVE",
"131 230 OFFCURVE",
"108 189 CURVE",
"156 148 OFFCURVE",
"188 108 OFFCURVE",
"188 60 CURVE SMOOTH",
"188 28 OFFCURVE",
"174 5 OFFCURVE",
"148 -18 CURVE SMOOTH",
"125 -38 OFFCURVE",
"96 -56 OFFCURVE",
"60 -76 CURVE SMOOTH",
"10 -103 OFFCURVE",
"-40 -131 OFFCURVE",
"-90 -158 CURVE",
"-60 -201 LINE",
"-42 -194 OFFCURVE",
"-3 -190 OFFCURVE",
"20 -190 CURVE SMOOTH",
"39 -190 OFFCURVE",
"50 -193 OFFCURVE",
"71 -193 CURVE SMOOTH",
"108 -193 OFFCURVE",
"137 -184 OFFCURVE",
"161 -167 CURVE SMOOTH",
"186 -150 OFFCURVE",
"206 -125 OFFCURVE",
"219 -102 CURVE SMOOTH",
"239 -68 OFFCURVE",
"255 -16 OFFCURVE",
"260 11 CURVE SMOOTH",
"265 40 OFFCURVE",
"269 74 OFFCURVE",
"266 101 CURVE",
"294 86 OFFCURVE",
"348 82 OFFCURVE",
"384 93 CURVE SMOOTH",
"419 103 OFFCURVE",
"450 125 OFFCURVE",
"462 159 CURVE",
"462 136 OFFCURVE",
"463 87 OFFCURVE",
"492 50 CURVE SMOOTH",
"513 22 OFFCURVE",
"549 0 OFFCURVE",
"612 0 CURVE SMOOTH",
"672 0 LINE",
"672 139 LINE"
);
}
);
width = 672;
}
);
},
{
glyphname = uni066E0645;
layers = (
{
anchors = (
{
name = bottom_1;
position = "{304, -113}";
},
{
name = bottom_2;
position = "{125, -529}";
},
{
name = caret_1;
position = "{238, 0}";
},
{
name = top_1;
position = "{332, 247}";
},
{
name = top_2;
position = "{87, 139}";
}
);
layerId = "0E844BAD-773F-41FF-B6D6-C35F1E5E991C";
name = Bold;
paths = (
{
closed = 1;
nodes = (
"420 111 OFFCURVE",
"425 135 OFFCURVE",
"425 157 CURVE",
"424 203 OFFCURVE",
"398 218 OFFCURVE",
"352 217 CURVE SMOOTH",
"302 216 OFFCURVE",
"250 190 OFFCURVE",
"212 151 CURVE SMOOTH",
"182 120 OFFCURVE",
"155 83 OFFCURVE",
"148 41 CURVE",
"110 19 OFFCURVE",
"85 -7 OFFCURVE",
"67 -40 CURVE SMOOTH",
"50 -72 OFFCURVE",
"41 -113 OFFCURVE",
"47 -156 CURVE SMOOTH",
"76 -334 OFFCURVE",
"88 -427 OFFCURVE",
"94 -510 CURVE",
"156 -484 LINE",
"156 -484 OFFCURVE",
"152 -354 OFFCURVE",
"146 -284 CURVE SMOOTH",
"141 -224 OFFCURVE",
"133 -151 OFFCURVE",
"123 -89 CURVE",
"135 -79 OFFCURVE",
"174 -66 OFFCURVE",
"232 -66 CURVE SMOOTH",
"267 -66 OFFCURVE",
"290 -70 OFFCURVE",
"325 -83 CURVE",
"350 -52 OFFCURVE",
"364 -30 OFFCURVE",
"376 14 CURVE",
"347 46 OFFCURVE",
"289 73 OFFCURVE",
"248 86 CURVE",
"261 95 OFFCURVE",
"274 104 OFFCURVE",
"289 110 CURVE SMOOTH",
"304 117 OFFCURVE",
"319 122 OFFCURVE",
"336 124 CURVE SMOOTH",
"369 128 OFFCURVE",
"381 111 OFFCURVE",
"375 96 CURVE",
"407 96 LINE"
);
}
);
width = 475;
}
);
},
{
glyphname = uni066E0645.fina;
layers = (
{
anchors = (
{
name = bottom_1;
position = "{322, -140}";
},
{
name = bottom_2;
position = "{143, -524}";
},
{
name = caret_1;
position = "{279, 0}";
},
{
name = top_1;
position = "{291, 255}";
},
{
name = top_2;
position = "{70, 119}";
}
);
layerId = "0E844BAD-773F-41FF-B6D6-C35F1E5E991C";
name = Bold;
paths = (
{
closed = 1;
nodes = (
"488 139 LINE SMOOTH",
"455 139 OFFCURVE",
"436 159 OFFCURVE",
"415 180 CURVE SMOOTH",
"395 201 OFFCURVE",
"372 225 OFFCURVE",
"332 225 CURVE SMOOTH",
"274 225 OFFCURVE",
"229 174 OFFCURVE",
"212 150 CURVE SMOOTH",
"192 123 OFFCURVE",
"169 80 OFFCURVE",
"163 43 CURVE",
"124 21 OFFCURVE",
"99 -5 OFFCURVE",
"81 -38 CURVE SMOOTH",
"65 -70 OFFCURVE",
"55 -111 OFFCURVE",
"62 -154 CURVE SMOOTH",
"90 -332 OFFCURVE",
"102 -425 OFFCURVE",
"109 -508 CURVE",
"171 -482 LINE",
"171 -482 OFFCURVE",
"166 -352 OFFCURVE",
"161 -282 CURVE SMOOTH",
"155 -222 OFFCURVE",
"147 -149 OFFCURVE",
"138 -87 CURVE",
"150 -77 OFFCURVE",
"171 -64 OFFCURVE",
"229 -64 CURVE SMOOTH",
"265 -64 OFFCURVE",
"293 -74 OFFCURVE",
"335 -87 CURVE",
"359 -56 OFFCURVE",
"373 -34 OFFCURVE",
"386 10 CURVE",
"361 43 OFFCURVE",
"303 77 OFFCURVE",
"262 86 CURVE",
"274 98 OFFCURVE",
"299 119 OFFCURVE",
"328 119 CURVE SMOOTH",
"368 119 OFFCURVE",
"386 96 OFFCURVE",
"404 69 CURVE SMOOTH",
"415 53 OFFCURVE",
"435 0 OFFCURVE",
"504 0 CURVE SMOOTH",
"543 0 LINE",
"543 139 LINE"
);
}
);
width = 543;
}
);
},
{
glyphname = uni066E06BA;
layers = (
{
anchors = (
{
name = bottom_1;
position = "{695, 0}";
},
{
name = bottom_2;
position = "{303, -230}";
},
{
name = caret_1;
position = "{428, 0}";
},
{
name = top_1;
position = "{613, 331}";
},
{
name = top_2;
position = "{300, 29}";
}
);
layerId = "0E844BAD-773F-41FF-B6D6-C35F1E5E991C";
name = Bold;
paths = (
{
closed = 1;
nodes = (
"740 312 LINE",
"733 263 OFFCURVE",
"700 221 OFFCURVE",
"645 221 CURVE SMOOTH",
"604 221 OFFCURVE",
"557 232 OFFCURVE",
"525 254 CURVE SMOOTH",
"496 274 OFFCURVE",
"481 297 OFFCURVE",
"481 297 CURVE",
"455 264 OFFCURVE",
"435 234 OFFCURVE",
"413 198 CURVE",
"462 134 OFFCURVE",
"497 76 OFFCURVE",
"497 41 CURVE SMOOTH",
"497 18 OFFCURVE",
"481 0 OFFCURVE",
"450 -16 CURVE SMOOTH",
"427 -28 OFFCURVE",
"382 -47 OFFCURVE",
"305 -47 CURVE SMOOTH",
"266 -47 OFFCURVE",
"235 -40 OFFCURVE",
"214 -33 CURVE SMOOTH",
"193 -26 OFFCURVE",
"171 -14 OFFCURVE",
"157 3 CURVE SMOOTH",
"129 37 OFFCURVE",
"132 84 OFFCURVE",
"142 138 CURVE",
"99 153 LINE",
"79 118 OFFCURVE",
"64 57 OFFCURVE",
"61 16 CURVE SMOOTH",
"58 -22 OFFCURVE",
"65 -57 OFFCURVE",
"75 -82 CURVE SMOOTH",
"90 -120 OFFCURVE",
"117 -149 OFFCURVE",
"157 -170 CURVE SMOOTH",
"197 -191 OFFCURVE",
"243 -200 OFFCURVE",
"293 -200 CURVE SMOOTH",
"347 -200 OFFCURVE",
"395 -191 OFFCURVE",
"435 -173 CURVE SMOOTH",
"491 -149 OFFCURVE",
"531 -108 OFFCURVE",
"553 -53 CURVE SMOOTH",
"571 -8 OFFCURVE",
"577 45 OFFCURVE",
"569 107 CURVE",
"592 99 OFFCURVE",
"607 96 OFFCURVE",
"638 94 CURVE SMOOTH",
"683 91 OFFCURVE",
"725 107 OFFCURVE",
"752 141 CURVE SMOOTH",
"790 189 OFFCURVE",
"805 260 OFFCURVE",
"791 331 CURVE"
);
}
);
width = 846;
}
);
},
{
glyphname = uni066E06BA.fina;
layers = (
{
anchors = (
{
name = bottom_1;
position = "{720, 0}";
},
{
name = bottom_2;
position = "{312, -230}";
},
{
name = caret_1;
position = "{498, 0}";
},
{
name = top_1;
position = "{636, 319}";
},
{
name = top_2;
position = "{305, 36}";
}
);
layerId = "0E844BAD-773F-41FF-B6D6-C35F1E5E991C";
name = Bold;
paths = (
{
closed = 1;
nodes = (
"911 139 LINE SMOOTH",
"841 139 OFFCURVE",
"813 178 OFFCURVE",
"812 242 CURVE SMOOTH",
"811 268 OFFCURVE",
"815 298 OFFCURVE",
"822 331 CURVE",
"771 312 LINE",
"766 292 OFFCURVE",
"754 261 OFFCURVE",
"716 241 CURVE SMOOTH",
"695 231 OFFCURVE",
"667 224 OFFCURVE",
"628 224 CURVE SMOOTH",
"588 224 OFFCURVE",
"557 238 OFFCURVE",
"534 254 CURVE SMOOTH",
"505 274 OFFCURVE",
"490 297 OFFCURVE",
"490 297 CURVE",
"464 264 OFFCURVE",
"444 234 OFFCURVE",
"422 198 CURVE",
"471 134 OFFCURVE",
"506 76 OFFCURVE",
"506 41 CURVE SMOOTH",
"506 -2 OFFCURVE",
"466 -26 OFFCURVE",
"407 -38 CURVE SMOOTH",
"377 -44 OFFCURVE",
"341 -47 OFFCURVE",
"304 -47 CURVE SMOOTH",
"265 -47 OFFCURVE",
"234 -40 OFFCURVE",
"213 -33 CURVE SMOOTH",
"192 -26 OFFCURVE",
"170 -14 OFFCURVE",
"156 3 CURVE SMOOTH",
"128 37 OFFCURVE",
"131 84 OFFCURVE",
"141 138 CURVE",
"98 153 LINE",
"78 118 OFFCURVE",
"63 57 OFFCURVE",
"60 16 CURVE SMOOTH",
"57 -22 OFFCURVE",
"64 -57 OFFCURVE",
"74 -82 CURVE SMOOTH",
"89 -120 OFFCURVE",
"116 -149 OFFCURVE",
"156 -170 CURVE SMOOTH",
"196 -191 OFFCURVE",
"242 -200 OFFCURVE",
"292 -200 CURVE SMOOTH",
"346 -200 OFFCURVE",
"394 -192 OFFCURVE",
"434 -175 CURVE SMOOTH",
"479 -157 OFFCURVE",
"515 -130 OFFCURVE",
"540 -94 CURVE SMOOTH",
"575 -44 OFFCURVE",
"588 23 OFFCURVE",
"577 103 CURVE",
"604 84 OFFCURVE",
"651 81 OFFCURVE",
"689 93 CURVE SMOOTH",
"724 103 OFFCURVE",
"755 125 OFFCURVE",
"767 159 CURVE",
"767 136 OFFCURVE",
"768 87 OFFCURVE",
"797 50 CURVE SMOOTH",
"818 22 OFFCURVE",
"854 0 OFFCURVE",
"917 0 CURVE SMOOTH",
"977 0 LINE",
"977 139 LINE"
);
}
);
width = 978;
}
);
},
{
glyphname = uni066E0649;
layers = (
{
anchors = (
{
name = bottom_1;
position = "{526, -315}";
},
{
name = bottom_2;
position = "{262, -311}";
},
{
name = caret_1;
position = "{344, 0}";
},
{
name = top_1;
position = "{362, 353}";
},
{
name = top_2;
position = "{233, 82}";
}
);
layerId = "0E844BAD-773F-41FF-B6D6-C35F1E5E991C";
name = Bold;
paths = (
{
closed = 1;
nodes = (
"579 222 OFFCURVE",
"544 285 OFFCURVE",
"468 354 CURVE",
"444 316 OFFCURVE",
"432 293 OFFCURVE",
"417 245 CURVE",
"459 212 OFFCURVE",
"492 181 OFFCURVE",
"508 148 CURVE",
"501 135 OFFCURVE",
"482 90 OFFCURVE",
"413 83 CURVE",
"406 82 OFFCURVE",
"401 82 OFFCURVE",
"392 82 CURVE",
"385 53 OFFCURVE",
"381 30 OFFCURVE",
"379 -1 CURVE",
"420 -4 OFFCURVE",
"458 -8 OFFCURVE",
"488 -16 CURVE SMOOTH",
"522 -25 OFFCURVE",
"542 -37 OFFCURVE",
"543 -49 CURVE",
"543 -75 OFFCURVE",
"495 -99 OFFCURVE",
"432 -113 CURVE SMOOTH",
"393 -122 OFFCURVE",
"347 -128 OFFCURVE",
"303 -128 CURVE SMOOTH",
"231 -128 OFFCURVE",
"186 -112 OFFCURVE",
"159 -80 CURVE SMOOTH",
"135 -51 OFFCURVE",
"129 -6 OFFCURVE",
"142 67 CURVE",
"99 82 LINE",
"84 46 OFFCURVE",
"71 11 OFFCURVE",
"64 -43 CURVE SMOOTH",
"58 -87 OFFCURVE",
"59 -125 OFFCURVE",
"75 -163 CURVE SMOOTH",
"90 -199 OFFCURVE",
"114 -227 OFFCURVE",
"154 -249 CURVE SMOOTH",
"192 -270 OFFCURVE",
"236 -281 OFFCURVE",
"290 -281 CURVE SMOOTH",
"356 -281 OFFCURVE",
"431 -265 OFFCURVE",
"488 -235 CURVE SMOOTH",
"541 -207 OFFCURVE",
"583 -169 OFFCURVE",
"606 -126 CURVE SMOOTH",
"623 -94 OFFCURVE",
"628 -63 OFFCURVE",
"628 -42 CURVE SMOOTH",
"628 7 OFFCURVE",
"601 46 OFFCURVE",
"550 59 CURVE",
"562 76 OFFCURVE",
"579 114 OFFCURVE",
"579 158 CURVE SMOOTH"
);
}
);
width = 678;
}
);
},
{
glyphname = uni066E0649.fina;
layers = (
{
anchors = (
{
name = bottom_1;
position = "{574, -262}";
},
{
name = bottom_2;
position = "{302, -313}";
},
{
name = caret_1;
position = "{403, 0}";
},
{
name = top_1;
position = "{521, 277}";
},
{
name = top_2;
position = "{236, 102}";
}
);
layerId = "0E844BAD-773F-41FF-B6D6-C35F1E5E991C";
name = Bold;
paths = (
{
closed = 1;
nodes = (
"795 139 LINE",
"709 140 LINE",
"654 140 OFFCURVE",
"629 173 OFFCURVE",
"604 202 CURVE SMOOTH",
"583 226 OFFCURVE",
"562 247 OFFCURVE",
"525 247 CURVE SMOOTH",
"489 247 OFFCURVE",
"459 226 OFFCURVE",
"428 178 CURVE SMOOTH",
"418 163 OFFCURVE",
"397 127 OFFCURVE",
"385 96 CURVE SMOOTH",
"372 63 OFFCURVE",
"363 22 OFFCURVE",
"376 -5 CURVE SMOOTH",
"385 -25 OFFCURVE",
"411 -43 OFFCURVE",
"450 -54 CURVE SMOOTH",
"476 -61 OFFCURVE",
"504 -65 OFFCURVE",
"524 -67 CURVE",
"524 -91 OFFCURVE",
"484 -109 OFFCURVE",
"434 -119 CURVE SMOOTH",
"396 -126 OFFCURVE",
"352 -130 OFFCURVE",
"315 -130 CURVE SMOOTH",
"275 -130 OFFCURVE",
"238 -126 OFFCURVE",
"208 -115 CURVE SMOOTH",
"151 -94 OFFCURVE",
"133 -53 OFFCURVE",
"133 -4 CURVE SMOOTH",
"133 16 OFFCURVE",
"136 43 OFFCURVE",
"142 66 CURVE",
"99 81 LINE",
"78 30 OFFCURVE",
"60 -32 OFFCURVE",
"60 -90 CURVE SMOOTH",
"60 -153 OFFCURVE",
"81 -196 OFFCURVE",
"117 -227 CURVE SMOOTH",
"158 -262 OFFCURVE",
"219 -283 OFFCURVE",
"292 -283 CURVE SMOOTH",
"342 -283 OFFCURVE",
"388 -277 OFFCURVE",
"429 -265 CURVE SMOOTH",
"482 -249 OFFCURVE",
"527 -222 OFFCURVE",
"558 -185 CURVE SMOOTH",
"589 -149 OFFCURVE",
"607 -101 OFFCURVE",
"607 -43 CURVE SMOOTH",
"607 0 OFFCURVE",
"577 21 OFFCURVE",
"532 25 CURVE SMOOTH",
"508 27 OFFCURVE",
"500 28 OFFCURVE",
"484 33 CURVE SMOOTH",
"465 39 OFFCURVE",
"454 51 OFFCURVE",
"454 68 CURVE SMOOTH",
"454 93 OFFCURVE",
"477 118 OFFCURVE",
"515 118 CURVE SMOOTH",
"565 118 OFFCURVE",
"594 82 OFFCURVE",
"622 51 CURVE SMOOTH",
"645 24 OFFCURVE",
"665 0 OFFCURVE",
"722 0 CURVE",
"795 0 LINE"
);
}
);
width = 795;
}
);
},
{
glyphname = uniFC18;
layers = (
{
anchors = (
{
name = bottom_1;
position = "{419, 0}";
},
{
name = bottom_2;
position = "{124, -428}";
},
{
name = caret_1;
position = "{362, 0}";
},
{
name = top_1;
position = "{354, 421}";
},
{
name = top_2;
position = "{71, 287}";
}
);
layerId = "0E844BAD-773F-41FF-B6D6-C35F1E5E991C";
name = Bold;
paths = (
{
closed = 1;
nodes = (
"586 300 OFFCURVE",
"508 321 OFFCURVE",
"441 358 CURVE SMOOTH",
"407 376 OFFCURVE",
"371 391 OFFCURVE",
"334 391 CURVE SMOOTH",
"313 391 OFFCURVE",
"293 386 OFFCURVE",
"274 377 CURVE SMOOTH",
"242 361 OFFCURVE",
"225 337 OFFCURVE",
"203 299 CURVE",
"227 266 LINE",
"248 284 OFFCURVE",
"261 294 OFFCURVE",
"294 294 CURVE SMOOTH",
"323 294 OFFCURVE",
"345 275 OFFCURVE",
"382 255 CURVE",
"337 251 OFFCURVE",
"303 245 OFFCURVE",
"270 233 CURVE SMOOTH",
"241 223 OFFCURVE",
"212 208 OFFCURVE",
"179 185 CURVE",
"171 177 OFFCURVE",
"157 162 OFFCURVE",
"149 138 CURVE",
"118 122 OFFCURVE",
"93 102 OFFCURVE",
"74 76 CURVE SMOOTH",
"47 41 OFFCURVE",
"36 -4 OFFCURVE",
"49 -58 CURVE SMOOTH",
"57 -96 OFFCURVE",
"69 -173 OFFCURVE",
"74 -218 CURVE SMOOTH",
"82 -294 OFFCURVE",
"88 -353 OFFCURVE",
"93 -411 CURVE",
"149 -389 LINE",
"152 -315 OFFCURVE",
"149 -205 OFFCURVE",
"143 -151 CURVE SMOOTH",
"139 -108 OFFCURVE",
"132 -56 OFFCURVE",
"123 9 CURVE",
"140 25 OFFCURVE",
"170 38 OFFCURVE",
"228 38 CURVE SMOOTH",
"267 38 OFFCURVE",
"289 30 OFFCURVE",
"337 14 CURVE",
"363 50 OFFCURVE",
"368 59 OFFCURVE",
"391 120 CURVE",
"364 142 OFFCURVE",
"321 165 OFFCURVE",
"296 175 CURVE",
"347 196 OFFCURVE",
"415 205 OFFCURVE",
"448 205 CURVE SMOOTH",
"540 205 OFFCURVE",
"599 185 OFFCURVE",
"599 185 CURVE",
"631 219 OFFCURVE",
"642 233 OFFCURVE",
"673 288 CURVE"
);
}
);
width = 723;
}
);
unicode = FC18;
},
{
glyphname = uniFCAA;
layers = (
{
anchors = (
{
name = bottom_1;
position = "{453, 139}";
},
{
name = bottom_2;
position = "{138, -33}";
},
{
name = caret_1;
position = "{329, 0}";
},
{
name = top_1;
position = "{318, 447}";
},
{
name = top_2;
position = "{47, 332}";
}
);
layerId = "0E844BAD-773F-41FF-B6D6-C35F1E5E991C";
name = Bold;
paths = (
{
closed = 1;
nodes = (
"520 325 OFFCURVE",
"437 353 OFFCURVE",
"375 386 CURVE SMOOTH",
"345 402 OFFCURVE",
"325 411 OFFCURVE",
"298 417 CURVE",
"265 423 OFFCURVE",
"236 419 OFFCURVE",
"209 406 CURVE SMOOTH",
"177 390 OFFCURVE",
"158 363 OFFCURVE",
"141 332 CURVE",
"163 293 LINE",
"178 323 OFFCURVE",
"199 331 OFFCURVE",
"223 331 CURVE SMOOTH",
"257 331 OFFCURVE",
"282 311 OFFCURVE",
"316 289 CURVE",
"275 286 OFFCURVE",
"247 279 OFFCURVE",
"215 262 CURVE SMOOTH",
"177 242 OFFCURVE",
"154 216 OFFCURVE",
"126 187 CURVE",
"102 164 OFFCURVE",
"79 139 OFFCURVE",
"46 139 CURVE SMOOTH",
"-11 139 LINE SMOOTH",
"-63 139 OFFCURVE",
"-80 88 OFFCURVE",
"-80 69 CURVE SMOOTH",
"-80 47 OFFCURVE",
"-64 0 OFFCURVE",
"-11 0 CURVE SMOOTH",
"19 0 LINE SMOOTH",
"58 0 OFFCURVE",
"86 15 OFFCURVE",
"102 45 CURVE",
"154 15 OFFCURVE",
"193 -5 OFFCURVE",
"251 -11 CURVE",
"286 18 OFFCURVE",
"307 57 OFFCURVE",
"308 98 CURVE SMOOTH",
"308 127 OFFCURVE",
"301 160 OFFCURVE",
"266 190 CURVE",
"292 220 OFFCURVE",
"330 231 OFFCURVE",
"373 235 CURVE SMOOTH",
"425 240 OFFCURVE",
"484 232 OFFCURVE",
"534 214 CURVE",
"570 254 OFFCURVE",
"583 275 OFFCURVE",
"608 317 CURVE"
);
},
{
closed = 1;
nodes = (
"215 95 OFFCURVE",
"179 105 OFFCURVE",
"138 134 CURVE",
"150 149 OFFCURVE",
"165 160 OFFCURVE",
"187 160 CURVE SMOOTH",
"243 160 OFFCURVE",
"256 101 OFFCURVE",
"256 87 CURVE"
);
}
);
width = 668;
}
);
unicode = FCAA;
},
{
glyphname = uni062D06450649;
layers = (
{
anchors = (
{
name = bottom_1;
position = "{957, 160}";
},
{
name = bottom_2;
position = "{726, -103}";
},
{
name = bottom_3;
position = "{308, -339}";
},
{
name = caret_1;
position = "{386, 0}";
},
{
name = caret_2;
position = "{772, 0}";
},
{
name = top_1;
position = "{765, 453}";
},
{
name = top_2;
position = "{476, 225}";
},
{
name = top_3;
position = "{246, 44}";
}
);
layerId = "0E844BAD-773F-41FF-B6D6-C35F1E5E991C";
name = Bold;
paths = (
{
closed = 1;
nodes = (
"1020 325 OFFCURVE",
"937 353 OFFCURVE",
"875 386 CURVE SMOOTH",
"845 402 OFFCURVE",
"825 411 OFFCURVE",
"798 417 CURVE",
"765 423 OFFCURVE",
"736 419 OFFCURVE",
"709 406 CURVE SMOOTH",
"677 390 OFFCURVE",
"658 363 OFFCURVE",
"641 332 CURVE",
"663 293 LINE",
"678 323 OFFCURVE",
"699 331 OFFCURVE",
"723 331 CURVE SMOOTH",
"757 331 OFFCURVE",
"782 311 OFFCURVE",
"816 289 CURVE",
"777 289 OFFCURVE",
"736 276 OFFCURVE",
"699 254 CURVE SMOOTH",
"660 231 OFFCURVE",
"626 199 OFFCURVE",
"602 160 CURVE SMOOTH",
"579 123 OFFCURVE",
"544 103 OFFCURVE",
"510 89 CURVE SMOOTH",
"468 71 OFFCURVE",
"424 66 OFFCURVE",
"392 65 CURVE",
"384 37 OFFCURVE",
"379 10 OFFCURVE",
"379 -29 CURVE",
"429 -33 OFFCURVE",
"461 -37 OFFCURVE",
"488 -44 CURVE SMOOTH",
"522 -53 OFFCURVE",
"542 -65 OFFCURVE",
"543 -77 CURVE",
"543 -107 OFFCURVE",
"483 -131 OFFCURVE",
"418 -145 CURVE SMOOTH",
"376 -153 OFFCURVE",
"332 -158 OFFCURVE",
"299 -158 CURVE SMOOTH",
"229 -158 OFFCURVE",
"184 -138 OFFCURVE",
"159 -108 CURVE SMOOTH",
"133 -77 OFFCURVE",
"128 -24 OFFCURVE",
"142 39 CURVE",
"99 54 LINE",
"75 -5 OFFCURVE",
"64 -54 OFFCURVE",
"61 -93 CURVE SMOOTH",
"58 -129 OFFCURVE",
"63 -162 OFFCURVE",
"75 -191 CURVE SMOOTH",
"91 -229 OFFCURVE",
"116 -257 OFFCURVE",
"155 -278 CURVE SMOOTH",
"192 -298 OFFCURVE",
"240 -309 OFFCURVE",
"288 -309 CURVE SMOOTH",
"338 -309 OFFCURVE",
"390 -301 OFFCURVE",
"436 -284 CURVE SMOOTH",
"484 -267 OFFCURVE",
"526 -241 OFFCURVE",
"556 -207 CURVE SMOOTH",
"586 -174 OFFCURVE",
"605 -132 OFFCURVE",
"605 -82 CURVE SMOOTH",
"605 -35 OFFCURVE",
"582 1 OFFCURVE",
"537 20 CURVE",
"561 27 OFFCURVE",
"590 45 OFFCURVE",
"603 56 CURVE",
"650 29 OFFCURVE",
"701 -2 OFFCURVE",
"751 -7 CURVE",
"786 22 OFFCURVE",
"807 57 OFFCURVE",
"808 98 CURVE SMOOTH",
"808 127 OFFCURVE",
"801 160 OFFCURVE",
"766 190 CURVE",
"792 220 OFFCURVE",
"830 231 OFFCURVE",
"873 235 CURVE SMOOTH",
"925 240 OFFCURVE",
"984 232 OFFCURVE",
"1034 214 CURVE",
"1070 254 OFFCURVE",
"1083 275 OFFCURVE",
"1108 317 CURVE"
);
},
{
closed = 1;
nodes = (
"715 95 OFFCURVE",
"679 105 OFFCURVE",
"638 134 CURVE",
"650 149 OFFCURVE",
"665 160 OFFCURVE",
"687 160 CURVE SMOOTH",
"743 160 OFFCURVE",
"756 101 OFFCURVE",
"756 87 CURVE"
);
}
);
width = 1168;
}
);
},
{
glyphname = uniFCFF;
layers = (
{
anchors = (
{
name = bottom_1;
position = "{785, 57}";
},
{
name = bottom_2;
position = "{314, -311}";
},
{
name = caret_1;
position = "{492, 0}";
},
{
name = top_1;
position = "{571, 363}";
},
{
name = top_2;
position = "{229, 92}";
}
);
layerId = "0E844BAD-773F-41FF-B6D6-C35F1E5E991C";
name = Bold;
paths = (
{
closed = 1;
nodes = (
"769 252 OFFCURVE",
"696 283 OFFCURVE",
"642 306 CURVE SMOOTH",
"610 320 OFFCURVE",
"583 332 OFFCURVE",
"552 332 CURVE SMOOTH",
"519 332 OFFCURVE",
"492 317 OFFCURVE",
"466 294 CURVE SMOOTH",
"441 271 OFFCURVE",
"430 240 OFFCURVE",
"413 192 CURVE",
"447 161 LINE",
"461 189 OFFCURVE",
"488 216 OFFCURVE",
"516 216 CURVE SMOOTH",
"532 218 OFFCURVE",
"556 214 OFFCURVE",
"582 207 CURVE SMOOTH",
"602 202 OFFCURVE",
"624 195 OFFCURVE",
"646 188 CURVE",
"603 173 OFFCURVE",
"564 157 OFFCURVE",
"533 142 CURVE SMOOTH",
"491 121 OFFCURVE",
"462 103 OFFCURVE",
"453 93 CURVE SMOOTH",
"432 72 OFFCURVE",
"427 59 OFFCURVE",
"418 2 CURVE",
"446 -3 OFFCURVE",
"455 -5 OFFCURVE",
"484 -12 CURVE SMOOTH",
"514 -21 OFFCURVE",
"543 -34 OFFCURVE",
"543 -49 CURVE SMOOTH",
"543 -81 OFFCURVE",
"488 -104 OFFCURVE",
"422 -116 CURVE SMOOTH",
"383 -124 OFFCURVE",
"340 -128 OFFCURVE",
"303 -128 CURVE SMOOTH",
"234 -128 OFFCURVE",
"185 -114 OFFCURVE",
"159 -80 CURVE SMOOTH",
"130 -44 OFFCURVE",
"129 10 OFFCURVE",
"142 67 CURVE",
"99 82 LINE",
"78 33 OFFCURVE",
"65 -13 OFFCURVE",
"61 -59 CURVE SMOOTH",
"58 -93 OFFCURVE",
"61 -129 OFFCURVE",
"75 -163 CURVE SMOOTH",
"90 -200 OFFCURVE",
"117 -229 OFFCURVE",
"154 -250 CURVE SMOOTH",
"192 -270 OFFCURVE",
"239 -281 OFFCURVE",
"294 -281 CURVE SMOOTH",
"348 -281 OFFCURVE",
"406 -270 OFFCURVE",
"458 -249 CURVE SMOOTH",
"522 -224 OFFCURVE",
"577 -183 OFFCURVE",
"606 -126 CURVE SMOOTH",
"622 -96 OFFCURVE",
"629 -66 OFFCURVE",
"630 -40 CURVE SMOOTH",
"630 12 OFFCURVE",
"603 39 OFFCURVE",
"546 60 CURVE",
"569 73 OFFCURVE",
"599 87 OFFCURVE",
"633 100 CURVE SMOOTH",
"686 119 OFFCURVE",
"749 134 OFFCURVE",
"809 134 CURVE SMOOTH",
"865 134 LINE",
"885 165 OFFCURVE",
"902 204 OFFCURVE",
"923 257 CURVE SMOOTH",
"917 257 OFFCURVE",
"911 256 OFFCURVE",
"905 256 CURVE SMOOTH"
);
}
);
width = 973;
}
);
unicode = FCFF;
},
{
glyphname = uniFD1B;
layers = (
{
anchors = (
{
name = bottom_1;
position = "{758, -29}";
},
{
name = bottom_2;
position = "{304, -311}";
},
{
name = caret_1;
position = "{514, 0}";
},
{
name = top_1;
position = "{572, 362}";
},
{
name = top_2;
position = "{233, 82}";
}
);
layerId = "0E844BAD-773F-41FF-B6D6-C35F1E5E991C";
name = Bold;
paths = (
{
closed = 1;
nodes = (
"891 139 LINE SMOOTH",
"874 139 OFFCURVE",
"829 139 OFFCURVE",
"817 160 CURVE",
"835 163 OFFCURVE",
"853 164 OFFCURVE",
"871 164 CURVE",
"887 193 OFFCURVE",
"899 218 OFFCURVE",
"912 257 CURVE",
"790 253 OFFCURVE",
"745 262 OFFCURVE",
"642 306 CURVE SMOOTH",
"610 320 OFFCURVE",
"583 332 OFFCURVE",
"552 332 CURVE SMOOTH",
"519 332 OFFCURVE",
"492 317 OFFCURVE",
"466 294 CURVE SMOOTH",
"441 271 OFFCURVE",
"430 240 OFFCURVE",
"413 192 CURVE",
"447 161 LINE",
"461 189 OFFCURVE",
"488 216 OFFCURVE",
"516 216 CURVE",
"532 218 OFFCURVE",
"556 214 OFFCURVE",
"582 207 CURVE SMOOTH",
"602 202 OFFCURVE",
"624 195 OFFCURVE",
"646 188 CURVE",
"603 173 OFFCURVE",
"564 157 OFFCURVE",
"533 142 CURVE SMOOTH",
"491 121 OFFCURVE",
"462 103 OFFCURVE",
"453 93 CURVE",
"432 72 OFFCURVE",
"427 59 OFFCURVE",
"418 2 CURVE",
"446 -3 OFFCURVE",
"455 -5 OFFCURVE",
"484 -12 CURVE",
"514 -21 OFFCURVE",
"543 -34 OFFCURVE",
"543 -49 CURVE SMOOTH",
"543 -74 OFFCURVE",
"503 -94 OFFCURVE",
"451 -108 CURVE SMOOTH",
"404 -121 OFFCURVE",
"348 -128 OFFCURVE",
"303 -128 CURVE SMOOTH",
"234 -128 OFFCURVE",
"185 -114 OFFCURVE",
"159 -80 CURVE SMOOTH",
"130 -44 OFFCURVE",
"129 10 OFFCURVE",
"142 67 CURVE",
"99 82 LINE",
"78 33 OFFCURVE",
"65 -13 OFFCURVE",
"61 -59 CURVE SMOOTH",
"58 -93 OFFCURVE",
"61 -129 OFFCURVE",
"75 -163 CURVE SMOOTH",
"90 -200 OFFCURVE",
"117 -229 OFFCURVE",
"154 -250 CURVE SMOOTH",
"192 -270 OFFCURVE",
"239 -281 OFFCURVE",
"294 -281 CURVE SMOOTH",
"362 -281 OFFCURVE",
"435 -265 OFFCURVE",
"496 -233 CURVE SMOOTH",
"543 -207 OFFCURVE",
"582 -172 OFFCURVE",
"606 -126 CURVE SMOOTH",
"621 -96 OFFCURVE",
"629 -66 OFFCURVE",
"630 -40 CURVE",
"630 12 OFFCURVE",
"603 39 OFFCURVE",
"546 60 CURVE",
"569 73 OFFCURVE",
"601 89 OFFCURVE",
"635 103 CURVE SMOOTH",
"671 119 OFFCURVE",
"710 132 OFFCURVE",
"741 137 CURVE",
"747 99 OFFCURVE",
"762 69 OFFCURVE",
"778 50 CURVE SMOOTH",
"806 17 OFFCURVE",
"848 0 OFFCURVE",
"904 0 CURVE SMOOTH",
"1027 0 LINE",
"1027 139 LINE"
);
}
);
width = 1027;
}
);
unicode = FD1B;
},
{
glyphname = uniFD0E;
layers = (
{
anchors = (
{
name = bottom_1;
position = "{477, -29}";
},
{
name = bottom_2;
position = "{24, -274}";
},
{
name = caret_1;
position = "{370, 0}";
},
{
name = top_1;
position = "{485, 286}";
},
{
name = top_2;
position = "{110, 198}";
}
);
layerId = "0E844BAD-773F-41FF-B6D6-C35F1E5E991C";
name = Bold;
paths = (
{
closed = 1;
nodes = (
"617 286 OFFCURVE",
"601 264 OFFCURVE",
"581 234 CURVE",
"630 165 LINE",
"623 149 OFFCURVE",
"606 135 OFFCURVE",
"576 135 CURVE SMOOTH",
"555 135 OFFCURVE",
"539 140 OFFCURVE",
"530 150 CURVE SMOOTH",
"517 164 OFFCURVE",
"515 186 OFFCURVE",
"516 205 CURVE SMOOTH",
"517 213 OFFCURVE",
"519 230 OFFCURVE",
"520 240 CURVE",
"469 221 LINE",
"468 213 OFFCURVE",
"467 205 OFFCURVE",
"466 197 CURVE",
"459 162 OFFCURVE",
"444 135 OFFCURVE",
"405 135 CURVE SMOOTH",
"367 135 OFFCURVE",
"354 159 OFFCURVE",
"351 184 CURVE",
"351 188 OFFCURVE",
"351 193 OFFCURVE",
"351 197 CURVE",
"303 178 OFFCURVE",
"219 157 OFFCURVE",
"136 139 CURVE SMOOTH",
"132 102 OFFCURVE",
"125 54 OFFCURVE",
"118 25 CURVE",
"130 28 OFFCURVE",
"148 31 OFFCURVE",
"155 33 CURVE",
"157 25 OFFCURVE",
"158 16 OFFCURVE",
"158 8 CURVE SMOOTH",
"158 -48 OFFCURVE",
"110 -82 OFFCURVE",
"30 -127 CURVE SMOOTH",
"-3 -145 OFFCURVE",
"15 -136 OFFCURVE",
"-120 -209 CURVE",
"-90 -252 LINE",
"-72 -245 OFFCURVE",
"-33 -241 OFFCURVE",
"-10 -241 CURVE SMOOTH",
"9 -241 OFFCURVE",
"20 -244 OFFCURVE",
"41 -244 CURVE SMOOTH",
"78 -244 OFFCURVE",
"107 -235 OFFCURVE",
"131 -218 CURVE SMOOTH",
"157 -200 OFFCURVE",
"175 -177 OFFCURVE",
"189 -153 CURVE SMOOTH",
"225 -91 OFFCURVE",
"238 -18 OFFCURVE",
"236 49 CURVE",
"269 56 OFFCURVE",
"287 60 OFFCURVE",
"307 65 CURVE",
"322 28 OFFCURVE",
"344 4 OFFCURVE",
"394 4 CURVE SMOOTH",
"456 4 OFFCURVE",
"481 41 OFFCURVE",
"487 53 CURVE",
"495 38 OFFCURVE",
"524 10 OFFCURVE",
"572 10 CURVE SMOOTH",
"616 10 OFFCURVE",
"652 34 OFFCURVE",
"675 77 CURVE SMOOTH",
"694 113 OFFCURVE",
"699 152 OFFCURVE",
"699 174 CURVE SMOOTH",
"699 212 OFFCURVE",
"685 269 OFFCURVE",
"641 312 CURVE"
);
}
);
width = 749;
}
);
unicode = FD0E;
},
{
glyphname = uniFD2A;
layers = (
{
anchors = (
{
name = bottom_1;
position = "{485, -29}";
},
{
name = bottom_2;
position = "{19, -271}";
},
{
name = caret_1;
position = "{377, 0}";
},
{
name = top_1;
position = "{491, 288}";
},
{
name = top_2;
position = "{115, 204}";
}
);
layerId = "0E844BAD-773F-41FF-B6D6-C35F1E5E991C";
name = Bold;
paths = (
{
closed = 1;
nodes = (
"721 140 LINE SMOOTH",
"697 140 OFFCURVE",
"681 145 OFFCURVE",
"672 155 CURVE",
"657 173 OFFCURVE",
"661 196 OFFCURVE",
"666 241 CURVE",
"615 222 LINE",
"615 173 OFFCURVE",
"598 136 OFFCURVE",
"558 136 CURVE SMOOTH",
"536 136 OFFCURVE",
"512 147 OFFCURVE",
"520 214 CURVE",
"520 217 OFFCURVE",
"523 241 OFFCURVE",
"523 241 CURVE",
"472 222 LINE",
"469 168 OFFCURVE",
"445 136 OFFCURVE",
"403 136 CURVE SMOOTH",
"378 136 OFFCURVE",
"362 148 OFFCURVE",
"355 168 CURVE SMOOTH",
"352 177 OFFCURVE",
"350 187 OFFCURVE",
"351 198 CURVE",
"303 179 OFFCURVE",
"219 157 OFFCURVE",
"136 139 CURVE",
"132 102 OFFCURVE",
"125 54 OFFCURVE",
"118 25 CURVE",
"130 28 OFFCURVE",
"148 31 OFFCURVE",
"155 33 CURVE",
"157 25 OFFCURVE",
"158 16 OFFCURVE",
"158 8 CURVE SMOOTH",
"158 -48 OFFCURVE",
"110 -82 OFFCURVE",
"30 -127 CURVE SMOOTH",
"-3 -145 OFFCURVE",
"15 -136 OFFCURVE",
"-120 -209 CURVE",
"-90 -252 LINE",
"-72 -245 OFFCURVE",
"-33 -241 OFFCURVE",
"-10 -241 CURVE SMOOTH",
"9 -241 OFFCURVE",
"20 -244 OFFCURVE",
"41 -244 CURVE SMOOTH",
"78 -244 OFFCURVE",
"107 -235 OFFCURVE",
"131 -218 CURVE SMOOTH",
"157 -200 OFFCURVE",
"175 -177 OFFCURVE",
"189 -153 CURVE SMOOTH",
"225 -91 OFFCURVE",
"238 -18 OFFCURVE",
"236 49 CURVE",
"257 54 OFFCURVE",
"287 61 OFFCURVE",
"307 66 CURVE",
"313 44 OFFCURVE",
"336 -1 OFFCURVE",
"394 -1 CURVE SMOOTH",
"443 -1 OFFCURVE",
"475 33 OFFCURVE",
"482 48 CURVE",
"489 28 OFFCURVE",
"506 -1 OFFCURVE",
"550 -1 CURVE SMOOTH",
"604 -1 OFFCURVE",
"624 40 OFFCURVE",
"628 49 CURVE",
"644 17 OFFCURVE",
"681 1 OFFCURVE",
"719 1 CURVE SMOOTH",
"764 1 LINE",
"764 140 LINE"
);
}
);
width = 764;
}
);
unicode = FD2A;
},
{
glyphname = uniFC1F;
layers = (
{
anchors = (
{
name = bottom_1;
position = "{607, -31}";
},
{
name = bottom_2;
position = "{123, -526}";
},
{
name = caret_1;
position = "{430, 0}";
},
{
name = top_1;
position = "{607, 298}";
},
{
name = top_2;
position = "{161, 224}";
}
);
layerId = "0E844BAD-773F-41FF-B6D6-C35F1E5E991C";
name = Bold;
paths = (
{
closed = 1;
nodes = (
"737 286 OFFCURVE",
"721 264 OFFCURVE",
"701 234 CURVE",
"750 165 LINE",
"738 145 OFFCURVE",
"726 135 OFFCURVE",
"697 135 CURVE SMOOTH",
"684 135 OFFCURVE",
"662 137 OFFCURVE",
"650 150 CURVE",
"638 162 OFFCURVE",
"635 184 OFFCURVE",
"636 204 CURVE",
"637 216 OFFCURVE",
"639 228 OFFCURVE",
"640 240 CURVE",
"589 221 LINE",
"589 217 OFFCURVE",
"589 193 OFFCURVE",
"581 174 CURVE SMOOTH",
"572 153 OFFCURVE",
"554 132 OFFCURVE",
"505 132 CURVE SMOOTH",
"468 132 OFFCURVE",
"447 143 OFFCURVE",
"410 180 CURVE SMOOTH",
"390 201 OFFCURVE",
"357 225 OFFCURVE",
"317 225 CURVE SMOOTH",
"259 225 OFFCURVE",
"214 174 OFFCURVE",
"197 150 CURVE SMOOTH",
"177 123 OFFCURVE",
"154 80 OFFCURVE",
"148 43 CURVE",
"109 21 OFFCURVE",
"84 -5 OFFCURVE",
"66 -38 CURVE SMOOTH",
"50 -70 OFFCURVE",
"40 -111 OFFCURVE",
"47 -154 CURVE SMOOTH",
"75 -332 OFFCURVE",
"87 -425 OFFCURVE",
"94 -508 CURVE",
"156 -482 LINE",
"156 -482 OFFCURVE",
"153 -368 OFFCURVE",
"146 -282 CURVE SMOOTH",
"141 -222 OFFCURVE",
"132 -149 OFFCURVE",
"123 -87 CURVE",
"135 -77 OFFCURVE",
"163 -57 OFFCURVE",
"221 -57 CURVE SMOOTH",
"257 -57 OFFCURVE",
"275 -66 OFFCURVE",
"315 -81 CURVE",
"339 -50 OFFCURVE",
"353 -28 OFFCURVE",
"366 16 CURVE",
"345 47 OFFCURVE",
"288 77 OFFCURVE",
"247 86 CURVE",
"258 95 OFFCURVE",
"281 117 OFFCURVE",
"322 117 CURVE",
"365 117 OFFCURVE",
"391 86 OFFCURVE",
"414 57 CURVE SMOOTH",
"435 30 OFFCURVE",
"461 0 OFFCURVE",
"516 0 CURVE SMOOTH",
"574 0 OFFCURVE",
"601 41 OFFCURVE",
"607 53 CURVE",
"615 38 OFFCURVE",
"644 10 OFFCURVE",
"692 10 CURVE SMOOTH",
"736 10 OFFCURVE",
"772 34 OFFCURVE",
"795 77 CURVE SMOOTH",
"815 115 OFFCURVE",
"819 154 OFFCURVE",
"819 176 CURVE SMOOTH",
"819 218 OFFCURVE",
"804 267 OFFCURVE",
"761 312 CURVE"
);
}
);
width = 869;
}
);
unicode = FC1F;
},
{
glyphname = uniFCB0;
layers = (
{
anchors = (
{
name = bottom_1;
position = "{483, 70}";
},
{
name = bottom_2;
position = "{174, -49}";
},
{
name = caret_1;
position = "{367, 0}";
},
{
name = top_1;
position = "{481, 401}";
},
{
name = top_2;
position = "{120, 339}";
}
);
layerId = "0E844BAD-773F-41FF-B6D6-C35F1E5E991C";
name = Bold;
paths = (
{
closed = 1;
nodes = (
"611 399 OFFCURVE",
"595 377 OFFCURVE",
"575 347 CURVE",
"624 278 LINE",
"612 258 OFFCURVE",
"600 248 OFFCURVE",
"571 248 CURVE SMOOTH",
"558 248 OFFCURVE",
"536 250 OFFCURVE",
"524 263 CURVE",
"512 275 OFFCURVE",
"509 297 OFFCURVE",
"510 317 CURVE",
"511 326 OFFCURVE",
"513 343 OFFCURVE",
"514 353 CURVE",
"463 334 LINE",
"463 326 OFFCURVE",
"462 319 OFFCURVE",
"461 312 CURVE SMOOTH",
"454 275 OFFCURVE",
"433 246 OFFCURVE",
"395 246 CURVE SMOOTH",
"358 246 OFFCURVE",
"343 266 OFFCURVE",
"327 286 CURVE SMOOTH",
"310 309 OFFCURVE",
"293 332 OFFCURVE",
"246 332 CURVE SMOOTH",
"227 332 OFFCURVE",
"206 326 OFFCURVE",
"185 314 CURVE SMOOTH",
"163 301 OFFCURVE",
"140 279 OFFCURVE",
"125 258 CURVE SMOOTH",
"115 244 OFFCURVE",
"102 221 OFFCURVE",
"96 205 CURVE SMOOTH",
"89 186 OFFCURVE",
"85 161 OFFCURVE",
"86 137 CURVE",
"76 135 OFFCURVE",
"34 138 OFFCURVE",
"19 139 CURVE",
"-10 139 LINE SMOOTH",
"-45 139 OFFCURVE",
"-80 116 OFFCURVE",
"-80 70 CURVE SMOOTH",
"-80 26 OFFCURVE",
"-48 0 OFFCURVE",
"-10 0 CURVE SMOOTH",
"15 0 LINE SMOOTH",
"63 0 OFFCURVE",
"100 10 OFFCURVE",
"139 10 CURVE SMOOTH",
"167 10 OFFCURVE",
"204 1 OFFCURVE",
"253 -27 CURVE",
"273 32 OFFCURVE",
"278 76 OFFCURVE",
"278 123 CURVE",
"219 138 OFFCURVE",
"168 155 OFFCURVE",
"168 184 CURVE SMOOTH",
"168 206 OFFCURVE",
"199 236 OFFCURVE",
"240 236 CURVE SMOOTH",
"280 236 OFFCURVE",
"300 208 OFFCURVE",
"319 180 CURVE SMOOTH",
"339 149 OFFCURVE",
"359 117 OFFCURVE",
"403 117 CURVE SMOOTH",
"455 117 OFFCURVE",
"473 151 OFFCURVE",
"481 166 CURVE",
"489 151 OFFCURVE",
"518 123 OFFCURVE",
"566 123 CURVE SMOOTH",
"610 123 OFFCURVE",
"646 147 OFFCURVE",
"669 190 CURVE SMOOTH",
"689 228 OFFCURVE",
"693 267 OFFCURVE",
"693 289 CURVE SMOOTH",
"693 331 OFFCURVE",
"678 380 OFFCURVE",
"635 425 CURVE"
);
}
);
width = 743;
}
);
unicode = FCB0;
},
{
glyphname = uniFCFB;
layers = (
{
anchors = (
{
name = bottom_1;
position = "{805, -29}";
},
{
name = bottom_2;
position = "{304, -312}";
},
{
name = caret_1;
position = "{537, 0}";
},
{
name = top_1;
position = "{803, 286}";
},
{
name = top_2;
position = "{235, 89}";
}
);
layerId = "0E844BAD-773F-41FF-B6D6-C35F1E5E991C";
name = Bold;
paths = (
{
closed = 1;
nodes = (
"941 286 OFFCURVE",
"925 264 OFFCURVE",
"905 234 CURVE",
"954 165 LINE",
"942 145 OFFCURVE",
"930 135 OFFCURVE",
"901 135 CURVE SMOOTH",
"888 135 OFFCURVE",
"866 137 OFFCURVE",
"854 150 CURVE SMOOTH",
"842 162 OFFCURVE",
"839 184 OFFCURVE",
"840 204 CURVE SMOOTH",
"841 213 OFFCURVE",
"843 230 OFFCURVE",
"844 240 CURVE",
"793 221 LINE",
"793 217 OFFCURVE",
"793 193 OFFCURVE",
"785 174 CURVE SMOOTH",
"776 153 OFFCURVE",
"758 132 OFFCURVE",
"709 132 CURVE SMOOTH",
"663 132 OFFCURVE",
"640 153 OFFCURVE",
"621 176 CURVE SMOOTH",
"596 209 OFFCURVE",
"579 247 OFFCURVE",
"525 247 CURVE SMOOTH",
"489 247 OFFCURVE",
"459 226 OFFCURVE",
"428 178 CURVE SMOOTH",
"417 161 OFFCURVE",
"397 127 OFFCURVE",
"385 96 CURVE SMOOTH",
"372 63 OFFCURVE",
"363 22 OFFCURVE",
"376 -5 CURVE SMOOTH",
"386 -26 OFFCURVE",
"411 -43 OFFCURVE",
"450 -54 CURVE SMOOTH",
"471 -60 OFFCURVE",
"504 -65 OFFCURVE",
"524 -67 CURVE",
"524 -98 OFFCURVE",
"469 -116 OFFCURVE",
"408 -124 CURVE SMOOTH",
"377 -128 OFFCURVE",
"343 -130 OFFCURVE",
"315 -130 CURVE SMOOTH",
"275 -130 OFFCURVE",
"238 -126 OFFCURVE",
"208 -115 CURVE SMOOTH",
"151 -94 OFFCURVE",
"133 -53 OFFCURVE",
"133 -4 CURVE SMOOTH",
"133 16 OFFCURVE",
"136 43 OFFCURVE",
"142 66 CURVE",
"99 81 LINE",
"78 30 OFFCURVE",
"60 -33 OFFCURVE",
"60 -89 CURVE SMOOTH",
"60 -149 OFFCURVE",
"80 -196 OFFCURVE",
"117 -228 CURVE SMOOTH",
"157 -263 OFFCURVE",
"218 -282 OFFCURVE",
"294 -282 CURVE SMOOTH",
"403 -282 OFFCURVE",
"469 -257 OFFCURVE",
"530 -209 CURVE SMOOTH",
"557 -188 OFFCURVE",
"577 -163 OFFCURVE",
"591 -137 CURVE SMOOTH",
"607 -107 OFFCURVE",
"617 -77 OFFCURVE",
"617 -46 CURVE SMOOTH",
"617 4 OFFCURVE",
"585 21 OFFCURVE",
"540 25 CURVE SMOOTH",
"516 27 OFFCURVE",
"500 28 OFFCURVE",
"484 33 CURVE SMOOTH",
"465 39 OFFCURVE",
"454 51 OFFCURVE",
"454 68 CURVE SMOOTH",
"454 93 OFFCURVE",
"478 120 OFFCURVE",
"513 120 CURVE SMOOTH",
"571 120 OFFCURVE",
"598 91 OFFCURVE",
"624 62 CURVE SMOOTH",
"649 33 OFFCURVE",
"672 4 OFFCURVE",
"720 4 CURVE SMOOTH",
"778 4 OFFCURVE",
"805 41 OFFCURVE",
"811 53 CURVE",
"819 38 OFFCURVE",
"848 10 OFFCURVE",
"896 10 CURVE SMOOTH",
"940 10 OFFCURVE",
"976 34 OFFCURVE",
"999 77 CURVE SMOOTH",
"1019 115 OFFCURVE",
"1023 154 OFFCURVE",
"1023 176 CURVE SMOOTH",
"1023 218 OFFCURVE",
"1008 267 OFFCURVE",
"965 312 CURVE"
);
}
);
width = 1073;
}
);
unicode = FCFB;
},
{
glyphname = uniFD17;
layers = (
{
anchors = (
{
name = bottom_1;
position = "{805, -29}";
},
{
name = bottom_2;
position = "{304, -312}";
},
{
name = caret_1;
position = "{543, 0}";
},
{
name = top_1;
position = "{808, 280}";
},
{
name = top_2;
position = "{228, 92}";
}
);
layerId = "0E844BAD-773F-41FF-B6D6-C35F1E5E991C";
name = Bold;
paths = (
{
closed = 1;
nodes = (
"1042 139 LINE SMOOTH",
"1018 139 OFFCURVE",
"1002 144 OFFCURVE",
"993 154 CURVE",
"978 172 OFFCURVE",
"982 195 OFFCURVE",
"987 240 CURVE",
"936 221 LINE",
"936 196 OFFCURVE",
"932 175 OFFCURVE",
"922 159 CURVE SMOOTH",
"912 143 OFFCURVE",
"898 135 OFFCURVE",
"879 135 CURVE SMOOTH",
"849 135 OFFCURVE",
"841 154 OFFCURVE",
"839 184 CURVE SMOOTH",
"838 201 OFFCURVE",
"840 219 OFFCURVE",
"844 240 CURVE",
"793 221 LINE",
"791 200 OFFCURVE",
"787 182 OFFCURVE",
"776 166 CURVE SMOOTH",
"764 148 OFFCURVE",
"745 138 OFFCURVE",
"709 138 CURVE SMOOTH",
"660 138 OFFCURVE",
"636 162 OFFCURVE",
"614 188 CURVE SMOOTH",
"591 217 OFFCURVE",
"571 247 OFFCURVE",
"525 247 CURVE SMOOTH",
"489 247 OFFCURVE",
"459 226 OFFCURVE",
"428 178 CURVE SMOOTH",
"417 161 OFFCURVE",
"397 127 OFFCURVE",
"385 96 CURVE SMOOTH",
"370 58 OFFCURVE",
"365 24 OFFCURVE",
"377 -3 CURVE SMOOTH",
"387 -26 OFFCURVE",
"410 -44 OFFCURVE",
"450 -54 CURVE SMOOTH",
"471 -59 OFFCURVE",
"504 -65 OFFCURVE",
"524 -67 CURVE",
"524 -93 OFFCURVE",
"478 -110 OFFCURVE",
"423 -120 CURVE SMOOTH",
"387 -127 OFFCURVE",
"347 -130 OFFCURVE",
"315 -130 CURVE SMOOTH",
"275 -130 OFFCURVE",
"238 -126 OFFCURVE",
"208 -115 CURVE SMOOTH",
"151 -94 OFFCURVE",
"133 -53 OFFCURVE",
"133 -4 CURVE SMOOTH",
"133 26 OFFCURVE",
"136 43 OFFCURVE",
"142 66 CURVE",
"99 81 LINE",
"78 30 OFFCURVE",
"60 -33 OFFCURVE",
"60 -89 CURVE SMOOTH",
"60 -149 OFFCURVE",
"80 -196 OFFCURVE",
"117 -228 CURVE SMOOTH",
"157 -263 OFFCURVE",
"218 -282 OFFCURVE",
"294 -282 CURVE SMOOTH",
"390 -282 OFFCURVE",
"469 -257 OFFCURVE",
"530 -209 CURVE SMOOTH",
"557 -188 OFFCURVE",
"577 -163 OFFCURVE",
"591 -137 CURVE SMOOTH",
"607 -107 OFFCURVE",
"617 -79 OFFCURVE",
"617 -48 CURVE SMOOTH",
"617 2 OFFCURVE",
"585 21 OFFCURVE",
"540 25 CURVE SMOOTH",
"516 27 OFFCURVE",
"500 28 OFFCURVE",
"484 33 CURVE SMOOTH",
"465 39 OFFCURVE",
"454 51 OFFCURVE",
"454 68 CURVE SMOOTH",
"454 93 OFFCURVE",
"478 116 OFFCURVE",
"512 116 CURVE SMOOTH",
"546 116 OFFCURVE",
"566 106 OFFCURVE",
"584 92 CURVE SMOOTH",
"602 77 OFFCURVE",
"617 56 OFFCURVE",
"640 35 CURVE SMOOTH",
"661 17 OFFCURVE",
"685 4 OFFCURVE",
"720 4 CURVE SMOOTH",
"766 4 OFFCURVE",
"793 27 OFFCURVE",
"805 43 CURVE",
"812 25 OFFCURVE",
"829 0 OFFCURVE",
"871 0 CURVE SMOOTH",
"922 0 OFFCURVE",
"943 35 OFFCURVE",
"949 48 CURVE",
"965 16 OFFCURVE",
"1002 0 OFFCURVE",
"1040 0 CURVE SMOOTH",
"1085 0 LINE",
"1085 139 LINE"
);
}
);
width = 1085;
}
);
unicode = FD17;
},
{
glyphname = uni063306450649;
layers = (
{
anchors = (
{
name = bottom_1;
position = "{1045, 74}";
},
{
name = bottom_2;
position = "{763, -67}";
},
{
name = bottom_3;
position = "{314, -311}";
},
{
name = caret_1;
position = "{428, 0}";
},
{
name = caret_2;
position = "{855, 0}";
},
{
name = top_1;
position = "{1013, 374}";
},
{
name = top_2;
position = "{716, 372}";
},
{
name = top_3;
position = "{282, 46}";
}
);
layerId = "0E844BAD-773F-41FF-B6D6-C35F1E5E991C";
name = Bold;
paths = (
{
closed = 1;
nodes = (
"1161 399 OFFCURVE",
"1145 377 OFFCURVE",
"1125 347 CURVE",
"1174 278 LINE",
"1162 258 OFFCURVE",
"1150 248 OFFCURVE",
"1121 248 CURVE SMOOTH",
"1108 248 OFFCURVE",
"1086 250 OFFCURVE",
"1074 263 CURVE",
"1062 275 OFFCURVE",
"1059 297 OFFCURVE",
"1060 317 CURVE",
"1061 329 OFFCURVE",
"1063 341 OFFCURVE",
"1064 353 CURVE",
"1013 334 LINE",
"1013 326 OFFCURVE",
"1012 319 OFFCURVE",
"1011 312 CURVE",
"1004 275 OFFCURVE",
"983 246 OFFCURVE",
"945 246 CURVE SMOOTH",
"905 246 OFFCURVE",
"892 275 OFFCURVE",
"872 300 CURVE SMOOTH",
"858 317 OFFCURVE",
"840 332 OFFCURVE",
"806 332 CURVE SMOOTH",
"787 332 OFFCURVE",
"766 326 OFFCURVE",
"745 314 CURVE SMOOTH",
"723 301 OFFCURVE",
"700 279 OFFCURVE",
"685 258 CURVE SMOOTH",
"675 244 OFFCURVE",
"662 221 OFFCURVE",
"656 205 CURVE SMOOTH",
"649 186 OFFCURVE",
"645 162 OFFCURVE",
"646 138 CURVE",
"566 139 OFFCURVE",
"498 129 OFFCURVE",
"453 93 CURVE",
"432 72 OFFCURVE",
"427 59 OFFCURVE",
"418 2 CURVE",
"446 -3 OFFCURVE",
"455 -5 OFFCURVE",
"484 -12 CURVE",
"514 -21 OFFCURVE",
"543 -34 OFFCURVE",
"543 -49 CURVE SMOOTH",
"543 -77 OFFCURVE",
"498 -99 OFFCURVE",
"438 -113 CURVE SMOOTH",
"396 -123 OFFCURVE",
"348 -128 OFFCURVE",
"303 -128 CURVE SMOOTH",
"234 -128 OFFCURVE",
"185 -114 OFFCURVE",
"159 -80 CURVE SMOOTH",
"130 -44 OFFCURVE",
"129 10 OFFCURVE",
"142 67 CURVE",
"99 82 LINE",
"78 33 OFFCURVE",
"65 -13 OFFCURVE",
"61 -59 CURVE SMOOTH",
"58 -93 OFFCURVE",
"61 -129 OFFCURVE",
"75 -163 CURVE SMOOTH",
"90 -200 OFFCURVE",
"117 -229 OFFCURVE",
"154 -250 CURVE SMOOTH",
"192 -270 OFFCURVE",
"239 -281 OFFCURVE",
"294 -281 CURVE SMOOTH",
"357 -281 OFFCURVE",
"416 -270 OFFCURVE",
"466 -249 CURVE SMOOTH",
"528 -222 OFFCURVE",
"577 -181 OFFCURVE",
"606 -126 CURVE SMOOTH",
"621 -96 OFFCURVE",
"629 -66 OFFCURVE",
"630 -40 CURVE",
"630 3 OFFCURVE",
"611 29 OFFCURVE",
"572 49 CURVE",
"639 49 OFFCURVE",
"730 22 OFFCURVE",
"803 -27 CURVE",
"823 32 OFFCURVE",
"828 79 OFFCURVE",
"828 126 CURVE",
"769 141 OFFCURVE",
"718 155 OFFCURVE",
"718 184 CURVE SMOOTH",
"718 206 OFFCURVE",
"749 236 OFFCURVE",
"790 236 CURVE SMOOTH",
"824 236 OFFCURVE",
"843 216 OFFCURVE",
"860 192 CURVE SMOOTH",
"884 158 OFFCURVE",
"903 117 OFFCURVE",
"953 117 CURVE SMOOTH",
"1005 117 OFFCURVE",
"1023 151 OFFCURVE",
"1031 166 CURVE",
"1039 151 OFFCURVE",
"1068 123 OFFCURVE",
"1116 123 CURVE SMOOTH",
"1160 123 OFFCURVE",
"1196 147 OFFCURVE",
"1219 190 CURVE SMOOTH",
"1239 228 OFFCURVE",
"1243 267 OFFCURVE",
"1243 289 CURVE SMOOTH",
"1243 331 OFFCURVE",
"1228 380 OFFCURVE",
"1185 425 CURVE"
);
}
);
width = 1293;
}
);
},
{
glyphname = uniFD0F;
layers = (
{
anchors = (
{
name = bottom_1;
position = "{539, -29}";
},
{
name = bottom_2;
position = "{19, -271}";
},
{
name = caret_1;
position = "{414, 0}";
},
{
name = top_1;
position = "{647, 392}";
},
{
name = top_2;
position = "{101, 193}";
}
);
layerId = "0E844BAD-773F-41FF-B6D6-C35F1E5E991C";
name = Bold;
paths = (
{
closed = 1;
nodes = (
"787 283 OFFCURVE",
"769 313 OFFCURVE",
"743 333 CURVE SMOOTH",
"717 353 OFFCURVE",
"685 364 OFFCURVE",
"657 364 CURVE SMOOTH",
"598 364 OFFCURVE",
"534 315 OFFCURVE",
"476 253 CURVE SMOOTH",
"430 204 OFFCURVE",
"402 161 OFFCURVE",
"389 141 CURVE",
"358 144 OFFCURVE",
"349 164 OFFCURVE",
"351 199 CURVE",
"303 180 OFFCURVE",
"219 157 OFFCURVE",
"136 139 CURVE",
"132 102 OFFCURVE",
"125 54 OFFCURVE",
"118 25 CURVE",
"130 28 OFFCURVE",
"148 31 OFFCURVE",
"155 33 CURVE",
"157 25 OFFCURVE",
"158 16 OFFCURVE",
"158 8 CURVE SMOOTH",
"158 -48 OFFCURVE",
"110 -82 OFFCURVE",
"30 -127 CURVE SMOOTH",
"-3 -145 OFFCURVE",
"15 -136 OFFCURVE",
"-120 -209 CURVE",
"-90 -252 LINE",
"-72 -245 OFFCURVE",
"-33 -241 OFFCURVE",
"-10 -241 CURVE SMOOTH",
"9 -241 OFFCURVE",
"20 -244 OFFCURVE",
"41 -244 CURVE SMOOTH",
"78 -244 OFFCURVE",
"107 -235 OFFCURVE",
"131 -218 CURVE SMOOTH",
"157 -200 OFFCURVE",
"175 -177 OFFCURVE",
"189 -153 CURVE SMOOTH",
"225 -91 OFFCURVE",
"238 -18 OFFCURVE",
"236 49 CURVE",
"257 54 OFFCURVE",
"296 65 OFFCURVE",
"316 70 CURVE",
"320 56 OFFCURVE",
"329 37 OFFCURVE",
"350 25 CURVE",
"340 -15 LINE",
"400 -15 LINE",
"407 10 LINE",
"428 5 OFFCURVE",
"461 6 OFFCURVE",
"486 6 CURVE SMOOTH",
"554 6 OFFCURVE",
"628 34 OFFCURVE",
"686 78 CURVE SMOOTH",
"717 101 OFFCURVE",
"741 128 OFFCURVE",
"758 157 CURVE SMOOTH",
"779 192 OFFCURVE",
"787 223 OFFCURVE",
"787 247 CURVE SMOOTH"
);
},
{
closed = 1;
nodes = (
"682 182 OFFCURVE",
"670 172 OFFCURVE",
"646 161 CURVE SMOOTH",
"618 148 OFFCURVE",
"586 141 OFFCURVE",
"551 141 CURVE SMOOTH",
"462 141 LINE",
"464 143 OFFCURVE",
"486 173 OFFCURVE",
"506 195 CURVE SMOOTH",
"532 223 OFFCURVE",
"571 251 OFFCURVE",
"614 251 CURVE SMOOTH",
"639 251 OFFCURVE",
"657 242 OFFCURVE",
"667 233 CURVE SMOOTH",
"682 220 OFFCURVE",
"691 196 OFFCURVE",
"692 193 CURVE"
);
}
);
width = 837;
}
);
unicode = FD0F;
},
{
glyphname = uniFD2B;
layers = (
{
anchors = (
{
name = bottom_1;
position = "{565, -29}";
},
{
name = bottom_2;
position = "{29, -271}";
},
{
name = caret_1;
position = "{428, 0}";
},
{
name = top_1;
position = "{638, 391}";
},
{
name = top_2;
position = "{119, 202}";
}
);
layerId = "0E844BAD-773F-41FF-B6D6-C35F1E5E991C";
name = Bold;
paths = (
{
closed = 1;
nodes = (
"798 139 LINE SMOOTH",
"782 139 OFFCURVE",
"761 137 OFFCURVE",
"741 130 CURVE",
"747 138 OFFCURVE",
"753 146 OFFCURVE",
"758 154 CURVE SMOOTH",
"775 181 OFFCURVE",
"787 220 OFFCURVE",
"787 247 CURVE SMOOTH",
"787 279 OFFCURVE",
"769 310 OFFCURVE",
"743 331 CURVE SMOOTH",
"718 351 OFFCURVE",
"686 361 OFFCURVE",
"658 361 CURVE SMOOTH",
"629 361 OFFCURVE",
"599 351 OFFCURVE",
"563 328 CURVE SMOOTH",
"532 308 OFFCURVE",
"501 279 OFFCURVE",
"476 252 CURVE SMOOTH",
"430 202 OFFCURVE",
"399 155 OFFCURVE",
"388 139 CURVE",
"356 142 OFFCURVE",
"349 163 OFFCURVE",
"351 197 CURVE",
"303 178 OFFCURVE",
"219 157 OFFCURVE",
"136 139 CURVE",
"132 102 OFFCURVE",
"125 54 OFFCURVE",
"118 25 CURVE",
"130 28 OFFCURVE",
"148 31 OFFCURVE",
"155 33 CURVE",
"157 25 OFFCURVE",
"158 16 OFFCURVE",
"158 8 CURVE SMOOTH",
"158 -48 OFFCURVE",
"110 -82 OFFCURVE",
"30 -127 CURVE SMOOTH",
"-3 -145 OFFCURVE",
"15 -136 OFFCURVE",
"-120 -209 CURVE",
"-90 -252 LINE",
"-72 -245 OFFCURVE",
"-33 -241 OFFCURVE",
"-10 -241 CURVE SMOOTH",
"9 -241 OFFCURVE",
"20 -244 OFFCURVE",
"41 -244 CURVE SMOOTH",
"78 -244 OFFCURVE",
"107 -235 OFFCURVE",
"131 -218 CURVE SMOOTH",
"157 -200 OFFCURVE",
"175 -177 OFFCURVE",
"189 -153 CURVE SMOOTH",
"225 -91 OFFCURVE",
"238 -18 OFFCURVE",
"236 49 CURVE",
"257 54 OFFCURVE",
"296 63 OFFCURVE",
"316 68 CURVE",
"320 54 OFFCURVE",
"329 35 OFFCURVE",
"350 23 CURVE",
"340 -17 LINE",
"400 -17 LINE",
"407 8 LINE",
"430 4 OFFCURVE",
"452 4 OFFCURVE",
"478 4 CURVE SMOOTH",
"537 4 OFFCURVE",
"596 4 OFFCURVE",
"655 4 CURVE SMOOTH",
"693 4 OFFCURVE",
"766 0 OFFCURVE",
"786 0 CURVE SMOOTH",
"906 0 LINE",
"906 139 LINE"
);
},
{
closed = 1;
nodes = (
"682 180 OFFCURVE",
"670 170 OFFCURVE",
"646 159 CURVE SMOOTH",
"618 146 OFFCURVE",
"586 139 OFFCURVE",
"551 139 CURVE SMOOTH",
"462 139 LINE",
"464 141 OFFCURVE",
"486 171 OFFCURVE",
"506 193 CURVE SMOOTH",
"532 221 OFFCURVE",
"571 249 OFFCURVE",
"615 249 CURVE SMOOTH",
"669 249 OFFCURVE",
"687 206 OFFCURVE",
"692 191 CURVE"
);
}
);
width = 906;
}
);
unicode = FD2B;
},
{
glyphname = uniFC21;
layers = (
{
anchors = (
{
name = bottom_1;
position = "{619, -29}";
},
{
name = bottom_2;
position = "{144, -526}";
},
{
name = caret_1;
position = "{460, 0}";
},
{
name = top_1;
position = "{714, 392}";
},
{
name = top_2;
position = "{200, 246}";
}
);
layerId = "0E844BAD-773F-41FF-B6D6-C35F1E5E991C";
name = Bold;
paths = (
{
closed = 1;
nodes = (
"864 279 OFFCURVE",
"848 309 OFFCURVE",
"820 331 CURVE SMOOTH",
"794 351 OFFCURVE",
"762 362 OFFCURVE",
"734 362 CURVE SMOOTH",
"674 362 OFFCURVE",
"609 311 OFFCURVE",
"553 251 CURVE SMOOTH",
"526 222 OFFCURVE",
"498 188 OFFCURVE",
"464 139 CURVE",
"452 146 OFFCURVE",
"443 164 OFFCURVE",
"421 186 CURVE SMOOTH",
"393 214 OFFCURVE",
"366 221 OFFCURVE",
"337 220 CURVE SMOOTH",
"315 220 OFFCURVE",
"292 213 OFFCURVE",
"271 201 CURVE SMOOTH",
"248 188 OFFCURVE",
"226 166 OFFCURVE",
"211 145 CURVE SMOOTH",
"201 131 OFFCURVE",
"189 112 OFFCURVE",
"181 92 CURVE SMOOTH",
"173 75 OFFCURVE",
"167 56 OFFCURVE",
"166 42 CURVE",
"130 23 OFFCURVE",
"99 -6 OFFCURVE",
"81 -38 CURVE SMOOTH",
"65 -70 OFFCURVE",
"55 -111 OFFCURVE",
"62 -154 CURVE SMOOTH",
"90 -332 OFFCURVE",
"102 -424 OFFCURVE",
"109 -508 CURVE",
"171 -482 LINE",
"168 -421 OFFCURVE",
"163 -314 OFFCURVE",
"161 -282 CURVE SMOOTH",
"155 -222 OFFCURVE",
"147 -149 OFFCURVE",
"138 -87 CURVE",
"150 -77 OFFCURVE",
"181 -64 OFFCURVE",
"239 -64 CURVE SMOOTH",
"275 -64 OFFCURVE",
"300 -71 OFFCURVE",
"341 -84 CURVE",
"365 -53 OFFCURVE",
"379 -31 OFFCURVE",
"392 13 CURVE",
"365 42 OFFCURVE",
"306 76 OFFCURVE",
"260 86 CURVE",
"278 102 OFFCURVE",
"310 117 OFFCURVE",
"337 117 CURVE SMOOTH",
"386 117 OFFCURVE",
"421 86 OFFCURVE",
"452 56 CURVE SMOOTH",
"479 30 OFFCURVE",
"506 6 OFFCURVE",
"575 6 CURVE",
"642 10 OFFCURVE",
"719 42 OFFCURVE",
"764 76 CURVE SMOOTH",
"792 97 OFFCURVE",
"818 126 OFFCURVE",
"835 154 CURVE SMOOTH",
"854 186 OFFCURVE",
"864 220 OFFCURVE",
"864 246 CURVE SMOOTH"
);
},
{
closed = 1;
nodes = (
"762 183 OFFCURVE",
"748 170 OFFCURVE",
"724 159 CURVE SMOOTH",
"695 146 OFFCURVE",
"663 139 OFFCURVE",
"628 139 CURVE SMOOTH",
"539 139 LINE",
"554 160 OFFCURVE",
"569 178 OFFCURVE",
"584 193 CURVE SMOOTH",
"614 224 OFFCURVE",
"647 249 OFFCURVE",
"692 249 CURVE SMOOTH",
"719 249 OFFCURVE",
"735 240 OFFCURVE",
"747 229 CURVE",
"760 216 OFFCURVE",
"767 199 OFFCURVE",
"770 191 CURVE"
);
}
);
width = 914;
}
);
unicode = FC21;
},
{
glyphname = uniFCB3;
layers = (
{
anchors = (
{
name = bottom_1;
position = "{473, 78}";
},
{
name = bottom_2;
position = "{170, -54}";
},
{
name = caret_1;
position = "{404, 0}";
},
{
name = top_1;
position = "{607, 505}";
},
{
name = top_2;
position = "{128, 359}";
}
);
layerId = "0E844BAD-773F-41FF-B6D6-C35F1E5E991C";
name = Bold;
paths = (
{
closed = 1;
nodes = (
"757 392 OFFCURVE",
"741 422 OFFCURVE",
"713 444 CURVE SMOOTH",
"687 464 OFFCURVE",
"655 475 OFFCURVE",
"627 475 CURVE SMOOTH",
"567 475 OFFCURVE",
"502 424 OFFCURVE",
"446 364 CURVE SMOOTH",
"419 335 OFFCURVE",
"391 301 OFFCURVE",
"357 252 CURVE",
"334 265 OFFCURVE",
"323 285 OFFCURVE",
"310 301 CURVE SMOOTH",
"296 318 OFFCURVE",
"281 332 OFFCURVE",
"246 332 CURVE SMOOTH",
"227 332 OFFCURVE",
"206 326 OFFCURVE",
"185 314 CURVE SMOOTH",
"163 301 OFFCURVE",
"140 279 OFFCURVE",
"125 258 CURVE SMOOTH",
"115 244 OFFCURVE",
"102 221 OFFCURVE",
"96 205 CURVE SMOOTH",
"89 186 OFFCURVE",
"85 161 OFFCURVE",
"86 137 CURVE",
"76 135 OFFCURVE",
"34 138 OFFCURVE",
"9 139 CURVE",
"-10 139 LINE SMOOTH",
"-45 139 OFFCURVE",
"-80 116 OFFCURVE",
"-80 70 CURVE SMOOTH",
"-80 26 OFFCURVE",
"-48 0 OFFCURVE",
"-10 0 CURVE SMOOTH",
"15 0 LINE SMOOTH",
"70 0 OFFCURVE",
"102 10 OFFCURVE",
"139 10 CURVE SMOOTH",
"173 10 OFFCURVE",
"198 4 OFFCURVE",
"253 -27 CURVE",
"273 32 OFFCURVE",
"278 76 OFFCURVE",
"278 123 CURVE",
"219 138 OFFCURVE",
"168 155 OFFCURVE",
"168 184 CURVE SMOOTH",
"168 206 OFFCURVE",
"199 232 OFFCURVE",
"240 232 CURVE SMOOTH",
"280 232 OFFCURVE",
"302 197 OFFCURVE",
"324 168 CURVE SMOOTH",
"343 143 OFFCURVE",
"356 136 OFFCURVE",
"379 128 CURVE SMOOTH",
"420 116 OFFCURVE",
"458 118 OFFCURVE",
"468 119 CURVE SMOOTH",
"535 123 OFFCURVE",
"612 155 OFFCURVE",
"657 189 CURVE SMOOTH",
"685 210 OFFCURVE",
"711 239 OFFCURVE",
"728 267 CURVE SMOOTH",
"747 299 OFFCURVE",
"757 333 OFFCURVE",
"757 359 CURVE SMOOTH"
);
},
{
closed = 1;
nodes = (
"655 296 OFFCURVE",
"641 283 OFFCURVE",
"617 272 CURVE SMOOTH",
"588 259 OFFCURVE",
"556 252 OFFCURVE",
"521 252 CURVE SMOOTH",
"432 252 LINE",
"447 273 OFFCURVE",
"462 291 OFFCURVE",
"477 306 CURVE SMOOTH",
"507 337 OFFCURVE",
"540 362 OFFCURVE",
"585 362 CURVE SMOOTH",
"612 362 OFFCURVE",
"628 353 OFFCURVE",
"640 342 CURVE",
"653 329 OFFCURVE",
"660 312 OFFCURVE",
"663 304 CURVE"
);
}
);
width = 807;
}
);
unicode = FCB3;
},
{
glyphname = uni063506450649;
layers = (
{
anchors = (
{
name = bottom_1;
position = "{1066, 78}";
},
{
name = bottom_2;
position = "{803, -67}";
},
{
name = bottom_3;
position = "{314, -311}";
},
{
name = caret_1;
position = "{466, 0}";
},
{
name = caret_2;
position = "{911, 0}";
},
{
name = top_1;
position = "{1157, 505}";
},
{
name = top_2;
position = "{766, 362}";
},
{
name = top_3;
position = "{284, 50}";
}
);
layerId = "0E844BAD-773F-41FF-B6D6-C35F1E5E991C";
name = Bold;
paths = (
{
closed = 1;
nodes = (
"1307 392 OFFCURVE",
"1291 422 OFFCURVE",
"1263 444 CURVE SMOOTH",
"1237 464 OFFCURVE",
"1205 475 OFFCURVE",
"1177 475 CURVE SMOOTH",
"1117 475 OFFCURVE",
"1052 424 OFFCURVE",
"996 364 CURVE SMOOTH",
"969 335 OFFCURVE",
"941 301 OFFCURVE",
"907 252 CURVE",
"893 259 OFFCURVE",
"881 276 OFFCURVE",
"866 292 CURVE SMOOTH",
"848 312 OFFCURVE",
"827 332 OFFCURVE",
"796 332 CURVE SMOOTH",
"777 332 OFFCURVE",
"756 326 OFFCURVE",
"735 314 CURVE SMOOTH",
"713 301 OFFCURVE",
"690 279 OFFCURVE",
"675 258 CURVE SMOOTH",
"665 244 OFFCURVE",
"652 221 OFFCURVE",
"646 205 CURVE SMOOTH",
"639 186 OFFCURVE",
"635 162 OFFCURVE",
"636 138 CURVE",
"556 139 OFFCURVE",
"498 129 OFFCURVE",
"453 93 CURVE",
"432 72 OFFCURVE",
"427 59 OFFCURVE",
"418 2 CURVE",
"446 -3 OFFCURVE",
"455 -5 OFFCURVE",
"484 -12 CURVE",
"514 -21 OFFCURVE",
"543 -34 OFFCURVE",
"543 -49 CURVE SMOOTH",
"543 -77 OFFCURVE",
"498 -99 OFFCURVE",
"438 -113 CURVE SMOOTH",
"396 -123 OFFCURVE",
"348 -128 OFFCURVE",
"303 -128 CURVE SMOOTH",
"234 -128 OFFCURVE",
"185 -114 OFFCURVE",
"159 -80 CURVE SMOOTH",
"130 -44 OFFCURVE",
"129 10 OFFCURVE",
"142 67 CURVE",
"99 82 LINE",
"78 33 OFFCURVE",
"65 -13 OFFCURVE",
"61 -59 CURVE SMOOTH",
"58 -93 OFFCURVE",
"61 -129 OFFCURVE",
"75 -163 CURVE SMOOTH",
"90 -200 OFFCURVE",
"117 -229 OFFCURVE",
"154 -250 CURVE SMOOTH",
"192 -270 OFFCURVE",
"239 -281 OFFCURVE",
"294 -281 CURVE SMOOTH",
"357 -281 OFFCURVE",
"416 -270 OFFCURVE",
"466 -249 CURVE SMOOTH",
"528 -222 OFFCURVE",
"577 -181 OFFCURVE",
"606 -126 CURVE SMOOTH",
"621 -96 OFFCURVE",
"629 -66 OFFCURVE",
"630 -40 CURVE",
"630 3 OFFCURVE",
"611 29 OFFCURVE",
"572 49 CURVE",
"632 49 OFFCURVE",
"736 21 OFFCURVE",
"803 -27 CURVE",
"823 32 OFFCURVE",
"828 76 OFFCURVE",
"828 123 CURVE",
"769 138 OFFCURVE",
"718 155 OFFCURVE",
"718 184 CURVE SMOOTH",
"718 206 OFFCURVE",
"749 232 OFFCURVE",
"790 232 CURVE SMOOTH",
"830 232 OFFCURVE",
"852 197 OFFCURVE",
"874 168 CURVE SMOOTH",
"893 143 OFFCURVE",
"906 136 OFFCURVE",
"929 128 CURVE",
"970 116 OFFCURVE",
"1008 118 OFFCURVE",
"1018 119 CURVE",
"1085 123 OFFCURVE",
"1162 155 OFFCURVE",
"1207 189 CURVE SMOOTH",
"1235 210 OFFCURVE",
"1261 239 OFFCURVE",
"1278 267 CURVE SMOOTH",
"1297 299 OFFCURVE",
"1307 333 OFFCURVE",
"1307 359 CURVE SMOOTH"
);
},
{
closed = 1;
nodes = (
"1205 296 OFFCURVE",
"1191 283 OFFCURVE",
"1167 272 CURVE SMOOTH",
"1138 259 OFFCURVE",
"1106 252 OFFCURVE",
"1071 252 CURVE SMOOTH",
"982 252 LINE",
"997 273 OFFCURVE",
"1012 291 OFFCURVE",
"1027 306 CURVE SMOOTH",
"1057 337 OFFCURVE",
"1090 362 OFFCURVE",
"1135 362 CURVE SMOOTH",
"1162 362 OFFCURVE",
"1178 353 OFFCURVE",
"1190 342 CURVE",
"1203 329 OFFCURVE",
"1210 312 OFFCURVE",
"1213 304 CURVE"
);
}
);
width = 1357;
}
);
},
{
glyphname = uniFD05;
layers = (
{
anchors = (
{
name = bottom_1;
position = "{854, -29}";
},
{
name = bottom_2;
position = "{302, -313}";
},
{
name = caret_1;
position = "{584, 0}";
},
{
name = top_1;
position = "{967, 392}";
},
{
name = top_2;
position = "{234, 85}";
}
);
layerId = "0E844BAD-773F-41FF-B6D6-C35F1E5E991C";
name = Bold;
paths = (
{
closed = 1;
nodes = (
"1117 279 OFFCURVE",
"1101 309 OFFCURVE",
"1073 331 CURVE SMOOTH",
"1047 351 OFFCURVE",
"1015 362 OFFCURVE",
"987 362 CURVE SMOOTH",
"927 362 OFFCURVE",
"862 311 OFFCURVE",
"806 251 CURVE SMOOTH",
"761 202 OFFCURVE",
"739 170 OFFCURVE",
"718 139 CURVE",
"668 139 OFFCURVE",
"644 157 OFFCURVE",
"625 179 CURVE SMOOTH",
"599 210 OFFCURVE",
"584 247 OFFCURVE",
"525 247 CURVE SMOOTH",
"489 247 OFFCURVE",
"459 226 OFFCURVE",
"428 178 CURVE SMOOTH",
"418 163 OFFCURVE",
"397 127 OFFCURVE",
"385 96 CURVE SMOOTH",
"372 63 OFFCURVE",
"363 22 OFFCURVE",
"376 -5 CURVE SMOOTH",
"385 -25 OFFCURVE",
"411 -43 OFFCURVE",
"450 -54 CURVE SMOOTH",
"476 -61 OFFCURVE",
"504 -65 OFFCURVE",
"524 -67 CURVE",
"524 -92 OFFCURVE",
"478 -110 OFFCURVE",
"423 -120 CURVE SMOOTH",
"388 -127 OFFCURVE",
"349 -130 OFFCURVE",
"315 -130 CURVE SMOOTH",
"275 -130 OFFCURVE",
"238 -126 OFFCURVE",
"208 -115 CURVE SMOOTH",
"151 -94 OFFCURVE",
"133 -53 OFFCURVE",
"133 -4 CURVE SMOOTH",
"133 16 OFFCURVE",
"136 43 OFFCURVE",
"142 66 CURVE",
"99 81 LINE",
"78 30 OFFCURVE",
"60 -32 OFFCURVE",
"60 -90 CURVE SMOOTH",
"60 -153 OFFCURVE",
"81 -196 OFFCURVE",
"117 -227 CURVE SMOOTH",
"158 -262 OFFCURVE",
"219 -283 OFFCURVE",
"292 -283 CURVE SMOOTH",
"394 -283 OFFCURVE",
"469 -257 OFFCURVE",
"530 -209 CURVE SMOOTH",
"557 -188 OFFCURVE",
"577 -163 OFFCURVE",
"591 -137 CURVE SMOOTH",
"607 -107 OFFCURVE",
"617 -74 OFFCURVE",
"617 -43 CURVE SMOOTH",
"617 7 OFFCURVE",
"590 21 OFFCURVE",
"545 25 CURVE SMOOTH",
"521 27 OFFCURVE",
"500 28 OFFCURVE",
"484 33 CURVE SMOOTH",
"465 39 OFFCURVE",
"454 51 OFFCURVE",
"454 68 CURVE SMOOTH",
"454 93 OFFCURVE",
"477 116 OFFCURVE",
"515 116 CURVE SMOOTH",
"526 116 OFFCURVE",
"562 114 OFFCURVE",
"595 82 CURVE SMOOTH",
"617 60 OFFCURVE",
"645 31 OFFCURVE",
"678 19 CURVE",
"671 -13 LINE",
"730 -13 LINE",
"736 10 LINE",
"764 6 OFFCURVE",
"798 4 OFFCURVE",
"828 6 CURVE SMOOTH",
"898 11 OFFCURVE",
"972 42 OFFCURVE",
"1017 76 CURVE SMOOTH",
"1046 98 OFFCURVE",
"1071 126 OFFCURVE",
"1088 154 CURVE SMOOTH",
"1107 186 OFFCURVE",
"1117 220 OFFCURVE",
"1117 246 CURVE SMOOTH"
);
},
{
closed = 1;
nodes = (
"1015 183 OFFCURVE",
"1001 170 OFFCURVE",
"977 159 CURVE SMOOTH",
"948 146 OFFCURVE",
"916 139 OFFCURVE",
"881 139 CURVE SMOOTH",
"792 139 LINE",
"803 154 OFFCURVE",
"818 174 OFFCURVE",
"837 193 CURVE SMOOTH",
"867 224 OFFCURVE",
"900 249 OFFCURVE",
"945 249 CURVE SMOOTH",
"972 249 OFFCURVE",
"988 240 OFFCURVE",
"1000 229 CURVE",
"1013 216 OFFCURVE",
"1020 199 OFFCURVE",
"1023 191 CURVE"
);
}
);
width = 1167;
}
);
unicode = FD05;
},
{
glyphname = uniFD21;
layers = (
{
anchors = (
{
name = bottom_1;
position = "{867, -33}";
},
{
name = bottom_2;
position = "{302, -313}";
},
{
name = caret_1;
position = "{598, 0}";
},
{
name = top_1;
position = "{967, 391}";
},
{
name = top_2;
position = "{238, 90}";
}
);
layerId = "0E844BAD-773F-41FF-B6D6-C35F1E5E991C";
name = Bold;
paths = (
{
closed = 1;
nodes = (
"1127 139 LINE SMOOTH",
"1111 139 OFFCURVE",
"1090 137 OFFCURVE",
"1070 130 CURVE",
"1076 138 OFFCURVE",
"1082 146 OFFCURVE",
"1087 154 CURVE SMOOTH",
"1104 181 OFFCURVE",
"1116 220 OFFCURVE",
"1116 247 CURVE SMOOTH",
"1116 279 OFFCURVE",
"1098 310 OFFCURVE",
"1072 331 CURVE SMOOTH",
"1047 351 OFFCURVE",
"1015 361 OFFCURVE",
"987 361 CURVE SMOOTH",
"958 361 OFFCURVE",
"928 351 OFFCURVE",
"892 328 CURVE SMOOTH",
"861 308 OFFCURVE",
"830 279 OFFCURVE",
"805 252 CURVE SMOOTH",
"782 227 OFFCURVE",
"751 190 OFFCURVE",
"716 139 CURVE",
"662 140 OFFCURVE",
"639 162 OFFCURVE",
"620 187 CURVE SMOOTH",
"597 216 OFFCURVE",
"580 247 OFFCURVE",
"525 247 CURVE SMOOTH",
"489 247 OFFCURVE",
"459 226 OFFCURVE",
"428 178 CURVE SMOOTH",
"418 163 OFFCURVE",
"397 127 OFFCURVE",
"385 96 CURVE SMOOTH",
"372 63 OFFCURVE",
"363 22 OFFCURVE",
"376 -5 CURVE SMOOTH",
"385 -25 OFFCURVE",
"411 -43 OFFCURVE",
"450 -54 CURVE SMOOTH",
"476 -61 OFFCURVE",
"504 -65 OFFCURVE",
"524 -67 CURVE",
"524 -79 OFFCURVE",
"495 -104 OFFCURVE",
"437 -118 CURVE SMOOTH",
"408 -125 OFFCURVE",
"372 -130 OFFCURVE",
"315 -130 CURVE SMOOTH",
"275 -130 OFFCURVE",
"238 -126 OFFCURVE",
"208 -115 CURVE SMOOTH",
"151 -94 OFFCURVE",
"133 -53 OFFCURVE",
"133 -4 CURVE SMOOTH",
"133 16 OFFCURVE",
"136 43 OFFCURVE",
"142 66 CURVE",
"99 81 LINE",
"78 30 OFFCURVE",
"60 -32 OFFCURVE",
"60 -90 CURVE SMOOTH",
"60 -153 OFFCURVE",
"81 -196 OFFCURVE",
"117 -227 CURVE SMOOTH",
"158 -262 OFFCURVE",
"219 -283 OFFCURVE",
"292 -283 CURVE SMOOTH",
"392 -283 OFFCURVE",
"469 -257 OFFCURVE",
"530 -209 CURVE SMOOTH",
"557 -188 OFFCURVE",
"577 -163 OFFCURVE",
"591 -137 CURVE SMOOTH",
"607 -107 OFFCURVE",
"617 -74 OFFCURVE",
"617 -43 CURVE SMOOTH",
"617 7 OFFCURVE",
"590 21 OFFCURVE",
"545 25 CURVE SMOOTH",
"521 27 OFFCURVE",
"500 28 OFFCURVE",
"484 33 CURVE SMOOTH",
"465 39 OFFCURVE",
"454 51 OFFCURVE",
"454 68 CURVE SMOOTH",
"454 93 OFFCURVE",
"477 116 OFFCURVE",
"515 116 CURVE SMOOTH",
"555 116 OFFCURVE",
"578 98 OFFCURVE",
"600 77 CURVE SMOOTH",
"622 56 OFFCURVE",
"643 31 OFFCURVE",
"678 19 CURVE",
"671 -13 LINE",
"730 -13 LINE",
"736 8 LINE",
"759 4 OFFCURVE",
"781 4 OFFCURVE",
"807 4 CURVE SMOOTH",
"866 4 OFFCURVE",
"925 4 OFFCURVE",
"984 4 CURVE SMOOTH",
"1019 4 OFFCURVE",
"1095 0 OFFCURVE",
"1115 0 CURVE SMOOTH",
"1235 0 LINE",
"1235 139 LINE"
);
},
{
closed = 1;
nodes = (
"1011 180 OFFCURVE",
"999 170 OFFCURVE",
"975 159 CURVE SMOOTH",
"947 146 OFFCURVE",
"915 139 OFFCURVE",
"880 139 CURVE SMOOTH",
"791 139 LINE",
"793 141 OFFCURVE",
"815 171 OFFCURVE",
"835 193 CURVE SMOOTH",
"861 221 OFFCURVE",
"900 249 OFFCURVE",
"944 249 CURVE SMOOTH",
"998 249 OFFCURVE",
"1016 206 OFFCURVE",
"1021 191 CURVE"
);
}
);
width = 1235;
}
);
unicode = FD21;
},
